<svg width="25" height="24" viewBox="0 0 25 24" fill="none" xmlns="http://www.w3.org/2000/svg">
<path d="M21.78 12.5301L14.78 19.5301C14.634 19.6761 14.442 19.75 14.25 19.75C14.058 19.75 13.866 19.6771 13.72 19.5301C13.427 19.2371 13.427 18.762 13.72 18.469L19.44 12.749H3.25C2.836 12.749 2.5 12.413 2.5 11.999C2.5 11.585 2.836 11.249 3.25 11.249H19.439L13.719 5.52902C13.426 5.23602 13.426 4.76104 13.719 4.46804C14.012 4.17504 14.487 4.17504 14.78 4.46804L21.78 11.468C22.073 11.763 22.073 12.2371 21.78 12.5301Z" fill="white"/>
</svg>
