<svg width="25" height="24" viewBox="0 0 25 24" fill="none" xmlns="http://www.w3.org/2000/svg">
<path d="M21.78 12.5298L14.78 19.5298C14.634 19.6758 14.442 19.7498 14.25 19.7498C14.058 19.7498 13.866 19.6768 13.72 19.5298C13.427 19.2368 13.427 18.7618 13.72 18.4688L19.44 12.7488H3.25C2.836 12.7488 2.5 12.4128 2.5 11.9988C2.5 11.5848 2.836 11.2488 3.25 11.2488H19.439L13.719 5.52877C13.426 5.23577 13.426 4.7608 13.719 4.4678C14.012 4.1748 14.487 4.1748 14.78 4.4678L21.78 11.4678C22.073 11.7628 22.073 12.2368 21.78 12.5298Z" fill="#878B99"/>
</svg>
