<svg width="14" height="15" viewBox="0 0 14 15" fill="none" xmlns="http://www.w3.org/2000/svg">
<path opacity="0.8" d="M7.91615 7.49993L11.8099 11.3939C12.0634 11.6472 12.0634 12.0567 11.8099 12.31C11.5567 12.5633 11.1471 12.5633 10.8939 12.31L6.99994 8.41604L3.10614 12.31C2.85274 12.5633 2.44333 12.5633 2.19005 12.31C1.93665 12.0567 1.93665 11.6472 2.19005 11.3939L6.08385 7.49993L2.19005 3.60593C1.93665 3.35264 1.93665 2.94311 2.19005 2.68982C2.31628 2.56347 2.48225 2.5 2.6481 2.5C2.81395 2.5 2.9798 2.56347 3.10614 2.68982L6.99994 6.58382L10.8939 2.68982C11.0202 2.56347 11.1861 2.5 11.3519 2.5C11.5178 2.5 11.6836 2.56347 11.8099 2.68982C12.0634 2.94311 12.0634 3.35264 11.8099 3.60593L7.91615 7.49993Z" fill="#878B99"/>
</svg>
