<svg width="16" height="17" viewBox="0 0 16 17" fill="none" xmlns="http://www.w3.org/2000/svg">
<path opacity="0.8" d="M9.04696 8.4995L13.497 12.9498C13.7866 13.2393 13.7866 13.7073 13.497 13.9968C13.2075 14.2862 12.7395 14.2862 12.4501 13.9968L7.99986 9.54648L3.54981 13.9968C3.2602 14.2862 2.79231 14.2862 2.50285 13.9968C2.21324 13.7073 2.21324 13.2393 2.50285 12.9498L6.9529 8.4995L2.50285 4.04921C2.21324 3.75974 2.21324 3.2917 2.50285 3.00223C2.6471 2.85783 2.83678 2.7853 3.02633 2.7853C3.21587 2.7853 3.40541 2.85783 3.54981 3.00223L7.99986 7.45251L12.4501 3.00223C12.5944 2.85783 12.784 2.7853 12.9735 2.7853C13.1631 2.7853 13.3526 2.85783 13.497 3.00223C13.7866 3.2917 13.7866 3.75974 13.497 4.04921L9.04696 8.4995Z" fill="#878B99"/>
</svg>
