<svg width="104" height="122" viewBox="0 0 104 122" fill="none" xmlns="http://www.w3.org/2000/svg">
<rect width="104" height="122" rx="8" fill="url(#paint0_radial_332_16306)"/>
<rect width="104" height="122" rx="8" fill="url(#paint1_radial_332_16306)"/>
<circle cx="25.3926" cy="20.315" r="5.07865" fill="#7400FF"/>
<path d="M31.5612 38.0899C32.7319 38.0899 33.3172 38.0899 33.9361 37.7016C34.4241 37.3953 34.994 36.5424 35.0902 35.9744C35.2121 35.2539 35.067 34.9036 34.7768 34.2029C34.2663 32.9705 33.5181 31.8508 32.575 30.9076C31.6318 29.9644 30.512 29.2162 29.2797 28.7058C28.0473 28.1953 26.7265 27.9326 25.3927 27.9326C24.0588 27.9326 22.738 28.1953 21.5056 28.7058C20.2733 29.2162 19.1535 29.9644 18.2104 30.9076C17.2672 31.8508 16.519 32.9705 16.0085 34.2029C15.7183 34.9036 15.5732 35.2539 15.6951 35.9744C15.7913 36.5424 16.3612 37.3953 16.8492 37.7016C17.4681 38.0899 18.0535 38.0899 19.2241 38.0899L25.3927 38.0899H31.5612Z" fill="#7400FF"/>
<rect x="45.707" y="19.0449" width="25.3933" height="5.07865" rx="2.53933" fill="#7400FF"/>
<rect x="45.707" y="29.2021" width="45.7079" height="5.07865" rx="2.53933" fill="#7400FF"/>
<rect x="12.6963" y="50.7871" width="77" height="3" rx="1.5" fill="#7400FF"/>
<rect x="12.6963" y="62.7871" width="77" height="3" rx="1.5" fill="#7400FF"/>
<rect x="12.6963" y="74.7871" width="77" height="3" rx="1.5" fill="#7400FF"/>
<rect x="12.6963" y="86.7871" width="77" height="3" rx="1.5" fill="#7400FF"/>
<rect x="12.6963" y="98.7871" width="77" height="3" rx="1.5" fill="#7400FF"/>
<defs>
<radialGradient id="paint0_radial_332_16306" cx="0" cy="0" r="1" gradientUnits="userSpaceOnUse" gradientTransform="translate(-18.6136 132.966) rotate(-47.7087) scale(227.003 191.674)">
<stop offset="0.136375" stop-color="#E4D2FF"/>
</radialGradient>
<radialGradient id="paint1_radial_332_16306" cx="0" cy="0" r="1" gradientUnits="userSpaceOnUse" gradientTransform="translate(133.219 89.5) rotate(-174.983) scale(57.1714 260.146)">
<stop stop-color="#7400FF"/>
<stop offset="1" stop-color="#99FFFF" stop-opacity="0"/>
<stop offset="1" stop-color="#E4D2FF"/>
</radialGradient>
</defs>
</svg>
