<svg width="24" height="24" viewBox="0 0 24 24" fill="none" xmlns="http://www.w3.org/2000/svg">
<path d="M6.04932 12V17.7359C6.04932 17.8732 6.10419 18.0058 6.20399 18.1C9.49574 21.2077 14.5037 21.2077 17.7955 18.1C17.8953 18.0058 17.9501 17.8732 17.9501 17.7359V12" stroke="#7400FF" stroke-width="1.71429"/>
<path d="M21.5205 9.88281H22.5209V16.1166H21.5205V9.88281Z" fill="#7400FF"/>
<path d="M10.5837 3.45001L1.99986 7.75083C1.09771 8.20284 1.09771 9.54829 1.99986 10.0003L10.5837 14.3011C11.599 14.8098 12.7838 14.7872 13.7807 14.2401L21.5441 9.97998C22.3946 9.51326 22.3946 8.23787 21.5441 7.77115L13.7807 3.51099C12.7838 2.96392 11.599 2.94132 10.5837 3.45001Z" stroke="#7400FF" stroke-width="1.71429"/>
<path d="M23.1868 15.1169C23.1868 15.8054 22.654 16.3636 21.9967 16.3636C21.3395 16.3636 20.8066 15.8054 20.8066 15.1169C20.8066 14.4283 21.3395 13.8701 21.9967 13.8701C22.654 13.8701 23.1868 14.4283 23.1868 15.1169Z" fill="#7400FF"/>
</svg>
