<svg width="24" height="24" viewBox="0 0 24 24" fill="none" xmlns="http://www.w3.org/2000/svg">
<path d="M12.0328 15.6203V13.2998" stroke="#7400FF" stroke-width="1.71429" stroke-linecap="round" stroke-linejoin="round"/>
<path d="M20.0934 11.1709L20.0678 11.1894C17.9292 12.5069 15.1054 13.3024 12.0291 13.3024C8.95272 13.3024 6.13687 12.5069 3.99915 11.1894L3.97266 11.1709" stroke="#7400FF" stroke-width="1.71429" stroke-linecap="round" stroke-linejoin="round"/>
<path fill-rule="evenodd" clip-rule="evenodd" d="M3.8999 12.8252C3.8999 7.39305 5.93343 5.58203 12.0331 5.58203C18.1337 5.58203 20.1664 7.39305 20.1664 12.8252C20.1664 18.2574 18.1337 20.0684 12.0331 20.0684C5.93343 20.0684 3.8999 18.2574 3.8999 12.8252Z" stroke="#7400FF" stroke-width="1.71429" stroke-linecap="round" stroke-linejoin="round"/>
<path d="M14.9139 5.77765V5.22136C14.9139 4.10526 14.0989 3.2002 13.0949 3.2002H10.9713C9.96734 3.2002 9.15234 4.10526 9.15234 5.22136V5.77765" stroke="#7400FF" stroke-width="1.71429" stroke-linecap="round" stroke-linejoin="round"/>
</svg>
