<svg width="120" height="99" viewBox="0 0 120 99" fill="none" xmlns="http://www.w3.org/2000/svg">
<path d="M84.3822 61.5859C87.4115 65.3947 94.8767 80.7184 89.0555 85.2074C81.0057 91.4148 71.6946 74.2594 69.9868 69.2637L84.3822 61.5859Z" fill="#FEBD9D"/>
<path d="M85.2254 60.9517C85.2254 60.9517 84.0916 61.8268 82.2917 63.035C79.025 65.2281 73.5652 68.509 68.7254 69.5861C68.7254 69.5861 68.2258 68.5869 67.4641 67.0811L65.7634 63.7117C64.7395 61.6744 63.6022 59.414 62.6314 57.4759L61.5011 55.2084C61.2921 54.7903 61.1043 54.4112 60.9449 54.0817C58.1104 48.3384 54.9394 34.8075 64.2505 33.9076C65.0462 33.8249 65.8473 33.8084 66.6456 33.858H66.6846C66.9043 33.8757 67.1169 33.897 67.3259 33.9253L67.503 33.9501L67.8148 34.0068C67.9388 34.0281 68.0628 34.0564 68.1691 34.0847C68.2754 34.1131 68.3605 34.1308 68.4526 34.1591L68.5837 34.191L68.8529 34.2796C68.9385 34.3054 69.0225 34.3362 69.1045 34.3717C69.1906 34.3974 69.2747 34.4294 69.3561 34.4674C69.4539 34.5048 69.5497 34.5474 69.643 34.5949C69.7289 34.6308 69.8128 34.671 69.8946 34.7154C70.0056 34.7674 70.1119 34.8241 70.2135 34.8855C70.3056 34.9351 70.3942 34.9882 70.4792 35.0414L70.6989 35.1866C70.9571 35.358 71.2055 35.5437 71.4429 35.7429C71.5457 35.8279 71.6449 35.9094 71.7405 36.0015C72.063 36.2941 72.3694 36.6039 72.6582 36.9298C72.7538 37.0396 72.853 37.153 72.9487 37.2841C73.0444 37.4152 73.0975 37.4648 73.1719 37.5569C73.2924 37.7057 73.4128 37.8616 73.5262 38.0246C73.6077 38.1274 73.6857 38.2372 73.7636 38.347C73.8841 38.5135 74.0045 38.7013 74.1179 38.8643C74.2313 39.0273 74.3057 39.1371 74.3978 39.2859L74.6883 39.7465C74.7875 39.9024 74.8832 40.0619 74.9824 40.2284C75.2092 40.6004 75.4324 40.9937 75.6591 41.4011C75.73 41.5358 75.8079 41.6739 75.8823 41.8121C75.9567 41.9503 76.0843 42.1877 76.187 42.3826C76.2898 42.5774 76.3855 42.7369 76.4811 42.9424C76.5768 43.1479 76.7043 43.3711 76.8177 43.5943C77.0515 44.0549 77.2854 44.519 77.5263 44.9867C80.1978 50.3261 82.9259 56.1012 84.29 59.0242C84.8923 60.2289 85.2254 60.9517 85.2254 60.9517Z" fill="#AFFFA8"/>
<path d="M77.5618 44.9832C74.9538 45.0751 72.4854 46.184 70.6847 48.0727C70.4347 48.3344 70.1981 48.6088 69.9761 48.8947C67.7241 51.6754 64.81 53.8464 61.5011 55.2084C61.2921 54.7903 61.1043 54.4112 60.9449 54.0817C58.1104 48.3384 54.9394 34.8075 64.2505 33.9076C65.0462 33.8249 65.8473 33.8084 66.6456 33.858H66.6846C66.9043 33.8757 67.1169 33.897 67.3259 33.9253L67.503 33.9501L67.8148 34.0068C67.9388 34.0281 68.0628 34.0564 68.1691 34.0847C68.2754 34.1131 68.3605 34.1308 68.4526 34.1591L68.5837 34.191L68.8529 34.2796C68.9385 34.3054 69.0225 34.3362 69.1045 34.3717C69.1906 34.3974 69.2747 34.4294 69.3561 34.4674C69.4539 34.5048 69.5497 34.5474 69.643 34.5949C69.7289 34.6308 69.8128 34.671 69.8946 34.7154C70.0056 34.7674 70.1119 34.8241 70.2135 34.8855C70.3056 34.9351 70.3942 34.9882 70.4792 35.0414L70.6989 35.1866C70.9571 35.358 71.2055 35.5437 71.4429 35.7429C71.5457 35.8279 71.6449 35.9094 71.7405 36.0015C72.063 36.2941 72.3694 36.6039 72.6582 36.9298C72.7538 37.0396 72.853 37.153 72.9487 37.2841C73.0444 37.4152 73.0975 37.4648 73.1719 37.5569C73.2924 37.7057 73.4128 37.8616 73.5262 38.0246C73.6077 38.1274 73.6857 38.2372 73.7636 38.347C73.8841 38.5135 74.0045 38.7013 74.1179 38.8643C74.2313 39.0273 74.3057 39.1371 74.3978 39.2859L74.6883 39.7465C74.7875 39.9024 74.8832 40.0619 74.9824 40.2284C75.2092 40.6004 75.4324 40.9937 75.6591 41.4011C75.73 41.5358 75.8079 41.6739 75.8823 41.8121C75.9567 41.9503 76.0843 42.1877 76.187 42.3826C76.2898 42.5774 76.3855 42.7369 76.4811 42.9424C76.5768 43.1479 76.7043 43.3711 76.8177 43.5943C77.0976 44.0513 77.3315 44.5155 77.5618 44.9832Z" fill="#AFFFA8"/>
<path d="M82.2917 63.0355C79.025 65.2287 73.5652 68.5095 68.7254 69.5866C68.7254 69.5866 68.2258 68.5875 67.4641 67.0817L65.7634 63.7123C64.7395 61.675 63.6021 59.4145 62.6313 57.4765L68.1656 52.0946C68.3817 52.0131 72.6156 52.2292 71.3083 55.7794C70.0009 59.3295 67.6944 61.7069 69.5757 63.1489C71.4571 64.5909 76.8921 52.9627 81.6858 61.5758C81.947 62.0356 82.1505 62.5259 82.2917 63.0355Z" fill="#7DE375"/>
<path d="M71.2835 42.6079C71.2835 42.7957 71.2835 42.987 71.2552 43.1854C71.1949 44.1739 71.0851 45.2829 70.9363 46.5301C70.8831 47.0013 70.7981 47.515 70.6847 48.0748C70.5536 48.7516 70.3836 49.492 70.1887 50.268C69.5687 52.7056 68.651 55.6144 67.5704 58.7181C67.4428 59.0724 67.3118 59.4622 67.1771 59.8342C66.9397 60.5109 66.6917 61.1912 66.4437 61.875C66.2217 62.4844 65.9949 63.0973 65.7634 63.7138C63.1133 70.7999 60.0627 78.1128 58.1494 82.5912C53.8553 82.8156 49.6886 83.0648 45.6496 83.3388C44.2324 83.4309 42.827 83.5277 41.4334 83.6293C39.4705 83.7757 37.5455 83.9245 35.6582 84.0757C30.8326 84.469 26.2691 84.8942 22.0068 85.3477C22.7828 81.5318 24.8838 71.4235 27.3533 60.8652C28.7138 55.0546 30.1877 49.1059 31.6049 43.9968C32.6076 40.4006 33.589 37.2225 34.4854 34.7849C35.4208 32.2729 36.257 30.5616 36.9656 30.0195C39.4244 28.1417 41.5432 27.5393 44.1969 27.8653C44.4875 27.9043 44.7815 27.9503 45.0862 28.007C45.3909 28.0637 45.6992 28.1346 46.0181 28.2125C46.135 28.2373 46.2519 28.2692 46.3724 28.3011C46.4928 28.333 46.6239 28.372 46.7515 28.4074L47.1518 28.5208C47.7825 28.7097 48.4521 28.9306 49.1607 29.1833L49.6001 29.3392C49.9544 29.4668 50.3087 29.6014 50.6913 29.7467C51.3999 30.0124 52.1511 30.31 52.9518 30.6253C54.9536 31.4225 57.5896 32.4925 63.177 33.6688C63.549 33.7432 63.9069 33.8247 64.2399 33.9026L64.5376 33.97L64.8245 34.0408C64.9663 34.0727 65.1115 34.1117 65.2462 34.1471C65.3808 34.1825 65.519 34.218 65.6501 34.2534C65.9158 34.3243 66.1709 34.3951 66.4154 34.4731C66.8086 34.5971 67.1771 34.7246 67.5208 34.8628L67.8432 34.9975C68.0487 35.0931 68.2436 35.1888 68.4243 35.288L68.6652 35.4226C69.0381 35.6411 69.3831 35.904 69.6927 36.2056L69.7529 36.2659L69.838 36.358L69.9513 36.4855C70.0634 36.6183 70.1687 36.7566 70.2667 36.9001C70.3198 36.9816 70.3694 37.0595 70.419 37.1481C70.4686 37.2367 70.497 37.2827 70.5324 37.3571L70.582 37.4563C70.8696 38.073 71.0608 38.7303 71.1489 39.405C71.1489 39.4936 71.1737 39.5822 71.1879 39.6778C71.202 39.7735 71.1879 39.7947 71.2091 39.8585C71.2304 39.9223 71.2304 40.0605 71.2375 40.1632C71.2445 40.266 71.2552 40.39 71.2587 40.5175V40.6699C71.2587 40.7939 71.2587 40.9214 71.2587 41.0525C71.3154 41.5308 71.3083 42.0481 71.2835 42.6079Z" fill="#AFFFA8"/>
<path d="M58.1494 82.5908C60.0627 78.1124 63.1097 70.8102 65.7634 63.7134C65.9996 63.097 66.2264 62.484 66.4437 61.8746C66.6917 61.1908 66.9397 60.5105 67.1771 59.8338C67.3117 59.4618 67.4428 59.0862 67.5704 58.7177C68.6333 55.614 69.5686 52.6946 70.1887 50.2676" stroke="#F7AD2B" stroke-width="0.265728" stroke-linecap="round" stroke-linejoin="round"/>
<path d="M70.9364 46.5288C70.8833 47.0001 70.7983 47.5138 70.6849 48.0736C70.4348 48.3354 70.1983 48.6097 69.9763 48.8956C67.7243 51.6764 64.8102 53.8473 61.5013 55.2093C56.371 57.2395 50.3726 56.7364 46.4965 48.7964C45.8127 47.3792 45.1431 46.1108 44.4947 44.9451C41.0083 38.72 37.9082 35.7332 34.4927 34.7907C35.428 32.2787 36.2642 30.5674 36.9728 30.0253C39.4317 28.1475 41.5504 27.5452 44.2042 27.8712C44.4947 27.9101 44.7888 27.9562 45.0935 28.0129C45.3982 28.0696 45.7064 28.1404 46.0253 28.2184C46.1422 28.2432 46.2591 28.2751 46.3796 28.307C46.5001 28.3388 46.6312 28.3778 46.7587 28.4132L47.1591 28.5266C47.7897 28.7156 48.4594 28.9364 49.168 29.1892L49.6073 29.3451C49.9616 29.4726 50.3159 29.6073 50.6986 29.7525C50.9926 29.8659 51.3009 29.9793 51.6127 30.1068C51.8217 30.1848 52.0272 30.2663 52.2433 30.3548L52.9519 30.6347C54.9538 31.4319 57.5898 32.5019 63.1772 33.6782C63.5492 33.7526 63.907 33.8341 64.2401 33.9121C70.7947 35.4001 72.0808 37.037 70.9364 46.5288Z" fill="#E6FEE3"/>
<path d="M66.6561 33.8603C65.5188 37.3679 62.6773 40.9995 58.337 40.3405C53.6 39.6319 50.6805 34.739 50.7018 29.7539C51.4104 30.0196 52.1615 30.3173 52.9622 30.6326C54.9641 31.4298 57.6001 32.4998 63.1875 33.6761C63.5595 33.7505 63.9173 33.832 64.2504 33.9099C65.0495 33.8267 65.8542 33.8101 66.6561 33.8603Z" fill="white"/>
<path d="M48.569 79.2017C46.7019 80.6898 41.6353 82.7448 35.6582 84.077C30.8326 84.4703 26.2691 84.8954 22.0068 85.3489C22.7828 81.5331 24.8838 71.4248 27.3533 60.8665C28.7138 55.0559 30.1877 49.1071 31.6049 43.998C42.0357 45.4649 44.817 56.5085 40.0799 60.2429C34.7653 64.445 34.1807 67.9349 40.909 67.8427C47.6372 67.7506 53.8269 75.0174 48.569 79.2017Z" fill="#7DE375"/>
<path d="M65.2 20.4177C65.1504 20.9208 65.0972 21.3991 65.0512 21.8562C64.6331 25.9448 64.4453 28.4569 64.417 30.7634C64.417 31.9822 64.417 33.1443 64.502 34.4517C64.502 34.4517 62.8438 39.8938 56.9376 37.6404C52.771 36.0461 52.9623 30.6429 52.9623 30.6429C54.1811 26.7782 54.9922 22.7966 55.3822 18.7631C55.5239 16.74 65.9653 13.0978 65.2 20.4177Z" fill="#FEBD9D"/>
<path d="M65.0513 21.8554C64.6332 25.9441 64.4454 28.4561 64.4171 30.7626C61.0299 31.7901 57.5011 27.8325 59.4568 23.4887C60.874 20.4098 63.4109 21.0192 65.0513 21.8554Z" fill="#F4A789"/>
<path d="M85.2252 60.9524C85.2252 60.9524 76.2258 67.9145 68.7252 69.5868C68.7252 69.5868 68.2256 68.5877 67.4639 67.0819C73.6288 64.9561 80.0842 61.8559 84.3252 59.0215C84.8921 60.2297 85.2252 60.9524 85.2252 60.9524Z" fill="white"/>
<path d="M67.5134 25.8499C65.5292 28.4328 62.0039 27.8304 56.5086 22.2537C54.4289 20.1279 52.0302 16.7017 52.094 13.9913C52.1578 11.2809 55.4387 5.57303 61.6602 8.85034C64.0624 10.1188 65.7808 12.5635 66.8721 15.2278C67.2846 16.2468 67.6128 17.2979 67.8535 18.3705C68.5798 21.6195 68.4345 24.6488 67.5134 25.8499Z" fill="#FEBD9D"/>
<path d="M60.7106 18.1817C60.374 19.0214 58.9887 19.2624 57.614 18.7167C56.2393 18.1711 55.3925 17.0444 55.7291 16.2047C56.0657 15.365 57.4475 15.1206 58.8257 15.6662C60.204 16.2118 61.0436 17.3385 60.7106 18.1817Z" fill="#F4AF90"/>
<path d="M67.8425 18.3634C66.978 18.6823 66.1524 18.5937 65.7698 18.0799C65.2419 17.3713 65.7308 16.1065 66.861 15.2207C67.2736 16.2397 67.6018 17.2907 67.8425 18.3634Z" fill="#F4AF90"/>
<path d="M66.4394 15.9803C67.813 15.9803 68.9266 14.8667 68.9266 13.4931C68.9266 12.1194 67.813 11.0059 66.4394 11.0059C65.0657 11.0059 63.9521 12.1194 63.9521 13.4931C63.9521 14.8667 65.0657 15.9803 66.4394 15.9803Z" stroke="#683F1D" stroke-width="0.354305" stroke-miterlimit="10"/>
<path d="M60.898 14.8184C60.8973 14.9209 60.927 15.0212 60.9834 15.1068C61.0398 15.1923 61.1204 15.2592 61.2148 15.2989C61.3093 15.3386 61.4134 15.3493 61.514 15.3297C61.6145 15.3102 61.7071 15.2612 61.7797 15.189C61.8524 15.1168 61.9021 15.0246 61.9223 14.9242C61.9426 14.8238 61.9325 14.7196 61.8935 14.6248C61.8544 14.5301 61.7881 14.4491 61.703 14.3921C61.6179 14.3351 61.5177 14.3047 61.4152 14.3047C61.2787 14.3047 61.1476 14.3587 61.0507 14.4549C60.9538 14.5512 60.8989 14.6819 60.898 14.8184Z" fill="#683F1D"/>
<path d="M64.502 14.0134C64.502 14.1157 64.5323 14.2157 64.5891 14.3008C64.646 14.3858 64.7268 14.4521 64.8213 14.4913C64.9158 14.5304 65.0198 14.5407 65.1202 14.5207C65.2205 14.5008 65.3127 14.4515 65.385 14.3792C65.4574 14.3068 65.5066 14.2146 65.5266 14.1143C65.5465 14.0139 65.5363 13.9099 65.4971 13.8154C65.458 13.7209 65.3917 13.6401 65.3066 13.5833C65.2216 13.5264 65.1215 13.4961 65.0192 13.4961C64.882 13.4961 64.7505 13.5506 64.6535 13.6476C64.5564 13.7446 64.502 13.8762 64.502 14.0134Z" fill="#683F1D"/>
<path d="M57.0257 21.8849C55.7573 22.6148 53.7874 22.6148 53.1071 20.5952C52.4269 18.5757 54.3649 17.5624 55.4633 17.7608C56.8167 18.0088 57.5678 19.9929 57.0257 21.8849Z" fill="#FEBD9D"/>
<path d="M56.3491 20.0353C55.7326 18.8661 54.3402 18.618 53.7485 20.2018" stroke="#EF8A66" stroke-width="0.265728" stroke-linecap="round" stroke-linejoin="round"/>
<path d="M56.0051 19.5541C54.4993 18.8773 54.1982 21.4461 55.9343 20.7977" stroke="#EF8A66" stroke-width="0.265728" stroke-linecap="round" stroke-linejoin="round"/>
<path d="M66.0818 13.5691C65.4652 12.3932 64.6731 11.3179 63.7327 10.3804C62.2057 11.2378 61.1817 10.4548 61.1817 10.4548C61.1817 10.4548 59.6937 12.0456 58.3048 11.6594C56.9159 11.2732 57.0187 10.306 56.1435 10.0863C55.2684 9.86666 54.4252 10.7949 54.4252 11.0607C54.4252 11.3264 54.8787 11.4929 55.7113 13.4664C56.5439 15.4399 56.2959 18.207 54.5952 18.5188C54.0531 18.618 51.3427 18.246 49.9893 16.2016C49.9621 16.1679 49.9373 16.1324 49.9149 16.0953C48.5933 13.9518 49.3657 12.4106 49.8157 11.8437C50.2656 11.2768 50.9707 11.5283 51.0699 10.9898C51.6439 7.92507 54.4677 5.28904 57.4934 5.0056C60.5192 4.72215 60.4235 5.82404 60.4235 5.82404C60.4235 5.82404 63.4458 5.59375 65.0862 7.6806C65.1854 7.80461 65.2775 7.92861 65.359 8.05262C65.9074 8.84934 66.2589 9.76485 66.3845 10.7239C66.5102 11.6829 66.4064 12.658 66.0818 13.5691Z" fill="#7F542D"/>
<path d="M66.0818 13.5683C65.4651 12.3923 64.6731 11.3171 63.7327 10.3796C62.2057 11.237 61.1817 10.454 61.1817 10.454C61.1817 10.454 59.6937 12.0448 58.3048 11.6586C56.9159 11.2724 57.0187 10.3052 56.1435 10.0855C55.2684 9.86583 54.4252 10.7941 54.4252 11.0598C54.4252 11.3256 54.8787 11.4921 55.7113 13.4656C56.5439 15.439 56.2959 18.2062 54.5952 18.5179C54.0531 18.6171 51.3427 18.2451 49.9893 16.2008C53.5323 15.5418 53.6492 13.6569 52.891 10.624C52.395 8.62576 56.0798 6.75502 58.1383 8.02698C59.4208 8.82416 62.9426 8.57261 65.359 8.05178C65.9074 8.84851 66.2588 9.76402 66.3845 10.723C66.5102 11.6821 66.4064 12.6572 66.0818 13.5683Z" fill="#704725"/>
<path d="M60.431 5.82621C59.2076 5.82273 57.9958 6.06364 56.8667 6.53482" stroke="#A56F42" stroke-width="0.265728" stroke-linecap="round" stroke-linejoin="round"/>
<path d="M60.8135 7.98242C61.3733 8.08163 63.1377 9.60159 63.7329 10.3846C63.7329 10.3846 64.7215 11.0932 65.1998 10.087" stroke="#A56F42" stroke-width="0.265728" stroke-linecap="round" stroke-linejoin="round"/>
<path d="M57.5781 8.8807C58.0706 8.44845 59.0308 8.56892 59.704 9.30587C60.1343 9.75752 60.6271 10.1453 61.1672 10.4574" stroke="#A56F42" stroke-width="0.265728" stroke-linecap="round" stroke-linejoin="round"/>
<path d="M62.461 12.3398C62.3015 14.1114 62.8578 14.944 63.6196 14.99C64.3813 15.0361 65.3911 15.2912 65.1998 16.4852" stroke="#EF8A66" stroke-width="0.265728" stroke-linecap="round" stroke-linejoin="round"/>
<path d="M61.5825 18.7539C62.6353 18.9358 63.703 19.0177 64.7713 18.9984C64.7713 18.9984 64.417 20.3589 63.1025 20.203C62.7277 20.1551 62.3781 19.9887 62.1046 19.728C61.8312 19.4673 61.6482 19.126 61.5825 18.7539Z" fill="white" stroke="#EF8A66" stroke-width="0.265728" stroke-linecap="round" stroke-linejoin="round"/>
<path d="M58.0923 15.3532C58.0923 15.8437 58.2377 16.3232 58.5103 16.7311C58.7828 17.1389 59.1701 17.4568 59.6233 17.6445C60.0765 17.8322 60.5752 17.8814 61.0563 17.7857C61.5374 17.69 61.9793 17.4537 62.3261 17.1069C62.673 16.76 62.9092 16.3181 63.0049 15.837C63.1006 15.3559 63.0515 14.8573 62.8638 14.4041C62.676 13.9509 62.3582 13.5635 61.9503 13.291C61.5424 13.0185 61.0629 12.873 60.5724 12.873C59.9146 12.873 59.2838 13.1343 58.8187 13.5995C58.3536 14.0646 58.0923 14.6954 58.0923 15.3532Z" stroke="#683F1D" stroke-width="0.354305" stroke-miterlimit="10"/>
<path d="M62.8429 11.3052C62.7969 12.191 65.2805 12.0138 65.3018 11.6312C65.3231 11.2485 62.889 10.462 62.8429 11.3052Z" fill="#7F542D"/>
<path d="M58.6906 13.3806C58.9457 13.8908 61.3833 12.5728 60.8165 11.6516C60.2496 10.7304 58.3399 12.6933 58.6906 13.3806Z" fill="#7F542D"/>
<path d="M57.0261 21.8848C56.3953 22.2562 55.6554 22.3976 54.9321 22.2851" stroke="#EF8A66" stroke-width="0.265728" stroke-linecap="round" stroke-linejoin="round"/>
<path d="M41.9687 49.5013C38.8402 54.047 36.2786 58.6353 33.9721 62.8586C28.2784 73.2787 25.0223 80.8608 18.0036 80.7687C11.6013 80.6801 10.9175 71.2733 18.3827 55.9674L16.4978 54.2135C16.4978 54.2135 21.986 46.2133 27.2651 38.1777C32.034 30.9251 36.2077 25.6672 44.2079 27.8639C48.9308 29.1713 47.5242 41.3913 41.9687 49.5013Z" fill="#FEBD9D"/>
<path d="M44.4946 44.9334C43.7892 46.524 42.9438 48.0488 41.9684 49.4898C39.4883 53.0824 37.3802 56.6999 35.4634 60.1437C34.9496 61.0578 34.4536 61.9613 33.9718 62.847C31.732 62.309 29.5227 61.6514 27.3533 60.8771C24.0264 59.6406 20.6853 58.0427 18.3576 55.97L16.4727 54.2162C16.4727 54.2162 17.075 53.3411 18.067 51.8849C20.0759 48.9264 23.704 43.5622 27.24 38.1804C28.0549 36.9368 28.8556 35.7534 29.6599 34.655C33.5572 29.3405 37.5538 26.0454 44.1864 27.8666C48.1191 28.9649 47.8251 37.4611 44.4946 44.9334Z" fill="#AFFFA8"/>
<path d="M35.4635 60.1699C34.9497 61.084 34.4537 61.9874 33.9719 62.8732C29.0683 61.6615 22.2798 59.4719 18.3825 55.9855L16.4976 54.2317C16.4976 54.2317 17.0999 53.3566 18.0919 51.9004C21.0008 55.0572 24.8981 57.0661 35.4635 60.1699Z" fill="white"/>
<path d="M44.4949 44.9343C41.0085 38.7091 37.9084 35.7223 34.4929 34.7799C32.917 34.3751 31.2703 34.3291 29.6743 34.6453C33.5717 29.3307 37.5682 26.0357 44.2008 27.8568C48.1194 28.9658 47.8253 37.462 44.4949 44.9343Z" fill="#AFFFA8"/>
<path d="M44.5163 44.8906C43.8086 46.5 42.9559 48.0417 41.9688 49.4966C38.8403 54.0423 36.2787 58.6305 33.9722 62.8539" stroke="#F7AD2B" stroke-width="0.265728" stroke-linecap="round" stroke-linejoin="round"/>
<path d="M44.0843 38.6426C44.7929 41.1759 45.916 42.3521 43.606 46.7916" stroke="#F7AD2B" stroke-width="0.265728" stroke-linecap="round" stroke-linejoin="round"/>
<path d="M13.7689 73.8391C16.4864 67.288 26.4388 67.0719 38.4568 71.4546C50.4748 75.8373 63.6869 80.2272 65.6887 80.7693C67.6905 81.3114 67.3149 88.1317 62.2767 87.7526C57.2385 87.3735 38.184 89.0246 27.0341 86.9519C15.8841 84.8792 11.9797 78.1226 13.7689 73.8391Z" fill="#FEBD9D"/>
<path d="M19.374 69.1167C22.5628 68.1743 26.7506 68.3124 31.5373 69.3931" stroke="#EF8A66" stroke-width="0.265728" stroke-linecap="round" stroke-linejoin="round"/>
<path d="M94.3665 80.9677C99.6811 73.3289 102.423 43.1705 102.423 43.1705C102.423 43.1705 107.756 40.6904 108.641 40.0916C109.527 39.4929 111.249 36.4954 111.547 35.599C111.547 35.599 113.042 34.6849 112.996 34.1818C112.95 33.6787 112.401 33.6787 112.401 33.6787C112.401 33.6787 112.755 32.5343 110.824 32.8567C110.733 32.7369 110.609 32.6453 110.468 32.5927C110.327 32.54 110.174 32.5284 110.027 32.5591C109.453 32.6264 102.622 34.6601 102.622 34.6601C102.622 34.6601 105.41 32.7185 105.456 31.9426C105.502 31.1667 104.56 31.4679 103.919 31.854C102.62 32.6192 101.223 33.2045 99.7661 33.5937C99.0823 33.7921 96.9317 35.514 94.9901 39.2378C93.0485 42.9615 81.654 67.4794 80.4104 70.7957C76.343 81.7012 85.5195 93.6412 94.3665 80.9677Z" fill="#FEBD9D"/>
<path d="M84.4993 61.5586C82.4869 66.0087 80.8394 69.6651 80.4106 70.7953" stroke="#EF8A66" stroke-width="0.265728" stroke-linecap="round" stroke-linejoin="round"/>
<path d="M108.641 40.0916C109.531 39.4964 111.249 36.4954 111.547 35.599C111.547 35.599 113.042 34.6849 112.996 34.1818C112.95 33.6787 112.401 33.6787 112.401 33.6787C112.401 33.6787 112.755 32.5343 110.824 32.8567C110.733 32.7369 110.609 32.6453 110.468 32.5927C110.327 32.54 110.174 32.5284 110.027 32.5591C109.453 32.6264 102.622 34.6601 102.622 34.6601C102.622 34.6601 105.41 32.7185 105.456 31.9426C105.502 31.1667 104.56 31.4679 103.919 31.854C102.62 32.6192 101.223 33.2045 99.7661 33.5937" stroke="#EF8A66" stroke-width="0.265728" stroke-linecap="round" stroke-linejoin="round"/>
<path d="M102.622 34.6562L101.559 35.3861C101.559 35.3861 102.431 37.3242 100.287 38.9292" stroke="#EF8A66" stroke-width="0.265728" stroke-linecap="round" stroke-linejoin="round"/>
<path d="M104.478 35.7804L110.824 32.8574" stroke="#EF8A66" stroke-width="0.265728" stroke-linecap="round" stroke-linejoin="round"/>
<path d="M106.898 37.9221C106.952 37.8867 108.822 37.0045 108.822 37.0045C108.822 37.0045 110.746 34.007 111.256 33.8547C111.767 33.7023 112.351 33.9504 111.547 35.5979" stroke="#EF8A66" stroke-width="0.265728" stroke-linecap="round" stroke-linejoin="round"/>
<path d="M105.517 36.7962L111.033 34.0078" stroke="#EF8A66" stroke-width="0.265728" stroke-linecap="round" stroke-linejoin="round"/>
<path d="M112.4 33.6797L111.688 33.8533" stroke="#EF8A66" stroke-width="0.265728" stroke-linecap="round" stroke-linejoin="round"/>
<path d="M103.429 64.5447C100.297 73.9551 94.8297 87.4151 94.8297 87.4151L58.3044 95.7023L33 89.7074V87.8615L61.929 81.7604C64.0123 76.4813 66.6696 66.4296 67.984 66.171C70.1347 65.7458 100.208 61.0619 102.479 61.0017C104.626 60.9415 104.109 62.5004 103.429 64.5447Z" fill="#F9F9F9" stroke="#DDDDDD" stroke-width="0.354305" stroke-linecap="round" stroke-linejoin="round"/>
<path d="M61.9286 81.7598L57.9746 92.1976" stroke="#DDDDDD" stroke-width="0.354305" stroke-linecap="round" stroke-linejoin="round"/>
<path d="M58.3611 93.6719L58.3044 95.7021L33 89.7073V87.8613L58.3611 93.6719Z" fill="#EDEDED" stroke="#DDDDDD" stroke-width="0.354305" stroke-linecap="round" stroke-linejoin="round"/>
</svg>
