<svg width="113" height="99" viewBox="0 0 113 99" fill="none" xmlns="http://www.w3.org/2000/svg">
<path d="M94.3506 20.3384V75.5294H15.6514V20.3384C15.6508 19.6072 15.7944 18.883 16.0739 18.2073C16.3535 17.5317 16.7635 16.9177 17.2806 16.4007C17.7976 15.8836 18.4115 15.4736 19.0872 15.194C19.7629 14.9145 20.4871 14.7709 21.2183 14.7715H88.7837C90.2601 14.7715 91.6761 15.358 92.7201 16.402C93.7641 17.446 94.3506 18.862 94.3506 20.3384Z" stroke="#EDEDED" stroke-width="0.73985" stroke-linecap="round" stroke-linejoin="round"/>
<path d="M94.3506 20.3384V20.5865H15.6514V20.3384C15.6508 19.6072 15.7944 18.883 16.0739 18.2073C16.3535 17.5317 16.7635 16.9177 17.2806 16.4007C17.7976 15.8836 18.4115 15.4736 19.0872 15.194C19.7629 14.9145 20.4871 14.7709 21.2183 14.7715H88.7837C90.2601 14.7715 91.6761 15.358 92.7201 16.402C93.7641 17.446 94.3506 18.862 94.3506 20.3384Z" stroke="#DDDDDD" stroke-width="0.73985" stroke-linecap="round" stroke-linejoin="round"/>
<path d="M83.6995 17.6811C83.6995 17.8818 83.64 18.0781 83.5284 18.245C83.4169 18.4119 83.2584 18.542 83.0729 18.6188C82.8874 18.6957 82.6833 18.7158 82.4865 18.6766C82.2896 18.6374 82.1087 18.5407 81.9667 18.3988C81.8248 18.2568 81.7281 18.076 81.6889 17.8791C81.6498 17.6822 81.6699 17.4781 81.7467 17.2926C81.8235 17.1071 81.9536 16.9486 82.1206 16.8371C82.2875 16.7255 82.4837 16.666 82.6845 16.666C82.9537 16.666 83.2119 16.773 83.4022 16.9633C83.5926 17.1537 83.6995 17.4118 83.6995 17.6811Z" fill="#EDEDED"/>
<path d="M87.0018 17.6811C87.0018 17.8818 86.9422 18.0781 86.8307 18.245C86.7192 18.4119 86.5606 18.542 86.3752 18.6188C86.1897 18.6957 85.9856 18.7158 85.7887 18.6766C85.5918 18.6374 85.4109 18.5407 85.269 18.3988C85.127 18.2568 85.0303 18.076 84.9912 17.8791C84.952 17.6822 84.9721 17.4781 85.0489 17.2926C85.1258 17.1071 85.2559 16.9486 85.4228 16.8371C85.5897 16.7255 85.786 16.666 85.9867 16.666C86.2559 16.666 86.5141 16.773 86.7045 16.9633C86.8948 17.1537 87.0018 17.4118 87.0018 17.6811Z" fill="#DDDDDD"/>
<path d="M90.304 17.6811C90.304 17.8818 90.2445 18.0781 90.1329 18.245C90.0214 18.4119 89.8629 18.542 89.6774 18.6188C89.4919 18.6957 89.2878 18.7158 89.0909 18.6766C88.894 18.6374 88.7132 18.5407 88.5712 18.3988C88.4293 18.2568 88.3326 18.076 88.2934 17.8791C88.2543 17.6822 88.2744 17.4781 88.3512 17.2926C88.428 17.1071 88.5581 16.9486 88.725 16.8371C88.892 16.7255 89.0882 16.666 89.289 16.666C89.5582 16.666 89.8163 16.773 90.0067 16.9633C90.1971 17.1537 90.304 17.4118 90.304 17.6811Z" fill="#EDEDED"/>
<path d="M17.3297 44.3333C17.1266 42.0235 27.3176 37.6521 28.9913 41.0266L25.68 44.3333C25.68 44.3333 18.7913 47.0536 17.3297 44.3333Z" fill="#93A5E5"/>
<path d="M22.3234 27.8302C20.8347 23.2287 20.7309 22.6648 21.7189 22.3084C22.7069 21.952 25.2242 27.1941 25.5084 27.8302C26.5037 29.8437 27.2709 31.9621 27.7956 34.146C28.2467 36.1851 28.8106 40.8858 28.9054 42.0181C29.2933 46.7956 21.4166 48.2437 21.0738 44.5309C20.7309 40.8181 20.6948 39.6136 20.6948 39.6136C20.6948 39.6136 16.6347 40.0016 16.0618 36.961C15.704 34.5833 15.5666 32.1776 15.6512 29.7745C15.6512 29.7745 9.47077 28.7505 9.69183 27.1219C9.91288 25.4933 22.0031 28.7866 22.0031 28.7866L22.3234 27.8302Z" fill="#B25E47"/>
<path d="M15.6512 29.7745C15.6512 29.7745 9.47077 28.7505 9.69183 27.1219C9.91288 25.4933 22.0031 28.7866 22.0031 28.7866L22.3234 27.8302C20.8347 23.2287 20.7309 22.6648 21.7189 22.3084C22.7069 21.952 25.2242 27.1941 25.5084 27.8302" stroke="#934735" stroke-width="0.275188" stroke-linecap="round" stroke-linejoin="round"/>
<path d="M21.9942 28.7871C21.471 30.8202 21.5604 32.9626 22.2514 34.945" stroke="#934735" stroke-width="0.275188" stroke-linecap="round" stroke-linejoin="round"/>
<path d="M19.0979 25.2621C20.0678 25.7673 20.8302 25.8756 21.1189 24.4952C21.4076 23.1147 20.0678 23.0696 19.6167 23.1418C18.9264 23.2546 18.6828 25.041 19.0979 25.2621Z" fill="#683F1D"/>
<path d="M19.2919 24.9023C19.0754 25.6422 18.9175 26.567 18.922 26.5399C19.0844 26.6211 20.0137 26.9414 20.1581 26.6211C20.3033 26.0567 20.4059 25.4822 20.4648 24.9023H19.2919Z" fill="#683F1D"/>
<path d="M18.4168 26.9999C17.907 29.2555 15.2905 41.6886 15.2048 42.0946C15.1191 42.5007 15.2318 44.3773 15.3942 44.4495C15.5566 44.5217 16.4589 43.1773 16.7973 42.4961C17.1356 41.8149 20.0679 28.1864 20.2529 27.5503C20.704 26.0029 18.7506 25.5202 18.4168 26.9999Z" fill="#683F1D"/>
<path d="M16.1113 34.052C14.8436 34.3452 14.4827 35.5542 15.421 36.3572C16.427 37.2189 18.9037 36.8084 19.0301 35.7302C19.1564 34.652 17.1669 33.8084 16.1113 34.052Z" fill="#B25E47" stroke="#934735" stroke-width="0.275188" stroke-linecap="round" stroke-linejoin="round"/>
<path d="M16.0076 32.0656C14.7083 31.8761 14.388 33.1619 15.3174 34.1769C16.2467 35.1919 19.3098 35.3995 19.4813 34.213C19.6527 33.0265 16.7971 32.1829 16.0076 32.0656Z" fill="#B25E47" stroke="#934735" stroke-width="0.275188" stroke-linecap="round" stroke-linejoin="round"/>
<path d="M14.8479 29.8468C16.481 29.4588 20.0178 31.8588 19.878 32.6032C19.7065 33.537 18.0419 33.6814 15.6735 32.6754C13.4539 31.737 14.0449 30.0363 14.8479 29.8468Z" fill="#B25E47" stroke="#934735" stroke-width="0.275188" stroke-linecap="round" stroke-linejoin="round"/>
<mask id="mask0_219_6279" style="mask-type:luminance" maskUnits="userSpaceOnUse" x="15" y="14" width="80" height="62">
<path d="M94.3511 20.3384V75.5294H15.6519V20.3384C15.6513 19.6072 15.7949 18.883 16.0744 18.2073C16.354 17.5317 16.764 16.9177 17.281 16.4007C17.7981 15.8836 18.412 15.4736 19.0877 15.194C19.7634 14.9145 20.4876 14.7709 21.2188 14.7715H88.7842C90.2606 14.7715 91.6766 15.358 92.7206 16.402C93.7646 17.446 94.3511 18.862 94.3511 20.3384Z" fill="white"/>
</mask>
<g mask="url(#mask0_219_6279)">
<path d="M93.5077 47.8632C88.437 47.6151 84.237 52.194 82.9378 57.4497C82.8972 57.594 82.8656 57.7564 82.834 57.9279C82.6943 58.7372 82.5979 59.5534 82.5453 60.373C82.0039 67.3113 82.5137 81.1249 82.5453 81.4316C82.5678 81.5444 78.9363 81.4316 73.9513 81.197C72.1107 81.1113 70.0761 81.0166 67.9648 80.9083C57.2099 80.3805 44.4385 79.6677 44.4385 79.6677L43.6671 71.0467C43.6671 71.0467 42.0566 73.7534 36.5573 79.0813C31.0581 84.4091 22.2566 81.4316 23.2039 74.7504C23.7949 70.5549 26.2761 67.4828 29.2761 62.3489C30.1784 60.7564 31.1799 58.97 32.1678 56.8903C33.4806 54.1249 34.7618 51.4767 35.9844 49.0993C36.5212 48.0482 37.049 47.0512 37.5588 46.1083C39.4896 42.5489 41.222 39.8512 42.616 38.5925C46.8069 34.8031 55.7799 36.9865 58.1708 37.7534C61.7392 38.9133 65.4416 39.6107 69.1874 39.8286C74.4926 40.1985 82.5453 42.4858 86.8129 43.97C89.2796 44.7962 91.5505 46.1197 93.4851 47.8587L93.5077 47.8632Z" fill="#A7AAF0"/>
<path d="M97.0759 55.7399C92.4338 51.0798 85.3827 49.0452 78.309 55.3519C70.0804 62.6828 63.7646 63.9549 54.5075 53.2497C47.8127 45.5083 45.4849 43.5324 37.5767 46.1083C39.5075 42.5489 41.2398 39.8512 42.6338 38.5925C46.8248 34.8031 55.7977 36.9865 58.1887 37.7534C61.7571 38.9133 65.4594 39.6107 69.2052 39.8286C74.5105 40.1985 82.5631 42.4858 86.8308 43.97C89.2974 44.7962 91.5683 46.1197 93.503 47.8587C95.33 49.3204 96.4128 52.2482 97.0759 55.7399Z" fill="#C3CBF8"/>
<path d="M35.8581 69.0601C32.9122 72.2676 30.2415 65.3067 29.2852 62.3473C30.1874 60.7548 31.1889 58.9683 32.1769 56.8886C33.4897 54.1232 34.7709 51.4751 35.9934 49.0977C38.1724 52.4315 35.2265 55.4856 35.019 56.9969C34.5047 61.03 40.1077 64.454 35.8581 69.0601Z" fill="#93A5E5"/>
<path d="M17.3301 44.3341C21.8955 45.295 28.9917 41.0273 28.9917 41.0273C28.9917 41.0273 32.903 58.4815 33.9226 62.3522C34.9421 66.2228 41.4744 81.3852 28.7481 82.0078C20.5827 82.4048 20.0323 66.8815 19.5541 61.7702C19.0759 56.6589 17.3301 44.3341 17.3301 44.3341Z" fill="#A7AAF0"/>
<path d="M20.3569 46.3287C23.8712 46.5768 27.787 44.2129 27.787 44.2129" stroke="#83ADDF" stroke-width="0.275188" stroke-linecap="round" stroke-linejoin="round"/>
<path d="M28.9917 41.0273C28.9917 41.0273 32.903 58.4815 33.9225 62.3522C34.4819 64.4634 36.6789 69.9356 36.494 74.5732" stroke="#83ADDF" stroke-width="0.275188" stroke-linecap="round" stroke-linejoin="round"/>
<path d="M54.5078 40.604C56.7635 44.831 62.8266 48.8912 70.1168 43.2837C70.1168 43.2837 70.9018 40.9558 70.8206 40.9558C70.7394 40.9558 55.5409 39.1152 55.5409 39.1152L54.5078 40.604Z" fill="white"/>
<path d="M60.5075 35.3612C58.6308 34.9371 55.906 35.4108 54.0293 38.2935C52.1526 41.1762 51.9135 43.5582 52.0218 43.5311C52.1301 43.504 54.9586 41.7266 56.2534 41.8394C57.65 42.0767 59.0302 42.4022 60.3857 42.8138L60.5075 35.3612Z" fill="#7DE375"/>
<path d="M68.9708 36.2051C68.9708 36.2051 73.1211 36.2321 73.6805 39.1419C74.2399 42.0517 72.7016 45.5389 70.8204 47.1539C68.9392 48.769 69.9768 44.8261 63.2324 42.9765L68.9708 36.2051Z" fill="#7DE375"/>
<path d="M70.9962 39.6063C70.9962 39.6063 68.6909 43.1116 63.5526 43.1928C58.4142 43.274 57.4263 40.2063 57.4263 40.2063C57.9812 38.8168 58.6533 35.8529 59.0819 33.7732C59.3526 32.4604 59.533 31.5176 59.533 31.5176C59.533 31.5176 60.3812 23.289 69.2052 23.7852L69.3541 25.1386L70.9962 39.6063Z" fill="#B25E47"/>
<path d="M59.082 33.8371C59.3527 32.5243 59.5332 31.5815 59.5332 31.5815L64.5542 29.2266C64.5542 29.2266 65.3482 34.9604 59.082 33.8371Z" fill="#914839"/>
<path d="M43.6804 71.0457C42.9722 62.9254 42.9722 56.375 42.9722 56.375" stroke="#83ADDF" stroke-width="0.275188" stroke-linecap="round" stroke-linejoin="round"/>
</g>
<path d="M77.2032 90.7543C76.773 90.5968 76.3627 90.3894 75.9807 90.1363C73.4093 88.4401 73.1882 85.1333 73.9687 81.1949C74.5732 78.1769 75.7732 74.7889 76.9326 71.4686C78.2589 67.6837 79.5581 63.9889 79.9235 61.034C79.9777 60.619 80.0093 60.222 80.0228 59.8431C80.0896 57.5735 80.5049 55.3277 81.2544 53.1844C83.3747 47.216 88.0213 43.4581 93.5025 47.8566C95.307 49.3137 96.4078 52.2416 97.0709 55.7333C97.31 56.9784 97.495 58.2957 97.6484 59.6401C98.1536 64.21 98.2213 69.1137 98.4469 72.7814C99.5521 90.5107 95.307 97.5844 77.2032 90.7543Z" fill="#A7AAF0"/>
<path d="M97.0755 55.7378C93.083 51.7273 87.295 49.6611 81.2544 53.1844C83.3747 47.216 88.0213 43.4581 93.5025 47.8566C95.3296 49.3183 96.4123 52.2461 97.0755 55.7378Z" fill="#C3CBF8"/>
<path d="M82.5625 81.4297C82.5851 81.5425 78.9535 81.4297 73.9685 81.1951C72.1279 81.1094 70.0933 81.0147 67.9821 80.9064C64.373 79.2779 62.1174 76.923 64.0437 73.5485C69.2858 64.3771 78.9309 77.0854 79.4182 67.9906C79.7565 61.7606 81.2678 60.4117 82.5445 60.3711C82.0031 67.3094 82.5129 81.1139 82.5625 81.4297Z" fill="#93A5E5"/>
<path d="M83.7941 54.7402C83.0772 56.5374 82.6553 58.4386 82.5445 60.3703C82.0618 67.3132 82.5129 81.1222 82.5445 81.429" stroke="#83ADDF" stroke-width="0.275188" stroke-linecap="round" stroke-linejoin="round"/>
<path d="M77.203 90.7544C76.7728 90.5969 76.3624 90.3895 75.9805 90.1364C80.1263 91.0387 86.3248 91.8281 89.0632 89.4958C93.3714 85.8281 90.6331 81.1274 93.0151 78.5379C95.397 75.9484 98.8301 75.1138 97.6527 59.6582C98.1579 64.2281 98.2256 69.1319 98.4511 72.7996C99.5519 90.5108 95.3068 97.5845 77.203 90.7544Z" fill="#93A5E5"/>
<path d="M66.8268 59.6492C67.4854 56.6853 63.7681 56.8207 63.7681 56.8207C64.0975 54.0868 60.4794 53.3334 59.6448 55.9951C56.708 55.0928 55.7787 55.9951 55.3501 57.5425L66.8268 59.6492Z" fill="#DDDDDD"/>
<path d="M61.8148 57.1051C62.3006 57.1051 62.6945 56.7112 62.6945 56.2254C62.6945 55.7396 62.3006 55.3457 61.8148 55.3457C61.3289 55.3457 60.9351 55.7396 60.9351 56.2254C60.9351 56.7112 61.3289 57.1051 61.8148 57.1051Z" fill="#F9F9F9" stroke="#DDDDDD" stroke-width="0.369925" stroke-linecap="round" stroke-linejoin="round"/>
<path d="M49.765 55.3516L44.2793 85.0989L66.0643 89.4974L71.9154 59.7095L49.765 55.3516Z" fill="#F9F9F9" stroke="#DDDDDD" stroke-width="0.369925" stroke-linecap="round" stroke-linejoin="round"/>
<path d="M56.4778 75.0605C55.3635 77.9568 55.3004 80.9974 55.8102 82.0169C55.8102 82.0169 57.8899 82.4004 59.965 76.7658L56.4778 75.0605Z" fill="#93A5E5"/>
<path d="M59.3155 69.4771C54.3305 67.7673 51.9486 66.7297 51.0508 66.4861C50.1531 66.2425 46.9095 65.9718 46.3907 66.4861C46.1618 66.7324 46.0053 67.0371 45.9384 67.3666C45.8715 67.6962 45.8969 68.0378 46.0117 68.3538C46.1831 69.044 45.6328 69.5448 45.5606 70.244C45.4884 70.9433 46.323 71.1463 46.1471 71.841C45.9711 72.5358 45.4253 73.2891 45.8042 74.0515C46.1832 74.8139 45.4253 75.6034 46.1471 76.5373C46.8689 77.4711 54.2177 77.9177 55.8283 77.5748L58.9862 78.9869C58.9862 78.9869 64.5576 73.244 59.3155 69.4771Z" fill="#B25E47"/>
<path d="M51.0327 66.4711C50.1305 66.232 46.8914 65.9568 46.3726 66.4711C46.1437 66.7174 45.9872 67.0221 45.9203 67.3516C45.8535 67.6811 45.8788 68.0227 45.9937 68.3387C46.1651 69.029 45.6147 69.5297 45.5425 70.229C45.4703 70.9282 46.3049 71.1312 46.129 71.826C45.9531 72.5207 45.4072 73.2741 45.7861 74.0365C46.1651 74.7989 45.4072 75.5884 46.129 76.5222" stroke="#934735" stroke-width="0.275188" stroke-linecap="round" stroke-linejoin="round"/>
<path d="M89.09 89.4979C87.7953 91.8393 84.5472 92.9716 78.3893 91.1085C76.7246 90.6077 75.1186 90.0844 73.5848 89.5566C71.0404 88.6859 68.6946 87.7927 66.5923 86.9401C62.9259 85.4819 59.3363 83.8376 55.8374 82.0137C56.7598 80.9884 57.504 79.8158 58.0389 78.5446C58.3751 77.7901 58.6512 77.0102 58.8645 76.2122C59.4396 74.0051 59.5926 71.7092 59.3156 69.4453C60.1547 69.6979 61.057 69.9536 62.0224 70.2122C64.3186 70.8393 66.89 71.4934 69.4976 72.1792C77.3111 74.2363 85.4359 76.5957 87.4163 79.528C87.5968 79.7942 87.7682 80.0694 87.9306 80.3491C87.9938 80.4573 88.0615 80.5701 88.1201 80.6829C88.1384 80.712 88.1549 80.7421 88.1697 80.7731C88.2419 80.904 88.3141 81.0438 88.3818 81.1792C88.5051 81.4167 88.6179 81.6558 88.7201 81.8964C89.8524 84.5807 90.1818 87.4859 89.09 89.4979Z" fill="#A7AAF0"/>
<path d="M59.3154 69.4766C68.2613 72.1833 84.4838 75.2465 87.3981 79.5593C87.9017 80.3087 88.338 81.1013 88.7019 81.9277" stroke="#83ADDF" stroke-width="0.275188" stroke-linecap="round" stroke-linejoin="round"/>
<path d="M61.9859 70.2305C62.5408 75.838 59.6445 81.2199 59.6445 81.2199" stroke="#83ADDF" stroke-width="0.275188" stroke-linecap="round" stroke-linejoin="round"/>
<path d="M89.0629 89.498C87.7681 91.8394 84.52 92.9717 78.3621 91.1086C76.6975 90.6078 75.0915 90.0845 73.5576 89.5567C77.1621 90.5086 85.7065 92.3582 89.0629 89.498Z" fill="#93A5E5"/>
<path d="M69.2041 23.8341L69.3575 25.1875C66.2312 30.0551 61.9635 31.5799 59.5319 31.5799C55.5169 30.5784 54.1455 26.9649 53.9109 23.0897C53.8506 22.1615 53.8476 21.2304 53.9019 20.3017C54.0908 17.6719 54.5442 15.0677 55.2553 12.5288C55.2553 12.5288 67.3139 6.91678 68.1485 18.1814C68.1485 18.1814 70.7335 17.7303 71.2162 20.5859C71.5906 22.9589 69.2041 23.8341 69.2041 23.8341Z" fill="#B25E47"/>
<path d="M55.8372 20.315C56.1038 20.315 56.3199 20.0989 56.3199 19.8323C56.3199 19.5657 56.1038 19.3496 55.8372 19.3496C55.5706 19.3496 55.3545 19.5657 55.3545 19.8323C55.3545 20.0989 55.5706 20.315 55.8372 20.315Z" fill="#683F1D"/>
<path d="M59.1936 19.7017C59.4602 19.7017 59.6764 19.4856 59.6764 19.219C59.6764 18.9524 59.4602 18.7363 59.1936 18.7363C58.927 18.7363 58.7109 18.9524 58.7109 19.219C58.7109 19.4856 58.927 19.7017 59.1936 19.7017Z" fill="#683F1D"/>
<path d="M58.4587 16.63C58.5129 17.2841 60.7595 17.5322 60.8858 17.1668C61.0798 16.6029 58.3414 15.0871 58.4587 16.63Z" fill="#604730"/>
<path d="M54.1772 17.5952C54.1772 17.9516 56.6224 18.1185 56.5321 16.8554C56.4735 15.9576 54.2314 16.6208 54.1772 17.5952Z" fill="#604730"/>
<path d="M67.4946 21.7421C68.5006 20.2533 70.0931 20.4157 70.26 20.7" stroke="#934735" stroke-width="0.275188" stroke-linecap="round" stroke-linejoin="round"/>
<path d="M67.9229 21.2314C69.4071 20.3607 70.2146 22.3141 68.3379 22.3141" stroke="#934735" stroke-width="0.275188" stroke-linecap="round" stroke-linejoin="round"/>
<path d="M57.1364 18.4336C57.5424 19.2231 57.5109 19.6968 57.2402 20.2065C56.9695 20.7163 56.153 21.8667 56.5815 22.8862" stroke="#934735" stroke-width="0.275188" stroke-linecap="round" stroke-linejoin="round"/>
<path d="M59.7669 23.0625C59.4106 24.2851 57.9624 25.052 57.2632 24.8941C57.2632 24.8941 57.9624 26.7933 59.194 26.3061C60.6106 25.7512 59.7669 23.0625 59.7669 23.0625Z" fill="white" stroke="#934735" stroke-width="0.275188" stroke-linecap="round" stroke-linejoin="round"/>
<path d="M67.2734 23.4824C67.5522 23.6741 67.8684 23.8045 68.2012 23.8652C68.534 23.9258 68.8758 23.9153 69.2043 23.8343" stroke="#934735" stroke-width="0.275188" stroke-linecap="round" stroke-linejoin="round"/>
<path d="M71.6539 17.0176C73.0434 18.9214 70.9592 19.7244 70.9592 19.7244C70.7463 19.4194 70.4671 19.1664 70.1426 18.9845C69.9376 18.864 69.7083 18.7907 69.4713 18.77C69.2344 18.7492 68.9958 18.7814 68.7729 18.8644C68.55 18.9473 68.3483 19.0789 68.1826 19.2495C68.0169 19.4201 67.8913 19.6255 67.8148 19.8507C64.9772 19.9093 66.1998 17.6943 66.1998 17.6943C63.6554 18.7093 63.5742 16.1063 64.6705 14.9289C62.6855 17.1575 60.1592 14.9289 60.5742 12.9214C59.8705 15.1138 57.3667 15.177 57.7005 13.3725C57.4854 13.7475 57.2248 14.0945 56.9246 14.4056C55.2013 16.1334 53.6629 14.2838 54.3081 12.9169C51.7276 15.3755 50.6088 12.6236 53.072 11.1439C51.1231 9.54693 53.4238 7.27324 54.9983 8.43715C54.6419 5.60858 57.5562 5.48226 58.8374 7.13339C59.3426 4.02512 63.2314 5.72136 63.3893 7.19655C66.2539 5.19354 68.4735 6.67324 68.1848 9.92587C69.3442 8.37851 71.8254 9.28527 70.8915 13.2552C73.2509 13.0838 73.6614 16.0477 71.6539 17.0176Z" fill="#604730"/>
<path d="M70.1428 18.984C69.9378 18.8635 69.7084 18.7902 69.4715 18.7694C69.2346 18.7486 68.996 18.7809 68.7731 18.8638C68.5502 18.9468 68.3485 19.0783 68.1828 19.2489C68.0171 19.4195 67.8914 19.6249 67.815 19.8501C64.9774 19.9088 66.2 17.6937 66.2 17.6937C63.6556 18.7088 63.5744 16.1058 64.6707 14.9283C62.6857 17.1569 60.1594 14.9283 60.5744 12.9208C59.8707 15.1133 57.3669 15.1765 57.7007 13.3719C57.4856 13.7469 57.225 14.0939 56.9248 14.405C56.2301 12.2983 57.7864 9.51931 60.1639 10.796C60.4752 9.10427 64.3639 8.00803 64.3413 12.2937C65.7804 10.2817 69.0376 10.9719 67.4992 14.802C68.7082 13.8456 71.4962 15.4156 70.1428 18.984Z" fill="#473526"/>
<path d="M64.9233 19.7278C65.2662 20.4135 64.621 21.433 63.4797 22.006C62.3383 22.5789 61.1338 22.4571 60.7729 21.7939C60.412 21.1308 61.0752 20.0887 62.2165 19.5158C63.3579 18.9428 64.5759 19.0421 64.9233 19.7278Z" fill="#A0503D"/>
<path d="M55.4087 22.3418C55.2328 22.8291 54.6373 23.0907 53.9019 23.0772C53.8452 22.1532 53.8452 21.2267 53.9019 20.3027C54.9937 20.7809 55.6613 21.6561 55.4087 22.3418Z" fill="#A0503D"/>
</svg>
