<svg width="120" height="96" viewBox="0 0 120 96" fill="none" xmlns="http://www.w3.org/2000/svg">
<path d="M54.3518 27.0403C54.3521 27.1395 54.3233 27.2365 54.269 27.3191C54.2147 27.4017 54.1374 27.4662 54.0468 27.5044C53.9562 27.5426 53.8564 27.5528 53.7601 27.5336C53.6638 27.5145 53.5753 27.4669 53.5057 27.3969C53.4362 27.3269 53.3888 27.2377 53.3695 27.1404C53.3502 27.0432 53.36 26.9424 53.3974 26.8507C53.4349 26.7591 53.4985 26.6807 53.5801 26.6256C53.6617 26.5704 53.7577 26.541 53.8558 26.541C53.987 26.541 54.1129 26.5936 54.2059 26.6871C54.2989 26.7807 54.3513 26.9077 54.3518 27.0403Z" fill="#DDDDDD"/>
<path d="M56.6494 27.0391H66.2772" stroke="#EDEDED" stroke-width="0.346821" stroke-linecap="round" stroke-linejoin="round"/>
<path d="M54.3518 29.3584C54.3518 29.4575 54.3227 29.5544 54.2682 29.6368C54.2137 29.7192 54.1362 29.7834 54.0456 29.8213C53.955 29.8593 53.8553 29.8692 53.7591 29.8498C53.6629 29.8305 53.5745 29.7828 53.5051 29.7127C53.4358 29.6427 53.3885 29.5534 53.3694 29.4562C53.3503 29.359 53.3601 29.2583 53.3976 29.1667C53.4352 29.0752 53.4987 28.9969 53.5803 28.9419C53.6618 28.8868 53.7577 28.8574 53.8558 28.8574C53.921 28.8572 53.9856 28.87 54.0459 28.8951C54.1062 28.9202 54.1609 28.9571 54.207 29.0037C54.2531 29.0502 54.2896 29.1055 54.3145 29.1664C54.3393 29.2273 54.352 29.2926 54.3518 29.3584Z" fill="#DDDDDD"/>
<path d="M56.6494 29.3574H60.3604" stroke="#EDEDED" stroke-width="0.346821" stroke-linecap="round" stroke-linejoin="round"/>
<path d="M25.8918 27.0403C25.8921 27.1395 25.8634 27.2365 25.8091 27.3191C25.7548 27.4017 25.6774 27.4662 25.5869 27.5044C25.4963 27.5426 25.3965 27.5528 25.3002 27.5336C25.2038 27.5145 25.1153 27.4669 25.0458 27.3969C24.9762 27.3269 24.9288 27.2377 24.9096 27.1404C24.8903 27.0432 24.9 26.9424 24.9375 26.8507C24.975 26.7591 25.0385 26.6807 25.1201 26.6256C25.2017 26.5704 25.2977 26.541 25.3959 26.541C25.5271 26.541 25.653 26.5936 25.7459 26.6871C25.8389 26.7807 25.8913 26.9077 25.8918 27.0403Z" fill="#DDDDDD"/>
<path d="M28.1909 27.0391H41.0181" stroke="#EDEDED" stroke-width="0.346821" stroke-linecap="round" stroke-linejoin="round"/>
<path d="M25.3959 29.8595C25.6698 29.8595 25.8918 29.6352 25.8918 29.3584C25.8918 29.0817 25.6698 28.8574 25.3959 28.8574C25.1219 28.8574 24.8999 29.0817 24.8999 29.3584C24.8999 29.6352 25.1219 29.8595 25.3959 29.8595Z" fill="#DDDDDD"/>
<path d="M28.1909 29.3574H34.4007" stroke="#EDEDED" stroke-width="0.346821" stroke-linecap="round" stroke-linejoin="round"/>
<path d="M25.8918 31.718C25.8921 31.8172 25.8634 31.9142 25.8091 31.9968C25.7548 32.0795 25.6774 32.144 25.5869 32.1821C25.4963 32.2203 25.3965 32.2305 25.3002 32.2114C25.2038 32.1922 25.1153 32.1447 25.0458 32.0747C24.9762 32.0047 24.9288 31.9154 24.9096 31.8182C24.8903 31.7209 24.9 31.6201 24.9375 31.5284C24.975 31.4368 25.0385 31.3584 25.1201 31.3033C25.2017 31.2482 25.2977 31.2188 25.3959 31.2188C25.5271 31.2187 25.653 31.2713 25.7459 31.3649C25.8389 31.4585 25.8913 31.5854 25.8918 31.718Z" fill="#DDDDDD"/>
<path d="M28.1909 31.7168H36.2753" stroke="#EDEDED" stroke-width="0.346821" stroke-linecap="round" stroke-linejoin="round"/>
<path d="M73.7219 21.5801H52.4722V24.2061H73.7219V21.5801Z" stroke="#DDDDDD" stroke-width="0.17341" stroke-linecap="round" stroke-linejoin="round"/>
<path d="M45.8064 21.5801H24.5566V24.2061H45.8064V21.5801Z" stroke="#DDDDDD" stroke-width="0.17341" stroke-linecap="round" stroke-linejoin="round"/>
<path d="M101.821 16.5566H15.6069V72.0895H101.821V16.5566Z" stroke="#EDEDED" stroke-width="0.346821" stroke-linecap="round" stroke-linejoin="round"/>
<path d="M103.255 72.1602H14.1709V74.5882H103.255V72.1602Z" stroke="#DDDDDD" stroke-width="0.346821" stroke-linecap="round" stroke-linejoin="round"/>
<path d="M103.255 14.1289H14.1709V16.5569H103.255V14.1289Z" stroke="#DDDDDD" stroke-width="0.346821" stroke-linecap="round" stroke-linejoin="round"/>
<path d="M89.3739 24.5563C85.3456 22.8921 83.3479 27.5572 84.8652 30.488C85.2224 31.1747 85.1704 31.7336 84.8323 32.5674C84.4941 33.4013 84.4854 33.9969 85.3993 34.3718C86.3132 34.7467 86.7172 34.3193 87.0554 33.4854C87.3935 32.6515 87.749 32.2171 88.4739 31.9788C91.5918 30.9628 93.4039 26.2206 89.3739 24.5563Z" fill="#F9F9F9" stroke="#DDDDDD" stroke-width="0.17341" stroke-linecap="round" stroke-linejoin="round"/>
<path d="M85.852 33.4722C85.6179 32.479 85.6959 31.7887 86.3999 31.6206C87.104 31.4524 87.6693 31.0495 87.3606 30.5292C87.052 30.0089 85.7722 29.888 86.1225 30.5187C86.4728 31.1493 88.3161 30.9233 87.8843 30.3067C87.4525 29.6901 86.4225 29.1785 86.8439 29.0804C87.2653 28.9823 88.5537 29.5709 88.1375 29.112C87.3017 28.1922 88.278 27.9978 88.5468 27.0098" stroke="#DDDDDD" stroke-width="0.17341" stroke-linecap="round" stroke-linejoin="round"/>
<path d="M87.5721 33.1826C87.4297 33.4258 87.3068 33.68 87.2045 33.9429C87.1273 34.1422 87.0345 34.3349 86.927 34.5193C86.542 35.1727 86.027 35.4337 85.1166 35.0588C84.2062 34.6839 84.0241 34.1321 84.2027 33.3946C84.253 33.1861 84.3203 32.9822 84.4039 32.785C84.5117 32.5251 84.6004 32.2575 84.6692 31.9844C85.5557 32.5607 86.5398 32.9669 87.5721 33.1826Z" fill="#F9F9F9" stroke="#EDEDED" stroke-width="0.17341" stroke-linecap="round" stroke-linejoin="round"/>
<path d="M87.572 33.1824C87.4441 33.3999 87.3334 33.6271 87.2408 33.8621C87.2269 33.8884 87.2165 33.9164 87.2044 33.9427C87.1272 34.142 87.0344 34.3347 86.9269 34.5191C86.5541 34.6032 86.0755 34.5331 85.4373 34.2686C84.7992 34.004 84.409 33.7167 84.2026 33.3926C84.2529 33.1842 84.3202 32.9803 84.4038 32.783L84.435 32.7007C84.5297 32.4671 84.608 32.2271 84.6691 31.9824C85.5555 32.5593 86.5396 32.9662 87.572 33.1824Z" fill="#F9F9F9" stroke="#EDEDED" stroke-width="0.17341" stroke-linecap="round" stroke-linejoin="round"/>
<path d="M87.5721 33.1826C87.4442 33.4001 87.3334 33.6273 87.2408 33.8623C86.2375 33.6716 85.283 33.2771 84.4351 32.7026C84.5298 32.4691 84.608 32.2291 84.6692 31.9844C85.5556 32.5607 86.5397 32.9669 87.5721 33.1826Z" fill="#F9F9F9" stroke="#EDEDED" stroke-width="0.17341" stroke-linecap="round" stroke-linejoin="round"/>
<path d="M90.0586 23.4633L90.8199 21.5801" stroke="#DDDDDD" stroke-width="0.346821" stroke-linecap="round" stroke-linejoin="round"/>
<path d="M93.0171 26.3542L94.85 26.0879" stroke="#DDDDDD" stroke-width="0.346821" stroke-linecap="round" stroke-linejoin="round"/>
<path d="M84.8599 23.7883L83.2212 22.0137" stroke="#DDDDDD" stroke-width="0.346821" stroke-linecap="round" stroke-linejoin="round"/>
<path d="M87.48 23.0438V21.793" stroke="#EDEDED" stroke-width="0.17341" stroke-linecap="round" stroke-linejoin="round"/>
<path d="M83.216 26.7715L81.8408 26.9712" stroke="#EDEDED" stroke-width="0.17341" stroke-linecap="round" stroke-linejoin="round"/>
<path d="M92.3096 30.2344L92.8159 31.112" stroke="#EDEDED" stroke-width="0.17341" stroke-linecap="round" stroke-linejoin="round"/>
<path d="M91.9526 24.8927L92.9428 24.418" stroke="#EDEDED" stroke-width="0.17341" stroke-linecap="round" stroke-linejoin="round"/>
<path d="M22.647 33.2344H18.5858C18.2357 34.7803 18.3357 36.3956 18.8736 37.8855L23.1309 37.8171C23.1309 37.8171 21.9829 35.298 22.647 33.2344Z" fill="#DDDDDD" stroke="#DDDDDD" stroke-width="0.17341" stroke-miterlimit="10"/>
<path d="M21.7316 34.3945H19.6646" stroke="#F9F9F9" stroke-width="0.17341" stroke-linecap="round" stroke-linejoin="round"/>
<path d="M21.6 35.2988H20.0376" stroke="#F9F9F9" stroke-width="0.17341" stroke-linecap="round" stroke-linejoin="round"/>
<path d="M21.7006 36.1641H19.5347" stroke="#F9F9F9" stroke-width="0.17341" stroke-linecap="round" stroke-linejoin="round"/>
<path d="M19.5606 26.3809H23.4693C23.7745 27.7665 23.5305 29.2179 22.7895 30.4241L18.5601 30.2489C18.5601 30.2489 19.8502 28.3779 19.5606 26.3809Z" stroke="#DDDDDD" stroke-width="0.17341" stroke-linecap="round" stroke-linejoin="round"/>
<path d="M20.2749 27.3262H22.8275" stroke="#DDDDDD" stroke-width="0.17341" stroke-linecap="round" stroke-linejoin="round"/>
<path d="M20.3115 28.1914H22.3491" stroke="#DDDDDD" stroke-width="0.17341" stroke-linecap="round" stroke-linejoin="round"/>
<path d="M20.2749 29.3223H21.2373" stroke="#DDDDDD" stroke-width="0.17341" stroke-linecap="round" stroke-linejoin="round"/>
<path d="M21.4561 29.3223H22.0959" stroke="#DDDDDD" stroke-width="0.17341" stroke-linecap="round" stroke-linejoin="round"/>
<path d="M29.1899 39.3379L33.1003 39.3467C33.4071 40.7309 33.1656 42.1814 32.4275 43.3881L28.1997 43.2129C28.1997 43.2129 29.4795 41.3315 29.1899 39.3379Z" stroke="#EDEDED" stroke-width="0.17341" stroke-linecap="round" stroke-linejoin="round"/>
<path d="M29.9043 40.2832H32.4569" stroke="#EDEDED" stroke-width="0.17341" stroke-linecap="round" stroke-linejoin="round"/>
<path d="M29.9409 41.1465H31.9785" stroke="#EDEDED" stroke-width="0.17341" stroke-linecap="round" stroke-linejoin="round"/>
<path d="M29.9043 42.2793H30.8667" stroke="#EDEDED" stroke-width="0.17341" stroke-linecap="round" stroke-linejoin="round"/>
<path d="M31.0854 42.2793H31.7253" stroke="#EDEDED" stroke-width="0.17341" stroke-linecap="round" stroke-linejoin="round"/>
<path d="M61.734 41.3633H65.6426C65.9474 42.7484 65.7034 44.199 64.9629 45.4047L60.7334 45.2296C60.7334 45.2296 62.0218 43.3569 61.734 41.3633Z" stroke="#EDEDED" stroke-width="0.17341" stroke-linecap="round" stroke-linejoin="round"/>
<path d="M62.4468 42.3086H64.9994" stroke="#EDEDED" stroke-width="0.17341" stroke-linecap="round" stroke-linejoin="round"/>
<path d="M62.4829 43.1719H64.5205" stroke="#EDEDED" stroke-width="0.17341" stroke-linecap="round" stroke-linejoin="round"/>
<path d="M62.4468 44.3047H63.4092" stroke="#EDEDED" stroke-width="0.17341" stroke-linecap="round" stroke-linejoin="round"/>
<path d="M63.6274 44.3047H64.2673" stroke="#EDEDED" stroke-width="0.17341" stroke-linecap="round" stroke-linejoin="round"/>
<path d="M74.9132 26.0078L71.0045 26.0166C70.6998 27.4017 70.9438 28.8523 71.6843 30.058L75.9138 29.8828C75.9138 29.8828 74.6271 28.0014 74.9132 26.0078Z" stroke="#DDDDDD" stroke-width="0.17341" stroke-linecap="round" stroke-linejoin="round"/>
<path d="M74.202 26.9551H71.6494" stroke="#DDDDDD" stroke-width="0.17341" stroke-linecap="round" stroke-linejoin="round"/>
<path d="M74.1657 27.8184H72.1299" stroke="#DDDDDD" stroke-width="0.17341" stroke-linecap="round" stroke-linejoin="round"/>
<path d="M74.2022 28.9492H73.2397" stroke="#DDDDDD" stroke-width="0.17341" stroke-linecap="round" stroke-linejoin="round"/>
<path d="M73.0212 28.9492H72.3813" stroke="#DDDDDD" stroke-width="0.17341" stroke-linecap="round" stroke-linejoin="round"/>
<path d="M49.2466 21.0977V62.4425" stroke="#EDEDED" stroke-width="0.17341" stroke-linecap="round" stroke-linejoin="round"/>
<path d="M69.657 31.516C68.7085 28.6781 68.2906 27.662 67.7495 27.0471C67.2085 26.4322 65.6773 25.7788 65.6773 25.7788C65.6773 25.7788 65.0391 23.2807 64.2224 23.3613C63.4056 23.4419 64.7599 26.7651 64.7599 26.7651L64.042 30.027C64.2748 30.4098 64.4562 30.8222 64.5813 31.2533C65.1397 33.1067 66.6709 33.2819 67.0923 34.8375C67.0663 34.7481 69.6484 33.1855 69.657 31.516Z" fill="#FEBD9D"/>
<path d="M69.657 31.516C68.7085 28.6781 68.2906 27.662 67.7495 27.0471C67.2085 26.4322 65.6773 25.7788 65.6773 25.7788C65.6773 25.7788 65.0391 23.2807 64.2224 23.3613C63.4056 23.4419 64.7599 26.7651 64.7599 26.7651L64.042 30.027C64.2748 30.4098 64.4562 30.8222 64.5813 31.2533C65.1397 33.1067 66.6709 33.2819 67.0923 34.8375C67.0663 34.7481 69.6484 33.1855 69.657 31.516Z" fill="#FEBD9D"/>
<path d="M67.751 27.0471C67.2134 26.4217 65.6787 25.7788 65.6787 25.7788C65.6787 25.7788 65.0406 23.2807 64.2238 23.3613C63.4071 23.4419 64.7614 26.7651 64.7614 26.7651L64.0435 30.027" stroke="#EF8A66" stroke-width="0.130058" stroke-linecap="round" stroke-linejoin="round"/>
<path d="M63.2321 28.7506C63.9066 28.2111 65.0633 30.1871 64.3644 30.7267C63.8633 31.1138 62.5904 29.2569 63.2321 28.7506Z" fill="#FEBD9D" stroke="#EF8A66" stroke-width="0.17341" stroke-miterlimit="10"/>
<path d="M65.6788 25.7781C65.1412 25.5644 65.0736 26.4788 65.5435 26.8292C66.0134 27.1795 66.3134 27.2531 66.3811 27.4738C66.4487 27.6946 66.5822 28.3865 66.5822 28.3865C66.4315 28.8238 66.3739 29.2882 66.413 29.7494C66.4522 30.2107 66.5872 30.6584 66.8094 31.0633" stroke="#EF8A66" stroke-width="0.130058" stroke-linecap="round" stroke-linejoin="round"/>
<path d="M63.7369 27.6196C64.4115 27.0801 65.8404 29.5466 65.1415 30.0827C64.6421 30.4681 63.0953 28.1312 63.7369 27.6196Z" fill="#FEBD9D" stroke="#EF8A66" stroke-width="0.17341" stroke-miterlimit="10"/>
<path d="M64.3226 26.8208C64.9972 26.2812 66.4278 28.7478 65.729 29.2839C65.2296 29.6693 63.6827 27.3288 64.3226 26.8208Z" fill="#FEBD9D" stroke="#EF8A66" stroke-width="0.17341" stroke-miterlimit="10"/>
<path d="M67.1877 36.6358L66.2773 34.8402C66.2773 34.8402 68.5039 33.3003 69.6571 31.5117L70.4219 32.8063C70.4219 32.8063 69.508 36.8653 67.1877 36.6358Z" fill="white"/>
<path d="M80.497 45.2891C77.3912 40.7676 73.4132 36.318 72.8479 35.6961C72.5485 35.3391 72.128 35.1079 71.6687 35.0479L70.2814 32.5586C70.2814 32.5586 68.7675 34.836 66.2773 36.0622L67.5363 38.5008C67.5363 38.5008 67.1513 38.7968 67.9976 40.5925C68.8438 42.3881 72.1195 49.2465 73.7756 50.6076C77.7363 53.8625 84.5791 51.233 80.497 45.2891Z" fill="#A7AAF0"/>
<path d="M69.553 37.1102L68.1519 34.8398" stroke="#83ADDF" stroke-width="0.130058" stroke-linecap="round" stroke-linejoin="round"/>
<path d="M68.7172 37.6734L67.3403 35.4434" stroke="#83ADDF" stroke-width="0.130058" stroke-linecap="round" stroke-linejoin="round"/>
<path d="M69.6567 33.3633L71.1342 35.758" stroke="#83ADDF" stroke-width="0.130058" stroke-linecap="round" stroke-linejoin="round"/>
<path d="M68.9165 34.1172L70.3957 36.5119" stroke="#83ADDF" stroke-width="0.130058" stroke-linecap="round" stroke-linejoin="round"/>
<path d="M80.4969 45.2891C77.3911 40.7676 73.413 36.318 72.8477 35.6961C72.5484 35.3391 72.1278 35.1079 71.6685 35.0479L70.2812 32.5586" stroke="#83ADDF" stroke-width="0.130058" stroke-linecap="round" stroke-linejoin="round"/>
<path d="M109.455 88.1315H92.3081V74.4831L107.643 74.2676C108.824 79.3006 109.455 88.1315 109.455 88.1315Z" fill="#683F1D"/>
<path d="M100.656 88.1318C100.656 88.1318 100.094 82.6345 100.037 82.1107C100.02 81.9721 99.959 81.8429 99.8625 81.7429C99.766 81.6429 99.6397 81.5776 99.503 81.5572C99.174 81.4888 98.8348 81.4888 98.5059 81.5572" stroke="#91613D" stroke-width="0.130058" stroke-linecap="round" stroke-linejoin="round"/>
<path d="M110.69 54.9768C110.416 59.5473 109.476 66.6528 108.825 71.1795C108.459 73.7284 108.191 75.4609 108.191 75.4609C108.191 75.4609 97.219 75.8919 94.2381 75.8113C91.2571 75.7307 90.9311 75.5082 90.9311 74.2942C90.9311 73.0802 90.9814 57.9199 90.9814 57.9199C90.9814 57.9199 76.2623 52.6644 74.1433 50.8793C72.0242 49.0942 74.5612 43.2273 80.0097 44.4309C81.3797 44.7339 82.741 45.0422 84.1317 45.3523C88.2658 46.279 92.6514 47.211 98.1502 47.9993C104.122 48.8612 107.861 48.9103 110.414 50.606C110.792 50.8565 110.835 52.5646 110.69 54.9768Z" fill="#A7AAF0"/>
<path d="M106.727 59.5723C104.409 61.0578 104.403 63.1477 105.31 64.7664C107.402 68.4926 101.322 66.0715 101.06 70.6929L109.862 68.5802L106.727 59.5723Z" fill="#93A5E5"/>
<path d="M113.908 56.4087C112.903 55.7918 111.82 55.3128 110.69 54.9845C108.819 54.459 107.013 54.5693 105.815 55.8166C105.601 56.0389 105.414 56.2866 105.258 56.5541C102.257 61.6344 93.8636 60.7077 92.3081 55.3506C90.985 50.7959 88.944 47.9649 84.1318 45.3652C88.2659 46.2797 92.6515 47.2117 98.1503 48C104.123 48.8619 107.861 48.9109 110.414 50.6067C111.597 51.1112 112.83 53.4201 113.908 56.4087Z" fill="#C3CBF8"/>
<path d="M98.7103 47.668C96.7542 47.668 95.1675 48.931 95.1675 50.4867C95.1675 51.3626 95.6704 52.1474 96.4611 52.6642C96.8437 52.913 97.267 53.091 97.7114 53.1897C98.0389 53.2665 98.3741 53.3047 98.7103 53.3036C98.7848 53.3036 98.8577 53.3036 98.9305 53.3036C99.402 53.2828 99.8667 53.1828 100.306 53.0075C100.721 52.8477 101.103 52.61 101.431 52.3068C101.685 52.0792 101.889 51.8009 102.032 51.4894C102.174 51.1779 102.25 50.8401 102.256 50.4972C102.256 48.931 100.67 47.668 98.7103 47.668ZM99.8842 51.8531C99.5379 51.9612 99.1784 52.0201 98.816 52.0283H98.7103C98.4265 52.0294 98.1434 52 97.8657 51.9407C97.5087 51.8703 97.1662 51.7387 96.853 51.5518C96.3501 51.2452 96.038 50.8142 96.038 50.3378C96.038 49.4023 97.2345 48.6455 98.7103 48.6455C100.186 48.6455 101.384 49.4023 101.384 50.3378C101.384 50.7494 101.152 51.1261 100.763 51.4204C100.498 51.6154 100.2 51.7619 99.8842 51.8531Z" stroke="#83ADDF" stroke-width="0.130058" stroke-linecap="round" stroke-linejoin="round"/>
<path d="M96.9486 46.9492C96.2862 47.0771 95.5492 47.2996 95.1798 47.9408C94.8105 48.5819 94.7931 51.2535 95.1313 51.546C95.4694 51.8386 95.9203 50.4406 97.937 49.7591L96.9486 46.9492Z" fill="white"/>
<path d="M99.6328 49.886L101.691 46.5996C101.691 46.5996 102.784 47.1847 102.961 48.2411C103.137 49.2974 102.659 52.7608 101.792 51.8831C101.176 51.27 101.315 50.7637 99.6328 49.886Z" fill="white"/>
<path d="M96.4614 52.6645L96.8533 51.5469" stroke="#83ADDF" stroke-width="0.130058" stroke-linecap="round" stroke-linejoin="round"/>
<path d="M97.7114 53.1936L97.8658 51.9375" stroke="#83ADDF" stroke-width="0.130058" stroke-linecap="round" stroke-linejoin="round"/>
<path d="M98.9304 53.3023L98.8159 52.0234" stroke="#83ADDF" stroke-width="0.130058" stroke-linecap="round" stroke-linejoin="round"/>
<path d="M100.306 53.006L99.8843 51.8516" stroke="#83ADDF" stroke-width="0.130058" stroke-linecap="round" stroke-linejoin="round"/>
<path d="M101.431 52.2972L100.764 51.416" stroke="#83ADDF" stroke-width="0.130058" stroke-linecap="round" stroke-linejoin="round"/>
<path d="M102.003 47.0437C102.019 47.4536 101.192 50.1479 98.8957 50.3721C96.5998 50.5964 96.2634 48.0702 96.2773 47.4063C96.2773 47.1382 96.3067 46.6653 96.3397 46.0731C96.3848 45.2603 96.4455 44.225 96.4905 43.1984L96.501 42.9742C96.7541 37.018 101.816 38.2074 101.5 41.3642C101.308 43.3105 101.984 46.6355 102.003 47.0437Z" fill="#FEBD9D"/>
<path d="M96.3398 46.0725C96.3849 45.2596 96.4456 44.2243 96.4907 43.1977L99.2948 42.7598C99.3971 44.5659 98.5335 46.1198 96.3398 46.0725Z" fill="#F4A789"/>
<path d="M107.688 68.1041C107.688 68.069 107.668 68.034 107.66 67.9972C106.874 64.8071 106.222 61.4699 105.948 58.5566" stroke="#83ADDF" stroke-width="0.130058" stroke-linecap="round" stroke-linejoin="round"/>
<path d="M94.8553 64.0991C94.6021 62.9884 95.2646 62.6626 95.842 62.4629C95.7883 62.1493 95.9027 61.6413 96.5911 61.5327C97.2432 61.4293 97.4773 62.0775 97.4773 62.0775C97.4773 62.0775 98.849 61.608 99.1958 63.0182L94.8553 64.0991Z" fill="#DDDDDD"/>
<path d="M91.5239 64.4095L101.885 61.9902L105.815 78.8095L95.3632 80.9345L91.5239 64.4095Z" fill="#F9F9F9" stroke="#DDDDDD" stroke-width="0.17341" stroke-linecap="round" stroke-linejoin="round"/>
<path d="M96.2427 62.3855C96.2423 62.4788 96.2694 62.5701 96.3205 62.6478C96.3715 62.7255 96.4442 62.7862 96.5294 62.8221C96.6146 62.8581 96.7085 62.8676 96.7991 62.8497C96.8897 62.8317 96.973 62.7869 97.0384 62.7211C97.1038 62.6553 97.1484 62.5713 97.1665 62.4798C97.1847 62.3884 97.1755 62.2935 97.1403 62.2073C97.105 62.1211 97.0452 62.0474 96.9685 61.9956C96.8917 61.9437 96.8015 61.916 96.7092 61.916C96.5857 61.916 96.4673 61.9654 96.3799 62.0534C96.2925 62.1414 96.2431 62.2608 96.2427 62.3855Z" fill="#F9F9F9" stroke="#DDDDDD" stroke-width="0.17341" stroke-linecap="round" stroke-linejoin="round"/>
<path d="M117.052 71.5322C117.055 71.8656 117.04 72.199 117.007 72.5307V72.5798C116.996 72.6472 116.981 72.7139 116.961 72.7795C116.538 74.181 113.861 75.5036 111.374 74.0496C111.156 73.9219 110.947 73.7784 110.75 73.6204C109.944 72.9486 109.288 72.1129 108.823 71.1678C108.328 70.1946 107.947 69.1663 107.687 68.1039C107.687 68.0688 107.668 68.0338 107.66 67.997C106.619 63.7436 105.801 59.2274 105.808 55.8096C105.808 51.6893 107.009 49.1631 110.413 50.6102C111.589 51.1112 112.822 53.4131 113.901 56.4017C114.814 58.9913 115.55 61.641 116.105 64.3322C116.705 67.1299 117.052 69.7541 117.052 71.5322Z" fill="#A7AAF0"/>
<path d="M117.013 72.5358V72.5849C117.003 72.6523 116.988 72.719 116.968 72.7846C116.545 74.186 113.868 75.5087 111.381 74.0547C111.163 73.927 110.954 73.7835 110.757 73.6255C111.515 73.2299 112.369 73.0581 113.219 73.1297C117.796 73.5466 112.94 68.4401 116.117 64.332C116.701 67.135 117.059 69.7539 117.064 71.532C117.086 71.8675 117.069 72.2043 117.013 72.5358Z" fill="#93A5E5"/>
<path d="M113.908 56.4075C112.902 55.7906 111.82 55.3116 110.689 54.9833C108.818 54.4578 107.013 54.5681 105.814 55.8154C105.814 51.6951 107.016 49.169 110.42 50.616C111.596 51.11 112.829 53.4189 113.908 56.4075Z" fill="#C3CBF8"/>
<path d="M96.6013 71.6091C96.3187 71.4339 94.6453 70.4564 94.1597 70.4248C93.6742 70.3933 92.6389 71.1168 92.6389 71.1168C92.6389 71.1168 90.584 71.2394 90.3568 71.6091C90.1297 71.9787 90.5909 72.499 90.9447 72.6847C91.2984 72.8704 90.9655 73.2523 91.0106 73.5606C91.0557 73.8689 91.4372 74.0861 91.4823 74.2981C91.5273 74.5101 91.3297 75.0882 91.8013 75.2301C92.273 75.372 91.9747 75.6645 92.2123 76.0797C92.4499 76.4949 93.9013 76.4178 97.588 75.6803L96.6013 71.6091Z" fill="#FEBD9D"/>
<path d="M94.1617 70.4247C93.6744 70.3949 92.6408 71.1167 92.6408 71.1167C92.6408 71.1167 90.5859 71.2393 90.3588 71.609C90.1316 71.9786 90.5929 72.4989 90.9466 72.6846C91.3004 72.8703 90.9674 73.2522 91.0125 73.5605C91.0576 73.8688 91.4391 74.086 91.4842 74.298C91.5293 74.51 91.3316 75.0881 91.8033 75.23C92.275 75.3719 91.9767 75.6644 92.2143 76.0796C92.3096 76.2425 92.5923 76.3301 93.1229 76.3301" stroke="#EF8A66" stroke-width="0.130058" stroke-linecap="round" stroke-linejoin="round"/>
<path d="M96.3428 71.2736L97.0832 76.0596L98.6457 75.8266L98.1601 71.1562L96.3428 71.2736Z" fill="white"/>
<path d="M117.008 72.5865C116.994 72.653 116.981 72.7214 116.963 72.7862C116.55 74.4276 114.809 75.4892 110.037 75.8256C109.621 75.8559 109.209 75.8828 108.801 75.9062C103.141 76.246 98.2453 76.1479 98.2453 76.1479L97.5083 71.0343C100.075 70.2653 104.339 68.8078 107.694 68.1053C109.082 67.8162 110.304 67.6533 111.197 67.7199C112.215 67.7757 113.223 67.9431 114.204 68.2192C114.465 68.2953 114.721 68.3883 114.971 68.4977C116.119 69.0233 116.89 69.8501 117.036 71.199C117.048 71.3111 117.057 71.4233 117.066 71.5301C117.088 71.8833 117.069 72.2379 117.008 72.5865Z" fill="#A7AAF0"/>
<path d="M111.197 67.7199C110.304 67.6533 109.077 67.8162 107.694 68.1053C104.339 68.806 100.075 70.2653 97.5083 71.0343L98.2453 76.1479" stroke="#83ADDF" stroke-width="0.130058" stroke-linecap="round" stroke-linejoin="round"/>
<path d="M97.5967 71.6415L100.6 71.1562" stroke="#83ADDF" stroke-width="0.130058" stroke-linecap="round" stroke-linejoin="round"/>
<path d="M97.7388 72.6237L100.657 72.2559" stroke="#83ADDF" stroke-width="0.130058" stroke-linecap="round" stroke-linejoin="round"/>
<path d="M97.8462 73.3779L100.728 73.1309" stroke="#83ADDF" stroke-width="0.130058" stroke-linecap="round" stroke-linejoin="round"/>
<path d="M98.0059 74.4848L100.787 74.2676" stroke="#83ADDF" stroke-width="0.130058" stroke-linecap="round" stroke-linejoin="round"/>
<path d="M98.1602 75.3881L100.888 75.1113" stroke="#83ADDF" stroke-width="0.130058" stroke-linecap="round" stroke-linejoin="round"/>
<path d="M92.6387 71.1262C93.3826 71.0491 94.052 71.0176 94.052 71.0176" stroke="#EF8A66" stroke-width="0.130058" stroke-linecap="round" stroke-linejoin="round"/>
<path d="M117.008 72.5872C116.997 72.6547 116.982 72.7214 116.963 72.7869C116.55 74.4284 114.809 75.49 110.037 75.8263C109.621 75.8567 109.209 75.8836 108.801 75.9069C109.862 73.2547 112.219 73.0409 113.214 73.132C116.278 73.4123 115.122 71.2173 114.964 68.502C116.112 69.0275 116.883 69.8544 117.029 71.2033C117.041 71.3154 117.05 71.4275 117.059 71.5344C117.083 71.8861 117.066 72.2395 117.008 72.5872Z" fill="#93A5E5"/>
<path d="M101.169 37.4129C101.056 38.2626 100.853 39.0977 100.564 39.904C100.115 41.0848 99.3885 42.1166 98.2041 42.1078C98.0791 42.1062 97.9544 42.0945 97.8313 42.0728L94.6821 40.7677C94.6821 40.7677 94.696 40.7064 94.7272 40.5925C94.9485 39.8192 95.2723 39.0797 95.6896 38.394C95.7261 38.3362 95.7659 38.2783 95.8041 38.2188C96.5532 37.0713 97.3024 36.1534 97.3024 36.1534C97.3024 36.1534 97.3457 35.055 98.2336 34.8938C99.1214 34.7327 101.416 35.7382 101.169 37.4129Z" fill="#FEBD9D"/>
<path d="M100.564 39.9046C100.115 41.0853 99.3886 42.1171 98.2042 42.1084C97.9901 41.9702 97.8102 41.7843 97.6783 41.5649C97.5464 41.3456 97.4661 41.0985 97.4436 40.8429C97.421 40.5872 97.4568 40.3298 97.5482 40.0903C97.6396 39.8508 97.7841 39.6357 97.9707 39.4615C98.1572 39.2872 98.3809 39.1586 98.6244 39.0854C98.8679 39.0121 99.1248 38.9963 99.3753 39.0391C99.6258 39.0819 99.8633 39.1822 100.069 39.3322C100.276 39.4823 100.445 39.6781 100.564 39.9046Z" fill="#F4AF90"/>
<path d="M95.9203 39.1765C95.9202 39.517 95.8009 39.8466 95.5836 40.1069C95.3662 40.3672 95.0647 40.5415 94.7324 40.5989C94.9537 39.8256 95.2775 39.0861 95.6949 38.4004C95.8424 38.6318 95.9207 38.9012 95.9203 39.1765Z" fill="#F4AF90"/>
<path d="M103.205 37.6384C103.063 38.0483 102.579 39.3114 102.312 40.0068C102.203 40.2889 102.128 40.4781 102.128 40.4781L101.362 40.196L100.812 39.9946L100.618 39.9245C100.618 39.9245 100.618 40.0068 100.597 40.1505C100.542 40.684 100.44 41.2115 100.294 41.7271C100.12 42.3688 99.8366 42.9747 99.4561 43.5175C98.4156 44.9189 95.7139 44.7753 94.4671 43.6927C93.6 42.9324 93.7734 41.5414 94.5277 40.0944C94.8854 39.4261 95.3152 38.7998 95.8092 38.227C95.8092 38.227 95.2006 39.6687 95.1017 39.9788C94.9821 40.366 95.4312 40.3292 95.6046 39.9998C95.778 39.6705 96.1127 39.4427 97.0838 39.7055C98.0549 39.9683 98.4503 40.4763 98.2699 41.1858C98.1642 41.6045 98.9341 41.7499 99.5012 41.1981C99.5497 41.1512 99.5949 41.1008 99.6364 41.0474C99.7143 40.9501 99.7812 40.8444 99.8358 40.7321C100.356 39.6617 100.66 38.0238 100.689 37.3791C100.108 37.4159 99.6069 36.9692 99.9364 36.4138C99.2549 36.7029 98.7486 36.2089 98.8647 35.5502C98.5699 36.0179 97.9075 35.9881 97.8243 35.4346L97.304 36.1528C97.2038 35.8807 97.1567 35.5916 97.1653 35.3014C97.2035 34.4255 97.9405 34.1067 98.5231 34.3081C98.6133 33.6757 100.084 33.5496 100.191 34.4535C100.507 33.8649 101.553 33.9858 101.579 34.895C101.715 34.8204 101.871 34.7917 102.024 34.8131C102.177 34.8345 102.319 34.9048 102.43 35.0138C102.541 35.1229 102.615 35.2649 102.64 35.419C102.665 35.5732 102.641 35.7315 102.571 35.8708C103.047 35.7657 103.353 36.3963 102.942 36.8483C102.947 36.857 103.408 37.062 103.205 37.6384Z" fill="#BF8228"/>
<path d="M98.1504 38.3656C98.1504 38.412 98.164 38.4574 98.1896 38.496C98.2151 38.5346 98.2514 38.5647 98.2938 38.5825C98.3363 38.6002 98.383 38.6049 98.4281 38.5958C98.4732 38.5868 98.5146 38.5644 98.5471 38.5316C98.5796 38.4988 98.6017 38.4569 98.6107 38.4114C98.6196 38.3659 98.615 38.3187 98.5974 38.2758C98.5799 38.2329 98.5501 38.1962 98.5119 38.1704C98.4736 38.1446 98.4287 38.1309 98.3828 38.1309C98.3211 38.1309 98.262 38.1556 98.2184 38.1996C98.1749 38.2436 98.1504 38.3033 98.1504 38.3656Z" fill="#683F1D"/>
<path d="M96.6641 37.8619C96.6637 37.9085 96.6771 37.9541 96.7025 37.993C96.7279 38.0318 96.7642 38.0622 96.8067 38.0802C96.8492 38.0982 96.8961 38.103 96.9413 38.094C96.9866 38.085 97.0281 38.0626 97.0607 38.0296C97.0933 37.9967 97.1155 37.9547 97.1244 37.909C97.1333 37.8633 97.1286 37.816 97.1108 37.773C97.093 37.73 97.0629 37.6934 97.0244 37.6677C96.986 37.6421 96.9408 37.6286 96.8947 37.6289C96.8337 37.6294 96.7753 37.6541 96.7321 37.6977C96.689 37.7413 96.6645 37.8003 96.6641 37.8619Z" fill="#683F1D"/>
<path d="M98.6186 37.1284C98.499 37.5471 99.7146 37.9605 99.7666 37.7048C99.8048 37.5208 98.7955 36.5083 98.6186 37.1284Z" fill="#BF8228"/>
<path d="M96.8947 36.5733C96.8236 36.7975 97.8449 37.1847 97.9646 36.808C98.1068 36.3596 96.9571 36.3806 96.8947 36.5733Z" fill="#BF8228"/>
<path d="M101.362 40.1967L100.618 39.9252C100.572 40.5374 100.463 41.1432 100.294 41.7331C100.053 41.7698 99.7736 41.642 99.5014 41.2075C99.6389 41.073 99.7521 40.9153 99.8361 40.7415C100.356 39.6712 100.66 38.0332 100.689 37.3885C100.108 37.4253 99.6072 36.9786 99.9366 36.4233C99.2551 36.7123 98.7488 36.2183 98.865 35.5596C98.5702 36.0274 97.9077 35.9976 97.8245 35.444L97.3043 36.1623C97.204 35.8902 97.1569 35.6011 97.1656 35.3109C97.4465 35.0218 97.8315 34.8221 98.154 34.922C98.154 34.922 99.002 35.1287 99.3002 34.7188C99.1355 35.3774 99.8014 36.0046 100.587 35.7348C100.587 35.7348 100.861 36.9313 101.82 36.9296C101.82 36.9296 101.716 37.9999 102.264 38.098C102.678 38.1698 101.841 39.3769 101.362 40.1967Z" fill="#B57724"/>
<path d="M100.597 40.1498C100.542 40.6833 100.44 41.2109 100.294 41.7265C100.12 42.3681 99.8366 42.974 99.4561 43.5168C98.4156 44.9183 95.7139 44.7746 94.4671 43.692C93.6 42.9317 93.7734 41.5408 94.5277 40.0938C94.6353 42.5971 96.9902 44.0319 99.5012 41.2062L99.6364 41.0555C99.931 40.727 100.252 40.424 100.597 40.1498Z" fill="#B57724"/>
<path d="M102.312 40.0067C102.203 40.2887 102.128 40.4779 102.128 40.4779L101.362 40.1959L100.812 39.9944C101.662 39.4251 102.094 39.6703 102.312 40.0067Z" fill="#B57724"/>
<path d="M100.325 41.6158C100.476 41.0631 100.574 40.497 100.618 39.9253C101.096 39.4873 101.936 39.5014 102.319 39.9884C102.424 40.1237 102.491 40.2854 102.511 40.4561C102.659 41.5195 101.78 42.6389 100.325 41.6158Z" fill="#FEBD9D"/>
<path d="M101.426 42.0182C101.026 42.005 100.64 41.8639 100.325 41.6152" stroke="#EF8A66" stroke-width="0.130058" stroke-linecap="round" stroke-linejoin="round"/>
<path d="M96.2759 38.9242C96.3522 38.4792 96.5967 38.4792 97.058 38.3986C97.5192 38.318 97.8765 37.9029 97.8262 37.4824" stroke="#EF8A66" stroke-width="0.130058" stroke-linecap="round" stroke-linejoin="round"/>
<path d="M100.934 40.6421C101.008 40.5585 101.101 40.4939 101.205 40.4536C101.309 40.4133 101.421 40.3984 101.532 40.4102C101.643 40.422 101.749 40.4601 101.843 40.5214C101.936 40.5827 102.014 40.6655 102.069 40.763" stroke="#EF8A66" stroke-width="0.130058" stroke-linecap="round" stroke-linejoin="round"/>
<path d="M101.154 40.4858C101.941 40.4105 101.821 41.6053 101.06 41.3845" stroke="#EF8A66" stroke-width="0.130058" stroke-linecap="round" stroke-linejoin="round"/>
<path d="M94.0527 43.1334C94.7949 42.6306 95.7868 42.8846 96.5863 43.6064C97.6493 44.5664 99.3868 43.6064 99.3868 43.6064" stroke="#9B621F" stroke-width="0.130058" stroke-linecap="round" stroke-linejoin="round"/>
<path d="M100.174 42.1074C99.7404 42.4578 98.093 43.423 96.9069 42.5314C95.7208 41.6397 93.9312 42.7574 93.9312 42.7574" stroke="#9B621F" stroke-width="0.130058" stroke-linecap="round" stroke-linejoin="round"/>
<path d="M93.9644 41.578C94.3476 41.2277 95.7435 40.4797 96.6522 41.4782C97.5609 42.4767 98.7453 41.564 98.7453 41.564" stroke="#9B621F" stroke-width="0.130058" stroke-linecap="round" stroke-linejoin="round"/>
<path d="M95.5493 40.0938C95.7695 40.3373 97.3441 40.8961 98.2597 40.558" stroke="#9B621F" stroke-width="0.130058" stroke-linecap="round" stroke-linejoin="round"/>
<path d="M97.8207 35.4428C97.7236 34.9401 98.1675 34.3497 98.5265 34.3164" stroke="#9B621F" stroke-width="0.130058" stroke-linecap="round" stroke-linejoin="round"/>
<path d="M98.8647 35.5616C98.9358 35.1622 99.4075 34.204 100.079 34.1602" stroke="#9B621F" stroke-width="0.130058" stroke-linecap="round" stroke-linejoin="round"/>
<path d="M99.9365 36.4232C100.11 35.6454 100.618 34.808 101.426 34.4629" stroke="#9B621F" stroke-width="0.130058" stroke-linecap="round" stroke-linejoin="round"/>
<path d="M100.689 37.3872C100.796 36.5376 101.96 35.8351 102.576 35.8789" stroke="#9B621F" stroke-width="0.130058" stroke-linecap="round" stroke-linejoin="round"/>
<path d="M100.505 38.6378C101.26 37.9826 102.567 37.4028 103.257 37.3555" stroke="#9B621F" stroke-width="0.130058" stroke-linecap="round" stroke-linejoin="round"/>
<path d="M96.3622 40.3105C97.0437 40.4595 97.8067 40.3789 97.7825 40.4104C97.7582 40.4419 97.6403 41.4615 96.8946 41.3546C96.1489 41.2478 96.3622 40.3105 96.3622 40.3105Z" fill="white" stroke="#EF8A66" stroke-width="0.130058" stroke-linecap="round" stroke-linejoin="round"/>
<path d="M76.8452 43.6058C77.3134 42.2866 77.9308 40.9483 78.2186 41.1252C78.7059 41.4248 77.74 43.9894 77.74 43.9894L76.8452 43.6058Z" fill="#B25E47" stroke="#934735" stroke-width="0.130058" stroke-miterlimit="10"/>
<path d="M76.2417 43.9083C76.2417 43.826 76.5296 40.0543 77.0741 40.1401C77.8128 40.2522 77.2249 43.9941 77.2249 43.9941L76.2417 43.9083Z" fill="#B25E47" stroke="#934735" stroke-width="0.130058" stroke-miterlimit="10"/>
<path d="M75.3508 44.4402C75.33 40.6615 75.4028 39.6893 75.8572 39.6875C76.4849 39.6875 76.5664 44.0408 76.5664 44.0408L75.3508 44.4402Z" fill="#B25E47" stroke="#934735" stroke-width="0.130058" stroke-miterlimit="10"/>
<path d="M77.4471 44.2117C77.3379 45.9968 77.2859 46.9445 77.2859 46.9445C77.2859 46.9445 75.7044 47.8205 75.602 45.6762C75.4997 43.532 77.4471 44.2117 77.4471 44.2117Z" fill="#B25E47" stroke="#934735" stroke-width="0.130058" stroke-miterlimit="10"/>
<path d="M68.4055 55.3163C66.3159 58.4468 63.7633 62.7984 65.8252 64.1946C67.887 65.5908 70.6338 65.0214 72.276 61.1814C73.9182 57.3414 75.9437 50.6565 76.3494 49.9978C76.7552 49.3391 77.6986 48.5648 78.3072 47.293C78.9159 46.0211 79.2072 45.9511 79.0009 45.5884C78.7945 45.2258 78.2812 45.3607 78.0107 45.7636C77.7402 46.1665 77.0205 46.9461 76.6148 46.7184C76.209 46.4906 76.0373 46.0317 76.0304 45.4693C76.0234 44.907 76.3546 44.3026 76.9911 44.4988C77.6275 44.695 77.9205 45.5376 78.4598 45.2416C78.9991 44.9455 77.8529 43.8103 77.4471 43.446C77.0413 43.0816 76.7275 43.3321 76.0598 43.5598C75.3922 43.7876 75.1824 43.8103 74.846 44.6109C74.5095 45.4115 73.2263 48.0322 73.0234 48.5087C72.8205 48.9852 70.3633 52.3785 68.4055 55.3163Z" fill="#B25E47"/>
<path d="M78.3075 47.2969C78.9144 46.0233 79.2075 45.955 79.0011 45.5924C78.7948 45.2297 78.2815 45.3646 78.0109 45.7675C77.7404 46.1705 77.0208 46.95 76.615 46.7223C76.2092 46.4945 76.0375 46.0356 76.0306 45.4732C76.0237 44.9109 76.3549 44.3065 76.9913 44.5027C77.6277 44.6989 77.9208 45.5416 78.4601 45.2455C78.9994 44.9494 77.8531 43.8143 77.4473 43.4499C77.0416 43.0855 76.7277 43.336 76.0601 43.5637C75.3924 43.7915 75.1826 43.8143 74.8462 44.6148" stroke="#934735" stroke-width="0.130058" stroke-linecap="round" stroke-linejoin="round"/>
<path d="M67.8889 56.1016C67.5299 56.6586 67.1692 57.2402 66.8311 57.8271" stroke="#934735" stroke-width="0.130058" stroke-linecap="round" stroke-linejoin="round"/>
<path d="M36.3137 58.294C35.7415 59.1927 36.9207 59.8706 37.9854 60.5714C39.0501 61.2721 39.3293 58.0838 39.3293 58.0838C39.3293 58.0838 36.6293 57.7982 36.3137 58.294Z" fill="#5FC557"/>
<path d="M68.1677 54.399C68.5284 54.6723 67.9943 55.5815 66.9695 56.5923L66.1284 55.4957C66.1284 55.4957 67.3267 54.0854 68.1677 54.399Z" fill="#5FC557"/>
<path d="M66.4683 54.6719C68.8683 57.2383 71.6533 60.6158 70.1741 63.1805C68.6949 65.7452 65.1642 64.384 63.0278 62.4167C63.0278 62.4167 61.2885 59.0357 66.4683 54.6719Z" fill="#B25E47"/>
<path d="M37.965 58.2209C37.0424 60.2898 34.3736 64.9111 37.202 66.8171C40.0303 68.7231 43.4708 62.0364 43.4708 62.0364C43.4708 62.0364 42.4199 58.0387 37.965 58.2209Z" fill="#B25E47"/>
<path d="M68.1677 54.3992C66.232 55.8474 64.7154 57.7927 63.7752 60.033C63.4383 60.7969 63.1876 61.5967 63.0278 62.4173C62.4729 62.0108 61.1619 61.0158 61.1619 61.0158C61.0648 61.6342 60.9382 62.3454 60.8151 63.0637C60.4354 65.1256 59.9984 67.2278 59.9984 67.2278H47.0255L46.807 66.3519L45.1111 59.5618L43.4706 62.0336C43.4377 61.9933 43.4047 61.9548 43.3683 61.918C41.4608 59.8351 36.314 58.29 36.314 58.29C37.7124 55.9068 39.3815 53.6968 41.2874 51.7049C41.8453 51.1294 42.4316 50.5827 43.044 50.0669C43.9016 49.3806 44.8421 48.8072 45.8429 48.3606C46.9808 47.8384 48.1601 47.4136 49.3683 47.0906C49.3683 47.0906 49.396 44.3017 49.6978 41.0047C49.8313 39.5174 52.8192 39.2266 53.5128 41.7562C54.2064 44.2859 54.7267 45.9116 54.7267 45.9116C55.4727 45.8003 56.2275 45.7598 56.981 45.7907C57.9365 45.8292 59.0238 46.0062 59.8752 46.5019C60.333 46.77 61.2469 47.5706 62.303 48.5638C64.8261 50.9341 68.1677 54.3992 68.1677 54.3992Z" fill="#7DE375"/>
<path d="M63.7753 60.0326C63.4383 60.7964 63.1876 61.5962 63.0279 62.4168C62.473 62.0104 61.162 61.0153 61.162 61.0153C61.5502 59.0958 61.7419 57.141 61.7342 55.1818C61.7297 54.3192 61.5254 53.4697 61.1377 52.7012C62.3412 53.3861 63.34 54.1324 62.7556 55.7581C62.2024 57.2647 62.2874 59.7803 63.7753 60.0326Z" fill="#5FC557"/>
<path d="M51.1906 66.8707L46.8068 66.3451L45.1108 59.562C45.577 58.7893 45.9828 57.981 46.3247 57.1445C48.0762 59.2467 44.386 61.6993 50.1276 62.9781C52.9923 63.6193 51.1906 66.8707 51.1906 66.8707Z" fill="#5FC557"/>
<path d="M62.308 48.5677C60.7872 48.7079 59.3097 49.8781 58.382 53.0051C56.7103 58.6407 50.5993 57.9786 48.4976 54.079C46.8519 51.0238 44.8247 50.6805 41.2837 51.7088C41.8416 51.1333 42.4279 50.5867 43.0403 50.0708C43.8979 49.3845 44.8384 48.8111 45.8392 48.3645C46.9771 47.8423 48.1564 47.4175 49.3646 47.0945C49.3646 47.0945 49.3924 44.3056 49.6941 41.0086C49.8276 39.5213 52.8155 39.2305 53.5091 41.7602C54.2028 44.2898 54.723 45.9155 54.723 45.9155C55.4691 45.8042 56.2238 45.7637 56.9773 45.7946C57.9328 45.8331 59.0201 46.0101 59.8716 46.5058C60.3363 46.7739 61.2502 47.5745 62.308 48.5677Z" fill="#AFFFA8"/>
<path d="M56.9844 45.7931C57.0121 47.6833 55.3908 48.9463 53.5301 49.2424C51.6694 49.5385 48.5827 49.3177 45.8428 48.3665C46.9807 47.8443 48.16 47.4194 49.3682 47.0964C49.3682 47.0964 49.396 44.3075 49.6977 41.0106C49.8312 39.5233 52.8191 39.2325 53.5127 41.7621C53.6705 42.3315 53.8197 42.8553 53.9532 43.3247C54.2393 44.3145 54.463 45.0661 54.5948 45.497C54.678 45.7703 54.7249 45.9174 54.7249 45.9174C55.4725 45.8046 56.229 45.763 56.9844 45.7931Z" fill="#B25E47"/>
<path d="M54.5984 45.4951C52.9545 45.6283 51.9973 44.6437 52.0094 43.3281C52.0094 43.3281 53.1608 43.3281 53.9568 43.3281C54.2429 44.3214 54.4666 45.0642 54.5984 45.4951Z" fill="#914839"/>
<path d="M61.4586 88.1306H43.6997C43.6997 88.1306 42.98 79.2208 44.0604 74.4821C44.4971 72.5781 45.0768 70.7105 45.7945 68.8956C46.1074 68.0823 46.4604 67.2854 46.8523 66.5078L60.0002 67.2296C60.132 67.7656 60.2517 68.3227 60.3627 68.8956C61.9078 76.9645 61.4586 88.1306 61.4586 88.1306Z" fill="#A7AAF0"/>
<path d="M49.0752 47.1719C49.0752 47.1719 51.2463 50.9593 53.8925 52.5798C53.8925 52.5798 55.3631 50.4075 55.122 45.8633" stroke="#683F1D" stroke-width="0.17341" stroke-miterlimit="10"/>
<path d="M53.1748 52.6948C53.1748 52.8469 53.2195 52.9956 53.3031 53.1221C53.3867 53.2486 53.5056 53.3471 53.6447 53.4053C53.7838 53.4636 53.9369 53.4788 54.0846 53.4491C54.2323 53.4194 54.3679 53.3462 54.4744 53.2386C54.5808 53.1311 54.6533 52.994 54.6827 52.8449C54.7121 52.6957 54.697 52.5411 54.6394 52.4005C54.5818 52.26 54.4842 52.1399 54.359 52.0554C54.2338 51.9709 54.0866 51.9258 53.9361 51.9258C53.7342 51.9258 53.5405 52.0068 53.3978 52.151C53.255 52.2953 53.1748 52.4909 53.1748 52.6948Z" fill="white"/>
<path d="M61.1618 61.0174C61.5501 59.0972 61.7418 57.1418 61.734 55.182C61.7294 54.3195 61.5252 53.47 61.1375 52.7014C60.8149 52.0007 60.4664 51.3578 60.3936 50.4941" stroke="#5FC557" stroke-width="0.130058" stroke-linecap="round" stroke-linejoin="round"/>
<path d="M46.5469 56.6074C46.5469 56.6074 46.4654 56.8211 46.3267 57.1487C45.9848 57.9852 45.5789 58.7935 45.1128 59.5663" stroke="#5FC557" stroke-width="0.130058" stroke-linecap="round" stroke-linejoin="round"/>
<path d="M60.3467 68.8956H45.7803C46.0932 68.0823 46.4462 67.2854 46.8381 66.5078L59.9999 67.2296C60.123 67.7656 60.2427 68.321 60.3467 68.8956Z" fill="#93A5E5"/>
<path d="M54.5601 68.8945V72.901" stroke="#83ADDF" stroke-width="0.130058" stroke-linecap="round" stroke-linejoin="round"/>
<path d="M54.8652 73.1714C55.278 72.9419 55.5155 72.8333 55.5589 72.581C55.6022 72.3288 55.8086 69.5469 55.8086 69.5469" stroke="#83ADDF" stroke-width="0.130058" stroke-linecap="round" stroke-linejoin="round"/>
<path d="M54.3643 88.1299C54.3643 88.1299 54.4683 76.9585 54.555 76.4505C54.5545 76.4452 54.5545 76.4399 54.555 76.4347C54.6434 76.2683 54.8221 76.0213 55.8036 75.4414" stroke="#83ADDF" stroke-width="0.130058" stroke-linecap="round" stroke-linejoin="round"/>
<path d="M32.8613 47.6227C33.7388 47.2829 34.6943 47.3512 35.9151 47.9398C37.344 48.63 38.5821 50.4046 37.9787 52.8449C37.8798 53.2391 36.3608 54.0589 36.1093 53.8785C35.8579 53.6981 37.8486 48.7001 32.8613 47.6227Z" fill="white"/>
<path d="M48.616 41.0596C47.8392 40.9842 47.3501 41.3066 46.9877 41.974C46.6253 42.6415 46.1675 43.3072 46.1675 43.3072C46.1675 43.3072 47.1108 43.6961 48.0316 42.6397C48.8883 41.6552 48.616 41.0596 48.616 41.0596Z" fill="#7DE375"/>
<path d="M49.1832 41.3633C48.3058 41.5998 47.8948 41.9572 47.737 43.031C47.5792 44.1049 47.6347 44.5972 47.522 45.0018C47.522 45.0018 48.6457 44.739 49.1832 43.7195C49.6948 42.7437 49.5647 42.1183 49.1832 41.3633Z" fill="#7DE375"/>
<path d="M50.2894 35.6319C50.2894 35.6319 49.4431 37.4888 49.4223 39.0462C49.4092 39.3985 49.461 39.7501 49.5749 40.0833L48.6368 40.1936C47.8339 40.9732 46.3824 40.7052 46.9027 39.7101C46.0356 40.2567 44.8998 39.5087 45.4633 38.7186C44.7888 38.8798 44.4454 37.7779 45.3142 37.4923C44.5911 37.4135 44.4472 36.1101 45.4269 36.0348C45.3415 35.9452 45.2828 35.833 45.2577 35.7112C45.2326 35.5894 45.242 35.4629 45.285 35.3463C45.3279 35.2296 45.4026 35.1277 45.5005 35.052C45.5983 34.9764 45.7153 34.9303 45.8379 34.9189C45.9401 34.9158 46.0416 34.9363 46.1347 34.9788C46.2279 35.0213 46.3102 35.0847 46.3755 35.1642C45.9558 33.6366 47.7298 33.1496 48.2743 33.9519C48.3697 33.3055 49.5697 33.2389 49.7483 34.0728C50.6535 33.5682 51.2431 34.7945 50.2894 35.6319Z" fill="#604730"/>
<path d="M49.5817 40.0843L48.6436 40.1947C47.8407 40.9742 46.3893 40.7062 46.9095 39.7112C46.0424 40.2577 44.9066 39.5097 45.4702 38.7196C44.7956 38.8808 44.4523 37.7789 45.321 37.4934C44.5979 37.4145 44.454 36.1112 45.4338 36.0358C45.3483 35.9462 45.2896 35.8341 45.2645 35.7122C45.2394 35.5904 45.2489 35.4639 45.2918 35.3473C45.3348 35.2307 45.4095 35.1287 45.5073 35.0531C45.6051 34.9775 45.7221 34.9313 45.8447 34.9199C45.7823 35.4595 46.0182 36.2233 46.5384 36.2758C45.8274 36.5404 45.8326 37.3917 46.5384 37.6913C46.0962 38.1871 46.7586 38.8843 47.3118 38.4919C47.291 39.0385 48.1043 39.9284 49.4187 39.0385C49.4079 39.3943 49.4632 39.749 49.5817 40.0843Z" fill="#473526"/>
<path d="M54.7653 44.2068C52.2456 44.5572 50.0468 41.6912 50.0468 41.6912C48.8971 42.0976 48.0057 41.1954 48.3647 40.2897C48.4296 40.1215 48.5395 39.9747 48.682 39.8658C48.7974 39.7785 48.9308 39.7186 49.0722 39.6906C49.1808 39.6699 49.2919 39.6657 49.4017 39.6783C49.6123 39.7027 49.8135 39.7805 49.9863 39.9046C50.1592 40.0286 50.2981 40.1949 50.3901 40.3878C50.4699 40.528 51.0057 40.5035 50.7664 39.8868C50.5566 39.3508 50.3277 39.391 50.3277 39.391C50.6745 39.2807 50.3988 38.4959 49.9809 38.608C50.3277 38.4573 50.4491 37.7934 50.0606 37.5569C50.4786 37.5341 50.9364 37.3659 50.7664 36.723C50.8433 36.8169 50.9455 36.8862 51.0606 36.9225C51.1757 36.9588 51.2988 36.9605 51.4149 36.9275C51.531 36.8945 51.635 36.8281 51.7145 36.7364C51.7939 36.6448 51.8453 36.5318 51.8624 36.4112C51.9395 36.4873 52.0369 36.5391 52.1426 36.5603C52.2483 36.5815 52.3578 36.5713 52.4579 36.5309C52.558 36.4904 52.6443 36.4215 52.7064 36.3325C52.7684 36.2434 52.8035 36.1381 52.8075 36.0293C52.8595 36.2658 53.1335 36.3359 53.3502 36.2045C53.8394 36.7441 54.275 37.3309 54.6508 37.9563L54.6647 37.9791C54.8763 38.3119 55.0757 38.6483 55.256 38.9829C56.6242 41.5178 56.9832 43.8967 54.7653 44.2068Z" fill="#B25E47"/>
<path d="M51.7199 39.4249C51.628 39.7385 51.0644 39.8453 50.4627 39.6649C49.8609 39.4845 49.4447 39.0833 49.5366 38.7697C49.6286 38.4561 50.1921 38.351 50.7939 38.5315C51.3956 38.7119 51.8118 39.1131 51.7199 39.4249Z" fill="#A0503D"/>
<path d="M55.266 38.996C55.0181 39.1712 54.7735 39.2272 54.614 39.1151C54.373 38.9504 54.4077 38.4704 54.6747 37.9922C54.8863 38.325 55.0857 38.6614 55.266 38.996Z" fill="#A0503D"/>
<path d="M49.403 39.6892C49.2932 39.6765 49.1821 39.6807 49.0735 39.7014C48.9321 39.7294 48.7987 39.7893 48.6834 39.8766C47.8822 37.4976 49.9943 36.2871 49.9943 36.2871C49.1897 37.4696 49.3146 39.0655 49.403 39.6892Z" fill="white"/>
<path d="M53.522 37.9323C53.5216 37.9786 53.5349 38.024 53.5601 38.0628C53.5852 38.1015 53.6212 38.1319 53.6634 38.15C53.7057 38.1682 53.7523 38.1733 53.7973 38.1647C53.8424 38.1561 53.884 38.1342 53.9168 38.1018C53.9496 38.0694 53.9722 38.0279 53.9817 37.9826C53.9912 37.9372 53.9872 37.8901 53.9702 37.847C53.9532 37.804 53.9239 37.7669 53.8861 37.7407C53.8483 37.7144 53.8037 37.7 53.7578 37.6993C53.7271 37.6986 53.6965 37.7041 53.668 37.7155C53.6394 37.7269 53.6133 37.7439 53.5914 37.7656C53.5694 37.7873 53.5519 37.8133 53.54 37.8419C53.5281 37.8705 53.522 37.9012 53.522 37.9323Z" fill="#683F1D"/>
<path d="M52.0098 38.4281C52.0098 38.4745 52.0234 38.5199 52.0489 38.5585C52.0745 38.5971 52.1107 38.6272 52.1532 38.645C52.1957 38.6627 52.2424 38.6674 52.2875 38.6583C52.3325 38.6493 52.3739 38.6269 52.4064 38.5941C52.4389 38.5613 52.4611 38.5194 52.47 38.4739C52.479 38.4284 52.4744 38.3812 52.4568 38.3383C52.4392 38.2954 52.4094 38.2587 52.3712 38.2329C52.333 38.2071 52.2881 38.1934 52.2421 38.1934C52.2116 38.1934 52.1814 38.1994 52.1532 38.2112C52.125 38.223 52.0994 38.2403 52.0778 38.2621C52.0562 38.2839 52.0391 38.3098 52.0275 38.3383C52.0158 38.3667 52.0098 38.3973 52.0098 38.4281Z" fill="#683F1D"/>
<path d="M53.5566 35.983C53.5139 36.0766 53.446 36.1561 53.3606 36.2125C53.1438 36.3509 52.8698 36.2808 52.8178 36.0373C52.8139 36.1461 52.7788 36.2515 52.7167 36.3405C52.6547 36.4295 52.5684 36.4985 52.4683 36.5389C52.3682 36.5793 52.2587 36.5896 52.1529 36.5683C52.0472 36.5471 51.9499 36.4953 51.8727 36.4192C51.8557 36.5398 51.8043 36.6528 51.7248 36.7445C51.6454 36.8361 51.5413 36.9025 51.4252 36.9355C51.3092 36.9685 51.1861 36.9668 51.071 36.9305C50.9559 36.8942 50.8537 36.8249 50.7768 36.731C50.9502 37.3739 50.4889 37.5421 50.071 37.5649C50.4594 37.7979 50.3294 38.4618 49.9912 38.616C50.4005 38.5039 50.6849 39.2887 50.3381 39.3991C50.3381 39.3991 50.567 39.3588 50.7768 39.8948C51.0161 40.5115 50.4803 40.536 50.4005 40.3958C50.2858 40.1504 50.0952 39.9493 49.8575 39.8229C49.6197 39.6965 49.3478 39.6517 49.0826 39.6951C48.9682 39.2121 48.9453 38.7117 49.0149 38.2201C49.1232 37.4804 49.47 36.7975 50.0016 36.2773C49.6271 35.6782 50.3329 34.8951 50.9224 35.3471C50.8461 34.8023 51.7756 34.4572 52.1277 35.1088C52.3305 34.5237 53.1924 34.8811 53.0953 35.3138C53.3762 35.1596 53.7577 35.5626 53.5566 35.983Z" fill="#604730"/>
<path d="M52.6943 37.6992C53.2649 38.9343 54.1302 38.2581 54.3487 39.19" stroke="#934735" stroke-width="0.130058" stroke-linecap="round" stroke-linejoin="round"/>
<path d="M52.2124 39.7656C53.2008 40.0477 53.891 39.8637 54.054 39.7656C54.054 39.7656 54.1511 40.652 53.2667 40.5802C53.0283 40.5746 52.7977 40.4927 52.6083 40.3463C52.4188 40.2 52.2802 39.9966 52.2124 39.7656Z" fill="white" stroke="#934735" stroke-width="0.130058" stroke-linecap="round" stroke-linejoin="round"/>
<path d="M48.8828 40.7811C49.0059 40.1521 49.977 40.1592 50.1574 41.0596" stroke="#934735" stroke-width="0.130058" stroke-linecap="round" stroke-linejoin="round"/>
<path d="M49.6651 41.3646C49.1223 41.2227 49.3789 40.3923 49.972 40.6306" stroke="#934735" stroke-width="0.130058" stroke-linecap="round" stroke-linejoin="round"/>
<path d="M51.198 37.8706C51.1547 38.1632 52.2385 37.5308 52.0148 37.1699C51.7911 36.809 51.2379 37.5868 51.198 37.8706Z" fill="#604730"/>
<path d="M53.9571 36.7969C54.1825 36.9861 52.9565 37.2506 52.8906 36.8354C52.8247 36.4202 53.7386 36.6129 53.9571 36.7969Z" fill="#604730"/>
<path d="M43.3839 62.2135C42.5013 62.0363 41.6098 61.9077 40.7134 61.8281" stroke="#934735" stroke-width="0.130058" stroke-linecap="round" stroke-linejoin="round"/>
<path d="M40.7136 61.8274C37.5298 61.5436 35.1887 64.2309 36.609 66.291C38.4055 68.896 49.9061 68.2303 51.087 68.2005C51.8361 68.183 51.7806 68.7401 52.9269 68.8487C53.6205 68.917 54.6818 68.9205 54.9055 68.8067C55.0736 68.6926 55.2093 68.5362 55.2991 68.3529C55.2991 68.3529 55.9546 68.6175 56.2165 67.8607C56.2165 67.8607 56.8841 68.0131 56.9933 67.0653C56.9933 67.0653 57.3974 67.5734 57.7702 67.3877C58.1968 67.1757 58.2575 66.8621 57.9575 66.461C57.6575 66.0598 56.4228 64.6426 56.0118 64.4937C55.6009 64.3448 52.5142 64.8966 51.987 64.7775C49.339 64.1801 45.7147 62.2723 40.7136 61.8274Z" fill="#B25E47"/>
<path d="M54.186 68.8947C54.429 68.9037 54.6718 68.8742 54.9057 68.8071C55.0738 68.6931 55.2095 68.5367 55.2993 68.3534C55.2993 68.3534 55.9548 68.6179 56.2167 67.8611C56.2167 67.8611 56.8843 68.0136 56.9935 67.0658C56.9935 67.0658 57.3976 67.5739 57.7704 67.3882C58.197 67.1762 58.2577 66.8626 57.9577 66.4614C57.6577 66.0603 56.423 64.643 56.012 64.4941" stroke="#934735" stroke-width="0.130058" stroke-linecap="round" stroke-linejoin="round"/>
<path d="M57.0786 67.1597L56.1387 66.1191" stroke="#934735" stroke-width="0.130058" stroke-linecap="round" stroke-linejoin="round"/>
<path d="M56.2164 67.8611L55.2314 67.2305" stroke="#934735" stroke-width="0.130058" stroke-linecap="round" stroke-linejoin="round"/>
<path d="M55.2993 68.353L54.6265 68.1445" stroke="#934735" stroke-width="0.130058" stroke-linecap="round" stroke-linejoin="round"/>
<path d="M37.8187 31.2539L37.1112 31.3274L36.2754 31.4185L36.8424 30.8194L37.3661 30.2676L37.8187 31.2539Z" fill="white"/>
<path d="M35.0531 52.5798C37.2484 53.9813 39.2479 52.4327 39.7993 49.6122C40.6126 45.4481 41.3115 34.9284 41.3115 34.9284C41.3115 34.9284 42.4265 32.4899 42.782 31.6087C43.1375 30.7275 43.0802 29.9445 42.5635 29.7185C42.5635 29.7185 42.0432 28.0893 41.2421 28.0385C41.0881 27.9554 40.9274 27.8857 40.7617 27.83C40.3612 27.7477 39.6242 28.1208 39.4299 28.3275C39.2357 28.5343 39.8808 28.7515 40.2484 28.6902C40.6161 28.6289 40.8849 29.5661 40.7201 29.962C40.5554 30.3579 39.8531 31.1532 39.6034 30.9465C39.3536 30.7398 39.2756 30.0251 39.3779 29.4662C39.4802 28.9074 39.4091 28.6271 39.0398 28.8443C38.6704 29.0616 37.9542 30.8729 38.0357 31.204C38.1172 31.5351 38.5889 32.9016 38.6201 33.1311C38.6513 33.3605 35.0479 45.3413 34.3369 47.4207C33.6259 49.5001 33.501 51.59 35.0531 52.5798Z" fill="#FEBD9D"/>
<path d="M42.5635 29.7188C42.6056 29.9978 42.6299 30.2792 42.6363 30.5614" stroke="#EF8A66" stroke-width="0.130058" stroke-linecap="round" stroke-linejoin="round"/>
<path d="M41.6187 29.2559C41.7225 29.6411 41.7807 30.0375 41.7921 30.4366" stroke="#EF8A66" stroke-width="0.130058" stroke-linecap="round" stroke-linejoin="round"/>
<path d="M37.3664 30.268L38.5438 29.5918C38.2733 30.1524 38.0236 30.8654 38.0236 31.1422L37.8137 31.2543C37.7201 31.2194 37.6343 31.1661 37.5611 31.0976C37.4879 31.0291 37.4288 30.9467 37.3873 30.855C37.3457 30.7634 37.3224 30.6644 37.3188 30.5636C37.3153 30.4629 37.3314 30.3624 37.3664 30.268Z" fill="#683F1D"/>
<path d="M37.1112 31.3264L36.2754 31.4175L36.8424 30.8184L37.1112 31.3264Z" fill="#683F1D"/>
<path d="M38.0357 31.2058C37.9542 30.8747 38.6721 29.0616 39.0397 28.8461C39.312 28.6849 39.423 28.7936 39.4212 29.0879C39.4182 29.2151 39.4036 29.3417 39.3779 29.4663C39.3436 29.6616 39.3285 29.86 39.3328 30.0584C39.3328 30.0846 39.3328 30.1109 39.3328 30.1355V30.2108C39.3328 30.2476 39.3328 30.2844 39.3449 30.3194L39.3605 30.4245C39.3769 30.6216 39.4595 30.807 39.5946 30.9501C39.8513 31.1585 40.5484 30.3702 40.7114 29.969C40.7456 29.8778 40.7626 29.781 40.7617 29.6835" stroke="#EF8A66" stroke-width="0.130058" stroke-linecap="round" stroke-linejoin="round"/>
<path d="M40.0922 28.7007C39.7246 28.7007 39.2598 28.508 39.4281 28.3275C39.624 28.1208 40.361 27.7477 40.7616 27.83C40.9271 27.8853 41.0878 27.9544 41.2419 28.0367" stroke="#EF8A66" stroke-width="0.130058" stroke-linecap="round" stroke-linejoin="round"/>
<path d="M42.2095 28.9062C42.3469 29.1659 42.4629 29.4366 42.5563 29.7156C42.8927 29.8627 43.0349 30.2411 42.9933 30.7404" stroke="#EF8A66" stroke-width="0.130058" stroke-linecap="round" stroke-linejoin="round"/>
<path d="M42.9556 28.5133L42.2099 28.9093L40.7706 29.6783L39.3643 30.4246C39.3127 30.107 39.3156 29.7829 39.3729 29.4663C39.3987 29.3418 39.4132 29.2151 39.4163 29.0879L40.0874 28.7008L41.2423 28.0368L42.3747 27.3887L42.9556 28.5133Z" fill="#683F1D"/>
<path d="M42.1646 27.3894C42.1004 27.6854 42.3085 28.5508 42.8478 28.7243L43.1946 28.507L42.527 27.1914L42.1646 27.3894Z" fill="white"/>
<path d="M43.1339 27.6801C43.3351 28.0514 43.3785 28.4158 43.2328 28.4964C43.0871 28.577 42.8062 28.3422 42.6068 27.9709C42.4074 27.5995 42.3623 27.2351 42.5079 27.1545C42.6536 27.0739 42.9328 27.3087 43.1339 27.6801Z" fill="#683F1D"/>
<path d="M38.0357 31.2058C37.9542 30.8747 38.6721 29.0616 39.0397 28.8461C39.312 28.6849 39.423 28.7936 39.4212 29.0879C39.4182 29.2151 39.4036 29.3417 39.3779 29.4663C39.3436 29.6616 39.3285 29.86 39.3328 30.0584C39.3328 30.0846 39.3328 30.1109 39.3328 30.1355V30.2108C39.3328 30.2476 39.3328 30.2844 39.3449 30.3194L39.3605 30.4245C39.3769 30.6216 39.4595 30.807 39.5946 30.9501C39.8513 31.1585 40.5484 30.3702 40.7114 29.969C40.7456 29.8778 40.7626 29.781 40.7617 29.6835" stroke="#EF8A66" stroke-width="0.130058" stroke-linecap="round" stroke-linejoin="round"/>
<path d="M18.4542 49.3379C17.9461 51.6153 14.431 50.8865 14.2333 49.7198C14.0357 48.5531 14.3547 48.264 14.6253 46.1268C14.8472 44.375 17.7917 44.3417 18.3137 45.5172C18.3978 45.7069 18.4173 45.9194 18.3692 46.1216C18.2595 46.7182 18.2566 47.33 18.3605 47.9277C18.4351 48.4883 18.5357 48.9648 18.4542 49.3379Z" fill="#FEBD9D"/>
<path d="M18.3689 46.122C18.2593 46.7186 18.2563 47.3304 18.3603 47.9281C16.8585 47.4901 16.5967 45.7874 16.5967 45.7874L18.3134 45.5176C18.3975 45.7073 18.417 45.9198 18.3689 46.122Z" fill="#F4A789"/>
<path d="M9.43288 65.459L12.8144 66.7694C12.8144 66.7694 12.3444 70.718 12.308 70.6602C12.2716 70.6023 6.6167 70.0067 6.6167 70.0067L9.43288 65.459Z" fill="#FEBD9D"/>
<path d="M4.5083 67.7563C4.97998 69.4784 6.16264 70.1055 7.29501 70.067C8.42738 70.0285 9.99501 69.4276 10.5777 67.6214C11.0233 66.2393 10.0574 64.582 10.0574 64.582L4.5083 67.7563Z" fill="white"/>
<path d="M10.9451 88.1329C10.9451 88.1329 11.3787 85.7434 10.4613 81.7895C10.0691 80.2454 9.894 78.6531 9.94108 77.0596C10.0469 74.6211 10.7943 71.897 12.6341 68.1919L24.4261 67.7031C24.9532 69.3604 25.4318 70.8833 25.8619 72.2719C27.1677 76.4763 28.0573 79.5069 28.6798 81.5566C29.5087 84.2824 30.9099 88.1347 30.9099 88.1347L10.9451 88.1329Z" fill="#7DE375"/>
<path d="M25.8691 72.2719C24.6257 75.9227 22.8569 77.5764 18.2823 75.8754C14.1691 74.3478 12.6604 73.2477 9.94824 77.0596C10.054 74.6211 10.8014 71.897 12.6413 68.1919L24.4332 67.7031C24.9604 69.3604 25.439 70.8833 25.8691 72.2719Z" fill="#AFFFA8"/>
<path d="M24.7713 61.5413C24.121 64.0902 24.7227 66.8581 24.9863 67.4642C25.2499 68.0703 25.0349 68.4855 24.6516 68.5573C24.2684 68.6292 12.9707 68.9708 12.4643 68.8972C11.958 68.8236 11.7932 68.4365 11.7932 68.0003C11.7932 67.5641 10.9036 64.4966 10.4701 63.2703C10.4701 63.2703 10.4233 66.6934 9.48514 67.713C8.54699 68.7325 6.36375 69.146 4.99208 68.3944C4.73629 68.2309 4.55442 67.9723 4.48572 67.6744C3.96549 66.0382 4.77011 62.3016 5.3285 59.63C5.55046 58.5579 5.87127 57.2178 6.28052 55.8794C7.10422 53.1833 8.28861 50.489 9.74873 50.0073C13.0054 48.9334 15.3759 49.3521 17.1031 49.1892C17.6406 49.1366 18.1609 49.0735 18.6638 49.014H18.6828C21.421 48.6636 23.5175 48.343 24.558 50.1211C24.719 50.4032 24.8459 50.7037 24.936 51.0163C25.5794 53.1606 25.3123 54.5743 25.1718 56.5538C25.1718 56.6327 25.1632 56.7115 25.158 56.7921C25.2919 58.3859 25.1612 59.991 24.7713 61.5413Z" fill="#C3CBF8"/>
<path d="M10.4702 63.2627C10.4702 63.2627 10.4234 66.6858 9.48526 67.7053C8.54711 68.7249 6.36387 69.1383 4.9922 68.3868C4.73641 68.2232 4.55454 67.9646 4.48584 67.6668C8.9026 68.9929 10.3731 64.2455 9.19567 63.3696C8.04942 62.5164 8.06676 60.2286 8.76734 59.0391C9.23382 60.4037 10.1113 62.1415 10.4702 63.2627Z" fill="#A7AAF0"/>
<path d="M24.556 50.1029C23.3057 51.0664 22.2583 52.2997 21.8369 53.8991C21.5525 54.9747 21.0913 55.8139 20.4687 56.4095C18.7814 58.0317 15.9063 57.86 12.1866 55.7455C9.61149 54.2845 7.85137 54.5946 6.28027 55.8664C7.10397 53.1704 8.28837 50.4761 9.74848 49.9943C13.0051 48.9204 15.3756 49.3391 17.1028 49.1762C17.6404 49.1236 18.1606 49.0606 18.6635 49.001H18.6826C21.419 48.6577 23.5155 48.3318 24.556 50.1029Z" fill="#D0E5F7"/>
<path d="M8.46875 57.8242C8.51987 58.2406 8.62 58.6493 8.76702 59.0417C9.23349 60.4047 10.1109 62.1425 10.4699 63.2636" stroke="#83ADDF" stroke-width="0.130058" stroke-linecap="round" stroke-linejoin="round"/>
<path d="M37.0296 53.204C36.3134 53.6858 32.2642 54.8279 29.0752 55.7529C27.7983 56.1289 26.4918 56.3932 25.17 56.543C24.0038 56.6795 22.8271 56.7012 21.6567 56.6078C21.2539 56.5739 20.8544 56.5077 20.4619 56.4098C15.4868 55.1941 16.2793 49.4358 18.655 48.9979H18.6741C22.0637 48.3945 25.4822 47.9706 28.9157 47.7278C30.4035 47.635 31.9226 47.5929 33.3879 47.6314C39.0862 47.7874 37.7457 52.731 37.0296 53.204Z" fill="#C3CBF8"/>
<path d="M37.0296 53.2051C36.3134 53.6868 32.2643 54.829 29.0752 55.754C27.7983 56.1299 26.4918 56.3943 25.17 56.5441C24.0038 56.6806 22.8272 56.7023 21.6567 56.6089" stroke="#83ADDF" stroke-width="0.130058" stroke-linecap="round" stroke-linejoin="round"/>
<path d="M28.9225 47.7324C27.6133 48.2807 25.9572 49.027 24.556 50.1096C23.3058 51.0732 22.2584 52.3064 21.837 53.9059C21.5526 54.9815 21.0913 55.8206 20.4688 56.4162C15.4936 55.2005 16.2861 49.4422 18.6618 49.0042H18.6809C22.0705 48.4003 25.489 47.9758 28.9225 47.7324Z" fill="#D0E5F7"/>
<path d="M32.8608 47.6247C33.7383 47.2848 34.6938 47.3531 35.9146 47.9418C37.3435 48.632 38.5817 50.4066 37.9782 52.8469C37.8793 53.241 36.3603 54.0609 36.1088 53.8804C35.8574 53.7 37.8481 48.7021 32.8608 47.6247Z" fill="white"/>
<path d="M15.0863 46.3244C18.0984 47.0444 19.6193 46.7343 20.0077 45.1314C20.3961 43.5285 18.7782 41.0917 18.7782 41.0917L18.9065 40.2158C18.5473 40.0485 18.1966 39.8632 17.8557 39.6604C17.6927 39.529 17.162 38.1714 16.673 38.04C16.184 37.9086 12.7557 39.692 13.7753 42.635C14.795 45.5781 15.0863 46.3244 15.0863 46.3244Z" fill="#FEBD9D"/>
<path d="M18.0102 41.9286C17.9062 42.2614 17.3634 42.3876 16.7964 42.2089C16.2293 42.0302 15.8565 41.6133 15.9588 41.2787C16.0611 40.9441 16.6056 40.8179 17.1727 40.9984C17.7397 41.1788 18.1143 41.594 18.0102 41.9286Z" fill="#F4AF90"/>
<path d="M18.7731 41.0914L18.9015 40.2155C18.5422 40.0482 18.1915 39.8629 17.8506 39.6602" stroke="#EF8A66" stroke-width="0.130058" stroke-linecap="round" stroke-linejoin="round"/>
<path d="M16.3089 52.481C14.8921 52.8313 14.5418 51.3826 14.5418 51.3826C13.399 52.5791 12.0482 52.2357 11.736 51.6033C11.736 51.6033 10.5725 52.0886 9.64124 51.3826C8.36147 50.4138 9.19558 48.9721 9.19558 48.9721C7.85338 48.6217 8.09962 47.2675 8.86956 46.6947L8.98401 46.6141C9.78517 46.0886 11.2245 45.7382 10.6956 44.6871C10.1441 43.5677 9.69153 42.0261 11.1152 41.1642C11.1152 41.1642 11.1881 39.5017 12.2112 38.9569C13.2343 38.4121 13.3019 38.1966 13.3245 37.8883C13.4025 36.7531 14.4638 35.681 15.6673 36.5166C15.7054 36.5429 15.7453 36.5709 15.7834 36.6007C17.0719 36.471 17.4118 37.6956 17.195 38.2859C17.6563 39.8135 16.5568 40.9592 16.869 41.4935C17.2262 42.1032 16.954 42.8319 16.954 42.8319C16.4216 41.9788 15.7661 41.709 15.3152 42.4395C14.9493 43.0351 15.2476 43.8147 16.432 44.5575C17.6996 45.3528 17.0996 46.3741 16.8222 47.1432C16.6603 47.5934 16.6059 48.0759 16.6634 48.5514C16.721 49.0269 16.8889 49.4819 17.1534 49.8795C17.7655 50.7607 17.7256 52.1376 16.3089 52.481Z" fill="#7F542D"/>
<path d="M16.3089 52.4801C14.8921 52.8305 14.5418 51.3818 14.5418 51.3818C13.399 52.5782 12.0482 52.2349 11.736 51.6025C11.736 51.6025 10.5725 52.0877 9.64124 51.3818C8.36147 50.413 9.19558 48.9712 9.19558 48.9712C7.85338 48.6209 8.09962 47.2667 8.86956 46.6939L8.98401 46.6133C9.52332 48.1426 10.5048 48.9695 11.5054 48.7312C12.8355 48.4194 13.5863 47.6801 14.8314 48.4545C16.0765 49.2288 16.4493 45.6165 14.6251 45.0717C12.8008 44.5269 12.4505 41.4279 14.0285 41.0425C15.2094 40.7622 16.2707 38.3499 15.6673 36.5C15.7054 36.5263 15.7453 36.5543 15.7834 36.5841C17.0719 36.4545 17.4118 37.679 17.195 38.2693C17.6563 39.7969 16.5568 40.9426 16.869 41.4769C17.2262 42.0866 16.954 42.8153 16.954 42.8153C16.4216 41.9622 15.7661 41.6924 15.3152 42.4229C14.9493 43.0185 15.2476 43.7981 16.432 44.5409C17.6996 45.3362 17.0996 46.3575 16.8222 47.1266C16.6603 47.5768 16.6059 48.0593 16.6634 48.5348C16.721 49.0103 16.8889 49.4653 17.1534 49.8629C17.7655 50.7599 17.7256 52.1368 16.3089 52.4801Z" fill="#704725"/>
<path d="M17.4605 40.5142C17.4605 40.5603 17.474 40.6054 17.4993 40.6437C17.5247 40.682 17.5607 40.7119 17.6028 40.7295C17.645 40.7471 17.6913 40.7518 17.7361 40.7428C17.7808 40.7338 17.8219 40.7116 17.8542 40.679C17.8864 40.6464 17.9084 40.6049 17.9173 40.5597C17.9262 40.5145 17.9216 40.4677 17.9042 40.4251C17.8867 40.3825 17.8572 40.3461 17.8192 40.3205C17.7813 40.2949 17.7367 40.2813 17.6911 40.2813C17.6607 40.281 17.6306 40.2869 17.6026 40.2985C17.5745 40.3101 17.549 40.3273 17.5275 40.349C17.506 40.3707 17.4891 40.3964 17.4775 40.4248C17.466 40.4532 17.4602 40.4836 17.4605 40.5142Z" fill="#683F1D"/>
<path d="M9.19043 48.9731C9.84766 47.6575 10.4459 47.696 11.0043 47.2616C11.5627 46.8271 11.8072 45.9232 11.6979 45.5098" stroke="#A56F42" stroke-width="0.130058" stroke-linecap="round" stroke-linejoin="round"/>
<path d="M11.7362 51.6035C11.5588 51.3125 11.4798 50.9712 11.5111 50.6309C11.5424 50.2906 11.6822 49.9698 11.9096 49.7168" stroke="#A56F42" stroke-width="0.130058" stroke-linecap="round" stroke-linejoin="round"/>
<path d="M14.542 51.3822C14.4572 51.1597 14.4197 50.9216 14.432 50.6835C14.4442 50.4453 14.5059 50.2125 14.6131 50" stroke="#A56F42" stroke-width="0.130058" stroke-linecap="round" stroke-linejoin="round"/>
<path d="M13.4683 39.0369C14.2382 38.8618 14.3128 38.3064 14.5434 37.8492C14.774 37.392 15.1313 36.6842 15.7833 36.5879" stroke="#A56F42" stroke-width="0.130058" stroke-linecap="round" stroke-linejoin="round"/>
<path d="M17.195 38.2731C16.9609 37.7475 16.2187 37.1186 15.5303 37.7475" stroke="#A56F42" stroke-width="0.130058" stroke-linecap="round" stroke-linejoin="round"/>
<path d="M15.8582 43.4125C15.8426 42.7538 16.4859 42.5997 16.9854 43.1024" stroke="#EF8A66" stroke-width="0.130058" stroke-linecap="round" stroke-linejoin="round"/>
<path d="M16.7231 43.6986C16.2202 43.6986 16.2029 42.9365 16.8427 42.9803" stroke="#EF8A66" stroke-width="0.130058" stroke-linecap="round" stroke-linejoin="round"/>
<path d="M18.2822 42.0762C18.3749 42.1949 18.4992 42.2845 18.6404 42.3345C18.7817 42.3844 18.9342 42.3927 19.0799 42.3582" stroke="#EF8A66" stroke-width="0.130058" stroke-linecap="round" stroke-linejoin="round"/>
<path d="M15.7798 44.0488C16.1613 44.3589 16.8497 44.3151 16.8497 44.3151" stroke="#EF8A66" stroke-width="0.130058" stroke-linecap="round" stroke-linejoin="round"/>
<path d="M17.261 44.6872C17.5311 44.6872 17.75 44.4661 17.75 44.1932C17.75 43.9204 17.5311 43.6992 17.261 43.6992C16.9909 43.6992 16.772 43.9204 16.772 44.1932C16.772 44.4661 16.9909 44.6872 17.261 44.6872Z" fill="white"/>
<path d="M16.8896 40.2918C17.1289 40.4495 17.7046 39.3318 17.2538 39.0252C16.8029 38.7187 16.567 40.0798 16.8896 40.2918Z" fill="#7F542D"/>
<path d="M114.002 87.2422H6.4577C5.51052 87.2422 4.74268 88.0179 4.74268 88.9747V89.2463C4.74268 90.2031 5.51052 90.9788 6.4577 90.9788H114.002C114.949 90.9788 115.717 90.2031 115.717 89.2463V88.9747C115.717 88.0179 114.949 87.2422 114.002 87.2422Z" fill="#EDEDED"/>
<path d="M8.06885 90.9786C10.9128 89.6051 15.1319 89.3021 18.3469 90.9786" stroke="#DDDDDD" stroke-width="0.130058" stroke-linecap="round" stroke-linejoin="round"/>
<path d="M7.0874 87.2402C9.89145 88.8169 11.7556 88.689 15.2151 88.6417C17.792 88.6084 20.8943 89.9345 22.9597 90.9769" stroke="#DDDDDD" stroke-width="0.130058" stroke-linecap="round" stroke-linejoin="round"/>
<path d="M20.3965 87.2402C22.4306 89.5509 23.8421 89.8399 24.5254 89.2443C25.2502 88.6119 25.9959 88.4402 26.7659 89.1077C27.6572 89.882 28.8971 88.3141 29.5942 87.2402" stroke="#DDDDDD" stroke-width="0.130058" stroke-linecap="round" stroke-linejoin="round"/>
<path d="M28.3281 90.9795C29.1501 90.2139 30.6154 89.2679 32.8975 89.1103C35.6027 88.9351 39.0397 90.1929 40.8744 90.9795" stroke="#DDDDDD" stroke-width="0.130058" stroke-linecap="round" stroke-linejoin="round"/>
<path d="M37.3232 87.2402C40.4967 88.922 43.9649 89.9065 46.7672 89.1077C49.5019 88.3316 56.0325 89.2986 58.4082 87.2402" stroke="#DDDDDD" stroke-width="0.130058" stroke-linecap="round" stroke-linejoin="round"/>
<path d="M49.3594 90.978C51.3917 89.8096 54.5617 89.0948 57.0276 90.978" stroke="#DDDDDD" stroke-width="0.130058" stroke-linecap="round" stroke-linejoin="round"/>
<path d="M60.52 90.9788C64.2986 88.0112 71.842 87.4752 78.142 89.0939C85.5986 91.0121 88.942 88.7978 90.2963 87.2422" stroke="#DDDDDD" stroke-width="0.130058" stroke-linecap="round" stroke-linejoin="round"/>
<path d="M67.3145 90.9789C70.0509 89.7368 73.7306 89.4811 77.6168 90.9789" stroke="#DDDDDD" stroke-width="0.130058" stroke-linecap="round" stroke-linejoin="round"/>
<path d="M91.167 90.9786C95.7485 88.8239 99.4144 89.0744 102.813 90.9786" stroke="#DDDDDD" stroke-width="0.130058" stroke-linecap="round" stroke-linejoin="round"/>
<path d="M97.6299 87.2402C105.178 89.8014 111.425 91.7845 115.54 88.3088" stroke="#DDDDDD" stroke-width="0.130058" stroke-linecap="round" stroke-linejoin="round"/>
<path d="M103.651 87.2402C107.482 89.5176 111.956 89.3424 114.709 87.4452" stroke="#DDDDDD" stroke-width="0.130058" stroke-linecap="round" stroke-linejoin="round"/>
</svg>
