<svg width="32" height="32" viewBox="0 0 32 32" fill="none" xmlns="http://www.w3.org/2000/svg">
<circle cx="16" cy="16" r="12" fill="white"/>
<path d="M16 3C12.5522 3 9.24558 4.36964 6.80761 6.80761C4.36964 9.24558 3 12.5522 3 16C3 19.4478 4.36964 22.7544 6.80761 25.1924C9.24558 27.6304 12.5522 29 16 29C19.4478 29 22.7544 27.6304 25.1924 25.1924C27.6304 22.7544 29 19.4478 29 16C29 12.5522 27.6304 9.24558 25.1924 6.80761C22.7544 4.36964 19.4478 3 16 3ZM19.4266 26.5983H19.3258C19.2502 26.6025 19.1744 26.5913 19.1032 26.5652C19.0321 26.5391 18.967 26.4987 18.912 26.4466C18.8612 26.3929 18.8216 26.3296 18.7956 26.2604C18.7695 26.1912 18.7575 26.1175 18.7603 26.0436V24.5204C18.7668 24.0145 18.7712 23.5021 18.7712 22.9864C18.7694 22.6093 18.7143 22.2344 18.6076 21.8727C18.5065 21.5072 18.3027 21.1782 18.0204 20.9248C18.7755 20.8519 19.5178 20.6804 20.2283 20.4146C20.8276 20.1867 21.3697 19.8302 21.8164 19.3703C22.2573 18.9077 22.5856 18.3487 22.7752 17.7388C23.0058 16.9918 23.1155 16.2128 23.1002 15.4313C23.1044 14.8855 23.0089 14.3437 22.8185 13.8322C22.625 13.3168 22.3324 12.8442 21.9573 12.4413C22.0382 12.238 22.0971 12.0266 22.1327 11.8108C22.1685 11.5941 22.1869 11.3752 22.1869 11.1564C22.1869 10.8748 22.1544 10.5931 22.0894 10.319C22.0304 10.0379 21.9503 9.76158 21.85 9.49242C21.8117 9.47748 21.7709 9.47012 21.7297 9.47075H21.6106C21.3614 9.47292 21.1166 9.51408 20.8804 9.591C20.6203 9.66693 20.3658 9.76106 20.1188 9.87267C19.8732 9.98275 19.6342 10.1068 19.4028 10.2442C19.1698 10.3818 18.964 10.514 18.782 10.6364C16.9595 10.1285 15.0329 10.1285 13.2104 10.6364C13.0072 10.5005 12.8005 10.3698 12.5907 10.2442C12.3561 10.1057 12.1129 9.98192 11.8628 9.87375C11.6165 9.75844 11.361 9.66386 11.099 9.591C10.8675 9.51452 10.6256 9.47397 10.3818 9.47075H10.2627C10.2219 9.47017 10.1814 9.47753 10.1435 9.49242C10.0417 9.76195 9.95848 10.0381 9.89433 10.319C9.83583 10.5942 9.80767 10.8748 9.80658 11.1564C9.80658 11.3752 9.825 11.5941 9.86183 11.8108C9.89758 12.0263 9.955 12.2376 10.0352 12.4413C9.66097 12.8448 9.36948 13.3177 9.17717 13.8333C8.98572 14.3446 8.88917 14.8864 8.89225 15.4323C8.8771 16.2097 8.98384 16.9847 9.20858 17.729C9.40467 18.3389 9.73183 18.899 10.1663 19.3713C10.6158 19.8285 11.1575 20.1838 11.7544 20.4157C12.4618 20.6865 13.2028 20.8598 13.9568 20.9313C13.7463 21.1221 13.5793 21.356 13.4672 21.6171C13.3605 21.8753 13.2877 22.1462 13.2505 22.4231C12.853 22.6134 12.4183 22.7133 11.9776 22.7156C11.5683 22.732 11.1644 22.6182 10.8238 22.3906C10.4971 22.1485 10.2205 21.8453 10.0092 21.4979C9.9146 21.352 9.80883 21.2136 9.69283 21.0841C9.57046 20.9478 9.43553 20.8234 9.28983 20.7125C9.14623 20.6052 8.98881 20.5177 8.82183 20.4525C8.65755 20.3805 8.48013 20.3432 8.30075 20.3431C8.25742 20.3442 8.21408 20.3485 8.17075 20.3539C8.11157 20.3537 8.05261 20.361 7.99525 20.3756C7.94484 20.3888 7.89716 20.4108 7.85442 20.4406C7.83498 20.4513 7.81873 20.467 7.80731 20.486C7.7959 20.505 7.78972 20.5267 7.78942 20.5489C7.79397 20.6011 7.80991 20.6516 7.83611 20.6969C7.86232 20.7422 7.89815 20.7812 7.94108 20.8111C8.04183 20.8913 8.12525 20.953 8.19242 20.9963L8.22492 21.0191C8.369 21.1307 8.50767 21.2509 8.63875 21.3798C8.76008 21.486 8.8695 21.6063 8.96375 21.7373C9.06125 21.8663 9.14575 22.0038 9.214 22.1501C9.29308 22.2952 9.3765 22.4621 9.46425 22.6517C9.66792 23.1652 10.0298 23.5996 10.4978 23.8921C10.9885 24.1553 11.5388 24.2864 12.0968 24.2723C12.2853 24.2723 12.4748 24.2615 12.6622 24.2398C12.8486 24.2095 13.0338 24.1781 13.2202 24.1413V26.0295C13.2235 26.1056 13.2108 26.1816 13.1828 26.2525C13.1548 26.3234 13.1122 26.3875 13.0577 26.4408C13.0032 26.4941 12.938 26.5353 12.8665 26.5616C12.795 26.588 12.7188 26.599 12.6428 26.5939H12.5756C10.0493 25.7778 7.89739 24.0865 6.50736 21.8247C5.11734 19.5628 4.58055 16.879 4.99364 14.2565C5.40673 11.634 6.74256 9.24509 8.76059 7.52006C10.7786 5.79502 13.3462 4.84716 16.0011 4.84716C18.6559 4.84716 21.2235 5.79502 23.2416 7.52006C25.2596 9.24509 26.5954 11.634 27.0085 14.2565C27.4216 16.879 26.8848 19.5628 25.4948 21.8247C24.1048 24.0865 21.9529 25.7778 19.4266 26.5939V26.5983Z" fill="#111111"/>
</svg>
