<svg width="33" height="32" viewBox="0 0 33 32" fill="none" xmlns="http://www.w3.org/2000/svg">
<path d="M27.8078 16.2611C27.8078 15.4884 27.7452 14.7116 27.6115 13.9514H16.8901V18.3285H23.0298C22.775 19.7402 21.9564 20.989 20.7577 21.7826V24.6227H24.4206C26.5715 22.643 27.8078 19.7193 27.8078 16.2611Z" fill="#4285F4"/>
<path d="M16.89 27.3667C19.9556 27.3667 22.5409 26.3601 24.4246 24.6226L20.7617 21.7825C19.7426 22.4758 18.427 22.8685 16.8941 22.8685C13.9287 22.8685 11.4144 20.8678 10.5123 18.1781H6.73242V21.1059C8.66202 24.9442 12.5922 27.3667 16.89 27.3667Z" fill="#34A853"/>
<path d="M10.5082 18.1782C10.0321 16.7665 10.0321 15.2378 10.5082 13.8261V10.8983H6.73257C5.12039 14.1101 5.12039 17.8941 6.73257 21.106L10.5082 18.1782Z" fill="#FBBC04"/>
<path d="M16.89 9.13155C18.5105 9.10649 20.0767 9.71628 21.2503 10.8356L24.4956 7.59038C22.4407 5.66078 19.7133 4.59992 16.89 4.63333C12.5922 4.63333 8.66202 7.05577 6.73242 10.8983L10.5081 13.8261C11.4061 11.1322 13.9246 9.13155 16.89 9.13155Z" fill="#EA4335"/>
</svg>
