<svg width="20" height="20" viewBox="0 0 20 20" fill="none" xmlns="http://www.w3.org/2000/svg">
<path d="M6.9107 6.42276C6.58486 6.09693 6.58486 5.57021 6.9107 5.24437L9.4107 2.74437C9.73653 2.41854 10.2631 2.41854 10.589 2.74437L13.089 5.24437C13.4148 5.57021 13.4148 6.09693 13.089 6.42276C12.9265 6.58526 12.7132 6.6669 12.4998 6.6669C12.2865 6.6669 12.0732 6.58526 11.9107 6.42276L10.8332 5.34518V9.1669C10.8332 9.62773 10.4598 10.0002 9.99984 10.0002C9.53984 10.0002 9.1665 9.62773 9.1665 9.1669V5.34518L8.08898 6.42276C7.76315 6.74859 7.23653 6.74859 6.9107 6.42276ZM14.1665 8.33357C13.7065 8.33357 13.3332 8.70607 13.3332 9.1669C13.3332 9.62773 13.7065 10.0002 14.1665 10.0002C15.5448 10.0002 16.6665 11.1219 16.6665 12.5002V13.3336C16.6665 14.7119 15.5448 15.8336 14.1665 15.8336H5.83317C4.45484 15.8336 3.33317 14.7119 3.33317 13.3336V12.5002C3.33317 11.1219 4.45484 10.0002 5.83317 10.0002C6.29317 10.0002 6.6665 9.62773 6.6665 9.1669C6.6665 8.70607 6.29317 8.33357 5.83317 8.33357C3.53567 8.33357 1.6665 10.2027 1.6665 12.5002V13.3336C1.6665 15.6311 3.53567 17.5002 5.83317 17.5002H14.1665C16.464 17.5002 18.3332 15.6311 18.3332 13.3336V12.5002C18.3332 10.2027 16.464 8.33357 14.1665 8.33357ZM14.9998 12.5002C14.9998 12.0402 14.6265 11.6669 14.1665 11.6669C13.7065 11.6669 13.3332 12.0402 13.3332 12.5002C13.3332 12.9602 13.7065 13.3336 14.1665 13.3336C14.6265 13.3336 14.9998 12.9602 14.9998 12.5002Z" fill="#7400FF"/>
</svg>
