<svg width="33" height="32" viewBox="0 0 33 32" fill="none" xmlns="http://www.w3.org/2000/svg">
<path d="M27.4148 3.0001H5.25103C4.74814 2.99498 4.26377 3.18957 3.90419 3.54116C3.54461 3.89275 3.33919 4.37263 3.33301 4.87549V27.1288C3.34031 27.6309 3.54622 28.1097 3.90568 28.4604C4.26514 28.811 4.74887 29.005 5.25103 28.9999H27.4148C27.9177 29.0039 28.4017 28.8086 28.7611 28.4568C29.1205 28.105 29.3261 27.6253 29.3328 27.1224V4.8691C29.3238 4.36771 29.1173 3.89012 28.7582 3.54014C28.399 3.19016 27.9162 2.99609 27.4148 3.0001Z" fill="#0076B2"/>
<path d="M7.18188 12.7457H11.0414V25.1638H7.18188V12.7457ZM9.11269 6.56543C9.55535 6.56543 9.98807 6.69672 10.3561 6.9427C10.7241 7.18867 11.0109 7.53828 11.1802 7.94728C11.3495 8.35629 11.3937 8.80633 11.3072 9.24045C11.2207 9.67458 11.0074 10.0733 10.6942 10.3862C10.3811 10.699 9.98214 10.912 9.54793 10.9981C9.11372 11.0842 8.66373 11.0396 8.25488 10.8699C7.84604 10.7002 7.49671 10.413 7.25108 10.0448C7.00546 9.67649 6.87458 9.24365 6.875 8.80099C6.87557 8.20788 7.11157 7.63927 7.53116 7.22008C7.95074 6.80089 8.51959 6.56543 9.11269 6.56543ZM13.4623 12.7457H17.162V14.4506H17.2131C17.7288 13.4746 18.9862 12.4452 20.8637 12.4452C24.7722 12.4367 25.4968 15.009 25.4968 18.3442V25.1638H21.6373V19.1221C21.6373 17.6835 21.6118 15.8316 19.6319 15.8316C17.6521 15.8316 17.3154 17.4001 17.3154 19.0283V25.1638H13.4623V12.7457Z" fill="white"/>
</svg>
