<svg width="52" height="52" viewBox="0 0 52 52" fill="none" xmlns="http://www.w3.org/2000/svg">
<g clip-path="url(#clip0_351_2674)">
<path fill-rule="evenodd" clip-rule="evenodd" d="M51.9858 26.8685C51.9952 26.5802 52 26.2906 52 26C52 11.6406 40.3594 0 26 0C12.3539 0 1.16323 10.5128 0.0850833 23.8813L14.2524 30.8075C14.8826 29.5012 16.2196 28.6 17.7671 28.6C19.1143 28.6 20.3021 29.2831 21.0027 30.322L32.1417 21.1323C32.0925 20.8847 32.0666 20.6288 32.0666 20.3668C32.0666 18.2129 33.8127 16.4668 35.9666 16.4668C38.1206 16.4668 39.8666 18.2129 39.8666 20.3668C39.8666 20.4615 39.8633 20.5554 39.8566 20.6485L51.9858 26.8685ZM21.5024 31.3752L32.5546 22.2571C33.22 23.4557 34.4986 24.2668 35.9666 24.2668C37.6194 24.2668 39.032 23.2387 39.5999 21.7872L51.9162 28.1032C50.8454 41.4791 39.6514 52 26 52C11.6406 52 0 40.3594 0 26C0 25.7006 0.00506151 25.4023 0.0151036 25.1054L13.9129 31.8998C13.8827 32.0955 13.8671 32.2959 13.8671 32.5C13.8671 34.6539 15.6131 36.4 17.7671 36.4C19.921 36.4 21.6671 34.6539 21.6671 32.5C21.6671 32.1089 21.6095 31.7313 21.5024 31.3752Z" fill="#7400FF"/>
<path d="M52 26C52 40.3594 40.3594 52 26 52C11.6406 52 0 40.3594 0 26C0 11.6406 11.6406 0 26 0C40.3594 0 52 11.6406 52 26Z" fill="#7400FF"/>
<path d="M8.5459 32.2469C7.37024 32.2469 6.48097 31.9078 5.87807 31.2295C5.29024 30.5362 4.99633 29.5414 4.99633 28.2452V17.0991C4.99633 16.7223 5.0943 16.4359 5.29024 16.24C5.48619 16.044 5.76503 15.9461 6.12677 15.9461C6.4885 15.9461 6.76735 16.044 6.96329 16.24C7.1743 16.4359 7.27981 16.7223 7.27981 17.0991V28.1095C7.27981 28.8632 7.43053 29.4284 7.73198 29.8052C8.0485 30.1669 8.50068 30.3478 9.0885 30.3478C9.22416 30.3478 9.34474 30.3478 9.45024 30.3478C9.55575 30.3327 9.66126 30.3177 9.76677 30.3026C9.94764 30.2875 10.0758 30.3403 10.1511 30.4608C10.2265 30.5664 10.2642 30.7924 10.2642 31.1391C10.2642 31.4556 10.1963 31.7043 10.0607 31.8852C9.92503 32.051 9.70648 32.1565 9.40503 32.2017C9.26937 32.2168 9.12619 32.2243 8.97546 32.2243C8.82474 32.2394 8.68155 32.2469 8.5459 32.2469ZM16.5896 32.2469C15.4743 32.2469 14.5096 32.0133 13.6957 31.5461C12.8969 31.0788 12.2714 30.4156 11.8192 29.5565C11.367 28.6974 11.141 27.6875 11.141 26.5269C11.141 25.6377 11.2691 24.8464 11.5253 24.153C11.7815 23.4597 12.1433 22.8643 12.6105 22.3669C13.0928 21.8545 13.6656 21.4701 14.3288 21.2139C15.007 20.9426 15.7607 20.8069 16.5896 20.8069C17.6899 20.8069 18.6395 21.0406 19.4383 21.5078C20.2523 21.9751 20.8853 22.6382 21.3375 23.4974C21.7896 24.3414 22.0157 25.3513 22.0157 26.5269C22.0157 27.4011 21.8876 28.1924 21.6314 28.9008C21.3752 29.6093 21.0059 30.2122 20.5236 30.7095C20.0563 31.2069 19.4836 31.5913 18.8053 31.8626C18.1421 32.1188 17.4036 32.2469 16.5896 32.2469ZM16.5896 30.4835C17.2076 30.4835 17.7502 30.3327 18.2175 30.0313C18.6847 29.7298 19.0465 29.2852 19.3027 28.6974C19.574 28.1095 19.7096 27.3861 19.7096 26.5269C19.7096 25.2307 19.4233 24.251 18.8505 23.5878C18.2778 22.9246 17.5241 22.593 16.5896 22.593C15.9566 22.593 15.4065 22.7437 14.9392 23.0452C14.472 23.3316 14.1027 23.7687 13.8314 24.3565C13.5752 24.9443 13.447 25.6678 13.447 26.5269C13.447 27.8081 13.7334 28.7878 14.3062 29.4661C14.8789 30.1443 15.6401 30.4835 16.5896 30.4835ZM29.5768 36.3165C28.7628 36.3165 27.9715 36.2336 27.2028 36.0678C26.4492 35.902 25.7634 35.6307 25.1454 35.2539C24.9194 35.1333 24.7686 34.9826 24.6933 34.8017C24.6179 34.6359 24.5953 34.4626 24.6254 34.2817C24.6707 34.1008 24.7536 33.9426 24.8741 33.8069C24.9947 33.6713 25.1379 33.5808 25.3037 33.5356C25.4846 33.4904 25.673 33.5206 25.8689 33.6261C26.5321 33.9878 27.1576 34.229 27.7454 34.3495C28.3483 34.4852 28.906 34.553 29.4185 34.553C30.4736 34.553 31.2649 34.2817 31.7924 33.7391C32.3199 33.2116 32.5837 32.4278 32.5837 31.3878V29.0817H32.7872C32.5611 29.9107 32.0863 30.5664 31.3628 31.0487C30.6394 31.531 29.8028 31.7722 28.8533 31.7722C27.8585 31.7722 26.9918 31.5461 26.2533 31.0939C25.5147 30.6266 24.942 29.9861 24.535 29.1722C24.1281 28.3432 23.9246 27.3785 23.9246 26.2782C23.9246 25.4493 24.0376 24.7032 24.2637 24.04C24.5049 23.3768 24.8365 22.804 25.2585 22.3217C25.6956 21.8394 26.2156 21.4701 26.8185 21.2139C27.4365 20.9426 28.1147 20.8069 28.8533 20.8069C29.8179 20.8069 30.6544 21.0481 31.3628 21.5304C32.0863 22.0127 32.5536 22.6684 32.7646 23.4974L32.5385 23.8817V22.0052C32.5385 21.6284 32.6365 21.342 32.8324 21.1461C33.0434 20.9501 33.3223 20.8522 33.6689 20.8522C34.0307 20.8522 34.3095 20.9501 34.5054 21.1461C34.7014 21.342 34.7994 21.6284 34.7994 22.0052V31.1165C34.7994 32.8348 34.3547 34.131 33.4654 35.0052C32.5762 35.8794 31.2799 36.3165 29.5768 36.3165ZM29.3959 29.9861C30.0591 29.9861 30.6243 29.8353 31.0915 29.5339C31.5588 29.2324 31.9205 28.8029 32.1768 28.2452C32.433 27.6875 32.5611 27.0319 32.5611 26.2782C32.5611 25.1478 32.2747 24.251 31.702 23.5878C31.1443 22.9246 30.3756 22.593 29.3959 22.593C28.7478 22.593 28.1901 22.7437 27.7228 23.0452C27.2556 23.3466 26.8863 23.7762 26.615 24.3339C26.3588 24.8765 26.2307 25.5246 26.2307 26.2782C26.2307 27.4237 26.517 28.3281 27.0898 28.9913C27.6626 29.6545 28.4312 29.9861 29.3959 29.9861ZM42.7972 32.2469C41.6818 32.2469 40.7172 32.0133 39.9033 31.5461C39.1044 31.0788 38.4789 30.4156 38.0268 29.5565C37.5746 28.6974 37.3485 27.6875 37.3485 26.5269C37.3485 25.6377 37.4766 24.8464 37.7328 24.153C37.9891 23.4597 38.3508 22.8643 38.8181 22.3669C39.3004 21.8545 39.8731 21.4701 40.5363 21.2139C41.2146 20.9426 41.9682 20.8069 42.7972 20.8069C43.8975 20.8069 44.847 21.0406 45.6459 21.5078C46.4598 21.9751 47.0928 22.6382 47.545 23.4974C47.9972 24.3414 48.2233 25.3513 48.2233 26.5269C48.2233 27.4011 48.0952 28.1924 47.8389 28.9008C47.5827 29.6093 47.2134 30.2122 46.7311 30.7095C46.2639 31.2069 45.6911 31.5913 45.0128 31.8626C44.3497 32.1188 43.6111 32.2469 42.7972 32.2469ZM42.7972 30.4835C43.4152 30.4835 43.9578 30.3327 44.425 30.0313C44.8923 29.7298 45.254 29.2852 45.5102 28.6974C45.7815 28.1095 45.9172 27.3861 45.9172 26.5269C45.9172 25.2307 45.6308 24.251 45.0581 23.5878C44.4853 22.9246 43.7317 22.593 42.7972 22.593C42.1641 22.593 41.614 22.7437 41.1468 23.0452C40.6795 23.3316 40.3102 23.7687 40.0389 24.3565C39.7827 24.9443 39.6546 25.6678 39.6546 26.5269C39.6546 27.8081 39.941 28.7878 40.5137 29.4661C41.0865 30.1443 41.8476 30.4835 42.7972 30.4835Z" fill="white"/>
</g>
<defs>
<clipPath id="clip0_351_2674">
<rect width="52" height="52" fill="white"/>
</clipPath>
</defs>
</svg>
