<svg width="92" height="92" viewBox="0 0 92 92" fill="none" xmlns="http://www.w3.org/2000/svg">
<g clip-path="url(#clip0_667_5808)">
<path fill-rule="evenodd" clip-rule="evenodd" d="M91.9748 47.5366C91.9916 47.0265 92 46.5142 92 46C92 20.5949 71.4051 0 46 0C21.8569 0 2.05802 18.5996 0.150532 42.2515L25.2158 54.5056C26.3308 52.1945 28.6962 50.5999 31.434 50.5999C33.8177 50.5999 35.9191 51.8086 37.1586 53.6466L56.8662 37.3879C56.779 36.9499 56.7333 36.4971 56.7333 36.0335C56.7333 32.2227 59.8225 29.1335 63.6333 29.1335C67.4441 29.1335 70.5333 32.2227 70.5333 36.0335C70.5333 36.2011 70.5273 36.3673 70.5156 36.5319L91.9748 47.5366ZM38.0427 55.51L57.5966 39.378C58.7739 41.4985 61.036 42.9335 63.6333 42.9335C66.5574 42.9335 69.0566 41.1146 70.0613 38.5466L91.8517 49.7211C89.9573 73.3861 70.1524 92 46 92C20.5949 92 0 71.4051 0 46C0 45.4702 0.00895498 44.9426 0.0267218 44.4172L24.6152 56.4382C24.5618 56.7843 24.534 57.1389 24.534 57.4999C24.534 61.3107 27.6233 64.3999 31.434 64.3999C35.2448 64.3999 38.334 61.3107 38.334 57.4999C38.334 56.8081 38.2322 56.1401 38.0427 55.51Z" fill="#7400FF"/>
<path d="M92 46C92 71.4051 71.4051 92 46 92C20.5949 92 0 71.4051 0 46C0 20.5949 20.5949 0 46 0C71.4051 0 92 20.5949 92 46Z" fill="#7400FF"/>
<path d="M6.08 56.18C5.62 56.2 5.26 56.08 5 55.82C4.74 55.56 4.61 55.23 4.61 54.83C4.61 54.53 4.71 54.26 4.91 54.02C5.09 53.78 5.36 53.65 5.72 53.63L6.65 53.57C7.61 53.49 8.34 53.17 8.84 52.61C9.34 52.03 9.59 51.23 9.59 50.21V36.2C9.59 35.68 9.72 35.29 9.98 35.03C10.24 34.77 10.62 34.64 11.12 34.64C11.62 34.64 12 34.77 12.26 35.03C12.54 35.29 12.68 35.68 12.68 36.2V50.21C12.68 51.41 12.46 52.44 12.02 53.3C11.6 54.14 10.98 54.8 10.16 55.28C9.34 55.76 8.32 56.04 7.1 56.12L6.08 56.18ZM23.6267 56.27C22.1467 56.27 20.8667 55.96 19.7867 55.34C18.7267 54.72 17.8967 53.84 17.2967 52.7C16.6967 51.56 16.3967 50.22 16.3967 48.68C16.3967 47.5 16.5667 46.45 16.9067 45.53C17.2467 44.61 17.7267 43.82 18.3467 43.16C18.9867 42.48 19.7467 41.97 20.6267 41.63C21.5267 41.27 22.5267 41.09 23.6267 41.09C25.0867 41.09 26.3467 41.4 27.4067 42.02C28.4867 42.64 29.3267 43.52 29.9267 44.66C30.5267 45.78 30.8267 47.12 30.8267 48.68C30.8267 49.84 30.6567 50.89 30.3167 51.83C29.9767 52.77 29.4867 53.57 28.8467 54.23C28.2267 54.89 27.4667 55.4 26.5667 55.76C25.6867 56.1 24.7067 56.27 23.6267 56.27ZM23.6267 53.93C24.4467 53.93 25.1667 53.73 25.7867 53.33C26.4067 52.93 26.8867 52.34 27.2267 51.56C27.5867 50.78 27.7667 49.82 27.7667 48.68C27.7667 46.96 27.3867 45.66 26.6267 44.78C25.8667 43.9 24.8667 43.46 23.6267 43.46C22.7867 43.46 22.0567 43.66 21.4367 44.06C20.8167 44.44 20.3267 45.02 19.9667 45.8C19.6267 46.58 19.4567 47.54 19.4567 48.68C19.4567 50.38 19.8367 51.68 20.5967 52.58C21.3567 53.48 22.3667 53.93 23.6267 53.93ZM42.0896 56.27C40.8096 56.27 39.6996 55.95 38.7596 55.31C37.8196 54.65 37.1896 53.78 36.8696 52.7L37.1996 52.16V54.68C37.1996 55.16 37.0696 55.54 36.8096 55.82C36.5496 56.08 36.1896 56.21 35.7296 56.21C35.2496 56.21 34.8796 56.08 34.6196 55.82C34.3596 55.54 34.2296 55.16 34.2296 54.68V36.17C34.2296 35.67 34.3596 35.29 34.6196 35.03C34.8796 34.77 35.2496 34.64 35.7296 34.64C36.2096 34.64 36.5796 34.77 36.8396 35.03C37.1196 35.29 37.2596 35.67 37.2596 36.17V44.57H36.8996C37.2196 43.51 37.8496 42.67 38.7896 42.05C39.7296 41.41 40.8296 41.09 42.0896 41.09C43.4096 41.09 44.5496 41.4 45.5096 42.02C46.4696 42.64 47.2096 43.51 47.7296 44.63C48.2696 45.75 48.5396 47.1 48.5396 48.68C48.5396 50.22 48.2696 51.57 47.7296 52.73C47.2096 53.87 46.4596 54.75 45.4796 55.37C44.5196 55.97 43.3896 56.27 42.0896 56.27ZM41.3396 53.93C42.1796 53.93 42.9096 53.73 43.5296 53.33C44.1496 52.93 44.6296 52.34 44.9696 51.56C45.3096 50.78 45.4796 49.82 45.4796 48.68C45.4796 46.96 45.0996 45.66 44.3396 44.78C43.5996 43.9 42.5996 43.46 41.3396 43.46C40.5196 43.46 39.7896 43.66 39.1496 44.06C38.5296 44.44 38.0496 45.02 37.7096 45.8C37.3696 46.58 37.1996 47.54 37.1996 48.68C37.1996 50.38 37.5796 51.68 38.3396 52.58C39.0996 53.48 40.0996 53.93 41.3396 53.93ZM62.1842 56.27C59.8842 56.27 57.9442 55.84 56.3642 54.98C54.7842 54.1 53.5842 52.85 52.7642 51.23C51.9642 49.61 51.5642 47.68 51.5642 45.44C51.5642 43.76 51.7942 42.26 52.2542 40.94C52.7342 39.6 53.4142 38.46 54.2942 37.52C55.1942 36.56 56.2842 35.83 57.5642 35.33C58.8642 34.83 60.3342 34.58 61.9742 34.58C63.1742 34.58 64.3542 34.74 65.5142 35.06C66.6742 35.36 67.7342 35.86 68.6942 36.56C68.9742 36.76 69.1542 36.99 69.2342 37.25C69.3142 37.51 69.3142 37.78 69.2342 38.06C69.1742 38.32 69.0442 38.55 68.8442 38.75C68.6642 38.95 68.4342 39.07 68.1542 39.11C67.8942 39.15 67.6042 39.07 67.2842 38.87C66.5042 38.33 65.6842 37.94 64.8242 37.7C63.9642 37.44 63.0142 37.31 61.9742 37.31C60.4142 37.31 59.0942 37.63 58.0142 38.27C56.9542 38.91 56.1542 39.84 55.6142 41.06C55.0742 42.26 54.8042 43.72 54.8042 45.44C54.8042 48.1 55.4342 50.12 56.6942 51.5C57.9542 52.88 59.8242 53.57 62.3042 53.57C63.2042 53.57 64.0842 53.49 64.9442 53.33C65.8242 53.15 66.6642 52.9 67.4642 52.58L66.8342 54.14V47.15H62.9642C62.5642 47.15 62.2442 47.05 62.0042 46.85C61.7842 46.63 61.6742 46.33 61.6742 45.95C61.6742 45.57 61.7842 45.29 62.0042 45.11C62.2442 44.91 62.5642 44.81 62.9642 44.81H68.1542C68.5742 44.81 68.8942 44.92 69.1142 45.14C69.3342 45.36 69.4442 45.68 69.4442 46.1V53.66C69.4442 54.02 69.3742 54.33 69.2342 54.59C69.1142 54.83 68.9042 55.01 68.6042 55.13C67.7442 55.47 66.7342 55.75 65.5742 55.97C64.4142 56.17 63.2842 56.27 62.1842 56.27ZM80.2576 56.27C78.7776 56.27 77.4976 55.96 76.4176 55.34C75.3576 54.72 74.5276 53.84 73.9276 52.7C73.3276 51.56 73.0276 50.22 73.0276 48.68C73.0276 47.5 73.1976 46.45 73.5376 45.53C73.8776 44.61 74.3576 43.82 74.9776 43.16C75.6176 42.48 76.3776 41.97 77.2576 41.63C78.1576 41.27 79.1576 41.09 80.2576 41.09C81.7176 41.09 82.9776 41.4 84.0376 42.02C85.1176 42.64 85.9576 43.52 86.5576 44.66C87.1576 45.78 87.4576 47.12 87.4576 48.68C87.4576 49.84 87.2876 50.89 86.9476 51.83C86.6076 52.77 86.1176 53.57 85.4776 54.23C84.8576 54.89 84.0976 55.4 83.1976 55.76C82.3176 56.1 81.3376 56.27 80.2576 56.27ZM80.2576 53.93C81.0776 53.93 81.7976 53.73 82.4176 53.33C83.0376 52.93 83.5176 52.34 83.8576 51.56C84.2176 50.78 84.3976 49.82 84.3976 48.68C84.3976 46.96 84.0176 45.66 83.2576 44.78C82.4976 43.9 81.4976 43.46 80.2576 43.46C79.4176 43.46 78.6876 43.66 78.0676 44.06C77.4476 44.44 76.9576 45.02 76.5976 45.8C76.2576 46.58 76.0876 47.54 76.0876 48.68C76.0876 50.38 76.4676 51.68 77.2276 52.58C77.9876 53.48 78.9976 53.93 80.2576 53.93Z" fill="white"/>
</g>
<defs>
<clipPath id="clip0_667_5808">
<rect width="92" height="92" fill="white"/>
</clipPath>
</defs>
</svg>
