<svg width="16" height="4" viewBox="0 0 16 4" fill="none" xmlns="http://www.w3.org/2000/svg">
<g opacity="0.3" clip-path="url(#clip0_190_1013)">
<path d="M15.4142 0.585785C14.6332 -0.195262 13.3668 -0.195262 12.5858 0.585785C11.8047 1.36683 11.8047 2.63317 12.5858 3.41421C13.3668 4.19526 14.6332 4.19526 15.4142 3.41421C16.1953 2.6332 16.1953 1.36686 15.4142 0.585785Z" fill="#111111"/>
<path d="M9.41421 0.585785C8.63317 -0.195262 7.36683 -0.195262 6.58579 0.585785C5.80474 1.36683 5.80474 2.63317 6.58579 3.41421C7.36683 4.19526 8.63317 4.19526 9.41421 3.41421C10.1953 2.6332 10.1953 1.36686 9.41421 0.585785Z" fill="#111111"/>
<path d="M3.41421 0.585785C2.63317 -0.195262 1.36683 -0.195262 0.585785 0.585785C-0.195262 1.36683 -0.195262 2.63317 0.585785 3.41421C1.36683 4.19526 2.63317 4.19526 3.41421 3.41421C4.19526 2.6332 4.19526 1.36686 3.41421 0.585785Z" fill="#111111"/>
</g>
<defs>
<clipPath id="clip0_190_1013">
<rect width="4" height="16" fill="white" transform="matrix(1.19249e-08 -1 -1 -1.19249e-08 16 4)"/>
</clipPath>
</defs>
</svg>
