<svg width="16" height="17" viewBox="0 0 16 17" fill="none" xmlns="http://www.w3.org/2000/svg">
<path d="M13.6555 2.8453C13.1108 2.29996 12.3861 2 11.6141 2C10.8435 2 10.1188 2.29996 9.57279 2.8453L2.55078 9.86735C2.27878 10.1387 2.10146 10.4833 2.03812 10.8626L1.51147 14.0213C1.46681 14.2887 1.55413 14.562 1.74613 14.7533C1.9048 14.912 2.11944 14.9993 2.34078 14.9993C2.38611 14.9993 2.43281 14.996 2.47815 14.988L5.63745 14.4613C6.01612 14.3987 6.36012 14.2213 6.63212 13.9493L13.6541 6.92733C14.1995 6.38199 14.5001 5.65732 14.5001 4.88599C14.5001 4.11465 14.2015 3.39063 13.6555 2.8453ZM5.9268 13.2427C5.8028 13.3667 5.64681 13.4467 5.47481 13.4753L2.53613 13.9647L3.02547 11.0267C3.05414 10.854 3.1348 10.698 3.25814 10.5747L8.64681 5.18604L11.3148 7.854L5.9268 13.2427ZM12.9488 6.2207L12.0221 7.1473L9.35412 4.47933L10.2808 3.55265C10.6375 3.19665 11.1108 3 11.6148 3C12.1188 3 12.5928 3.19599 12.9488 3.55265C13.3048 3.90932 13.5015 4.38264 13.5015 4.88664C13.5015 5.39064 13.3048 5.86404 12.9488 6.2207Z" fill="#878B99"/>
</svg>
