<svg width="120" height="95" viewBox="0 0 120 95" fill="none" xmlns="http://www.w3.org/2000/svg">
<mask id="mask0_219_6348" style="mask-type:luminance" maskUnits="userSpaceOnUse" x="7" y="15" width="97" height="76">
<path d="M103.759 22.7047V90.1964H7.73242V22.7047C7.73839 20.9034 8.45697 19.178 9.73057 17.9069C11.0042 16.6358 12.7288 15.9226 14.5264 15.9238H96.9926C98.7873 15.9238 100.508 16.6382 101.778 17.9099C103.047 19.1815 103.759 20.9063 103.759 22.7047Z" fill="white"/>
</mask>
<g mask="url(#mask0_219_6348)">
<path d="M83.6754 88.4907C85.7416 89.5259 88.4213 87.5866 91.3942 84.9557L88.1687 82.0625C88.1687 82.0625 83.1205 86.782 83.6754 88.4907Z" fill="#A7AAF0"/>
<path d="M111.221 76.041L103.76 91.2707H88.0785L85.4619 83.9565L94.3401 76.041H111.221Z" fill="#FEBD9D"/>
<path d="M99.0636 76.0469C97.232 78.9219 94.2095 83.6459 91.7192 87.5517" stroke="#EF8A66" stroke-width="0.338346" stroke-linecap="round" stroke-linejoin="round"/>
<path d="M96.2709 77.2311C90.9521 80.2779 83.6754 88.4918 83.6754 88.4918L81.7266 92.3795L80.5897 94.6397H41.9957C41.0935 91.3804 40.3175 87.1401 39.7401 83.7C39.289 81.0329 39.0002 78.854 38.8829 78.0041C38.8469 77.7555 38.8333 77.6153 38.8333 77.6153C37.8499 78.4878 37.3717 78.5195 37.3717 78.5195L35.5672 83.2977L35.4002 83.7497C28.9942 79.4552 17.2739 78.6912 17.2739 78.6912L18.8484 73.3615C18.3757 72.2674 18.2436 71.0558 18.4694 69.8852C18.7266 68.529 22.2544 62.363 25.8093 57.1779C27.22 55.0665 28.7852 53.063 30.492 51.1837C30.6318 51.039 30.7762 50.9034 30.9431 50.7678C35.2333 46.8169 42.3431 47.3864 47.0123 47.8159C47.707 47.8747 48.3657 47.9244 48.9837 47.9515C50.3633 48.022 51.7455 48.022 53.125 47.9515C54.2574 47.8927 54.8845 47.8068 54.8845 47.8068C55.0243 47.1468 55.1642 46.4507 55.295 45.6867C56.1431 40.7458 56.6168 34.1458 55.8634 29.8105L67.7326 35.1222C67.9401 37.2875 68.7341 42.0251 69.2799 45.1488C69.5822 46.8892 69.8078 48.1323 69.8078 48.1323C70.7596 47.956 71.6664 47.7978 72.5145 47.6486C84.5642 45.6008 87.6724 46.3738 91.0108 52.2596C91.0965 52.4178 91.1867 52.5805 91.2724 52.7478C93.3341 56.8163 94.7326 64.9533 95.5175 70.7034C96.0183 74.4736 96.2709 77.2311 96.2709 77.2311Z" fill="#C3CBF8"/>
<path d="M96.2711 77.2309C91.0516 80.219 83.9463 88.1842 83.6802 88.4825C83.7794 88.2836 85.3313 85.065 85.4621 83.962C85.593 82.859 85.0742 79.5997 84.217 76.5257L95.4952 70.7168C96.0185 74.4734 96.2711 77.2309 96.2711 77.2309Z" fill="#C3CBF8"/>
<path d="M56.1117 78.9927C56.0215 83.3234 45.8982 83.9337 39.7583 83.6941C39.3072 81.027 39.0185 78.8481 38.9012 77.9982C38.8651 77.7496 38.8516 77.6094 38.8516 77.6094C41.0844 75.3394 42.93 72.7172 44.3147 69.8477C47.9237 72.3204 43.2952 74.8564 43.1192 76.0408C42.641 79.3046 56.2335 72.7905 56.1117 78.9927Z" fill="#A7AAF0"/>
<path d="M91.268 52.7569C87.7492 51.5363 83.7973 51.5725 81.0635 55.9574C74.8966 65.8212 63.3206 73.5152 51.7402 61.8703C50.1581 60.2362 48.4239 58.7573 46.5612 57.4537C39.7176 52.7569 33.9297 53.7107 25.8364 57.187C27.2382 55.0734 28.7943 53.0668 30.4921 51.1837C30.6319 51.039 30.7763 50.9034 30.9432 50.7678C35.2334 46.8169 42.3432 47.3864 47.0124 47.8159C47.7071 47.8747 48.3658 47.9244 48.9838 47.9515C50.3633 48.022 51.7456 48.022 53.1251 47.9515C54.2575 47.8927 54.8845 47.8068 54.8845 47.8068C55.0244 47.1468 55.1642 46.4507 55.2951 45.6867C56.1432 40.7458 56.6169 34.1458 55.8635 29.8105L67.7327 35.1222C67.9402 37.2875 68.7342 42.0251 69.28 45.1488C69.5823 46.8892 69.8079 48.1323 69.8079 48.1323C70.7597 47.956 71.6665 47.7978 72.5146 47.6486C84.5642 45.6008 87.6725 46.3738 91.0109 52.2596C91.0921 52.4268 91.1823 52.5896 91.268 52.7569Z" fill="#D0E5F7"/>
<path d="M72.5053 47.6571C72.4692 50.7175 72.1399 56.2823 70.8136 60.2242C69.0993 65.3324 67.0782 63.2575 64.8587 61.2368C62.8467 59.406 55.5294 53.2987 48.9609 47.9509C50.3405 48.0214 51.7227 48.0214 53.1023 47.9509C54.2346 47.8921 54.8617 47.8062 54.8617 47.8062C55.0015 47.1462 55.1414 46.4501 55.2722 45.6861C60.0451 45.3697 65.7609 45.0668 69.2572 45.1482C69.5594 46.8886 69.785 48.1317 69.785 48.1317C70.7369 47.9645 71.6436 47.8062 72.5053 47.6571Z" fill="#83ADDF"/>
<path d="M67.8364 59.32C67.8364 59.32 57.677 52.399 53.1025 47.9417C54.2349 47.883 54.8619 47.7971 54.8619 47.7971C55.9492 42.7928 56.707 34.796 55.8409 29.8008L63.5552 33.2545L67.7101 35.1124C67.8634 36.7127 68.3416 39.7369 68.7928 42.4628C69.3025 45.469 69.7852 48.1226 69.7852 48.1226C70.1552 56.906 67.8364 59.32 67.8364 59.32Z" fill="#FEBD9D"/>
<path d="M83.6753 88.4907C83.7745 88.2918 85.3264 85.0732 85.4572 83.9702C85.5881 82.8672 85.0693 79.6078 84.2121 76.5339L84.0768 76.0547" stroke="#83ADDF" stroke-width="0.338346" stroke-linecap="round" stroke-linejoin="round"/>
<path d="M68.7927 42.4798C60.7942 42.9635 61.6965 34.3429 61.7506 34.1168L63.5551 33.2715L67.71 35.1294C67.8634 36.7161 68.3416 39.754 68.7927 42.4798Z" fill="#F4A789"/>
<path d="M17.3053 78.7C17.0798 79.3645 17.0798 80.0878 22.1099 81.5072L22.8903 78.1892C22.8903 78.1892 18.3114 76.9505 17.3053 78.7Z" fill="#A7AAF0"/>
<path d="M20.0619 76.9512C18.8799 80.8162 14.7566 93.745 14.7566 93.745C13.6378 98.4825 27.6679 101.584 32.6664 93.528L35.4137 80.5676C30.8751 77.6022 25.4436 76.3227 20.0619 76.9512Z" fill="#FEBD9D"/>
<path d="M43.1326 72.0356L43.0875 72.1169C42.492 73.0708 41.8334 74.0427 41.1116 75.0462C41.0937 75.0662 41.0771 75.0873 41.062 75.1095C40.3864 75.9953 39.6476 76.8308 38.8514 77.6094C37.868 78.4819 37.3898 78.5135 37.3898 78.5135L35.4319 83.7393C35.2334 83.6036 35.0259 83.4771 34.8138 83.346C31.2454 81.1806 26.3281 79.9872 22.6334 79.3543C21.4199 79.1464 20.3371 78.9972 19.4755 78.9023C18.1492 78.744 17.3281 78.6898 17.3281 78.6898L18.9026 73.3601C18.4299 72.2659 18.2978 71.0543 18.5236 69.8838C18.7808 68.5276 22.3086 62.3616 25.8635 57.1765C27.2569 55.0669 28.804 53.0634 30.492 51.1823C30.6319 51.0376 30.7762 50.902 30.9432 50.7664C37.0244 47.9184 44.9281 48.6191 46.4845 56.8375C46.5206 57.0409 46.5612 57.2488 46.5883 57.4523C47.459 62.9086 46.1101 67.2528 43.1326 72.0356Z" fill="#C3CBF8"/>
<path d="M46.5656 57.4523C39.722 52.7554 33.9341 53.7092 25.8408 57.1856C27.2411 55.0721 28.7957 53.0655 30.4919 51.1823C30.6318 51.0376 30.7762 50.902 30.9431 50.7664C37.0243 47.9184 44.928 48.6191 46.4844 56.8375C46.498 57.059 46.5386 57.2488 46.5656 57.4523Z" fill="#D0E5F7"/>
<path d="M21.3745 74.4863C25.6106 74.4863 29.7565 76.2222 30.4557 76.5567" stroke="#83ADDF" stroke-width="0.338346" stroke-linecap="round" stroke-linejoin="round"/>
<path d="M38.8516 77.6094C39.6478 76.8308 40.3865 75.9953 41.0621 75.1095C41.0772 75.0874 41.0938 75.0662 41.1117 75.0462C41.8239 74.1072 42.4835 73.1292 43.0876 72.1169L43.1328 72.0356C43.6155 71.2264 44.008 70.4805 44.3147 69.8476C44.5583 69.3594 44.7658 68.9435 44.8651 68.6406" stroke="#83ADDF" stroke-width="0.338346" stroke-linecap="round" stroke-linejoin="round"/>
<path d="M75.519 73.8396C75.6859 75.9733 74.4273 76.5203 74.4273 76.5203C74.5987 81.7189 73.0739 84.2052 70.5385 84.8652C68.0032 85.5252 61.4573 86.922 61.4573 86.922C60.777 87.197 60.1206 87.5282 59.4949 87.912L56.7882 89.4942C53.5355 91.4064 48.4062 93.183 42.3115 96.4062C31.5115 102.111 23.8152 99.019 23.2964 92.9615C22.3671 81.8862 36.4152 81.1629 41.5445 80.304C45.2573 79.6756 51.0182 78.2019 54.5821 77.3747C55.5223 77.1356 56.4739 76.944 57.4333 76.8005C59.1521 76.6514 62.707 74.7708 68.9461 72.7999C75.1852 70.8289 80.2243 69.6942 80.2243 71.0775C80.2243 72.4608 75.519 73.8396 75.519 73.8396Z" fill="#FEBD9D"/>
<path d="M68.9507 72.791C75.1808 70.8155 80.2289 69.6854 80.2289 71.0686C80.2289 72.4519 75.5011 73.8397 75.5011 73.8397C75.668 75.9734 74.4093 76.5204 74.4093 76.5204C74.5808 81.7191 73.056 84.2054 70.5206 84.8654" stroke="#EF8A66" stroke-width="0.338346" stroke-linecap="round" stroke-linejoin="round"/>
<path d="M25.9175 85.4395C28.6242 82.8176 32.9596 81.6829 36.6227 81.041" stroke="#EF8A66" stroke-width="0.338346" stroke-linecap="round" stroke-linejoin="round"/>
<path d="M59.4951 87.9116L56.7884 89.4938C54.2801 86.691 52.9763 82.3423 54.5823 77.3651C55.5225 77.1261 56.4741 76.9345 57.4335 76.791C56.265 79.9825 56.053 85.1812 59.4951 87.9116Z" fill="#683F1D"/>
<path d="M75.5191 73.8398L71.6665 75.0875" stroke="#EF8A66" stroke-width="0.338346" stroke-linecap="round" stroke-linejoin="round"/>
<path d="M74.4275 76.5195L72.0591 77.383" stroke="#EF8A66" stroke-width="0.338346" stroke-linecap="round" stroke-linejoin="round"/>
<path d="M72.3159 79.8835L74.3325 79.332" stroke="#EF8A66" stroke-width="0.338346" stroke-linecap="round" stroke-linejoin="round"/>
<path d="M58.5882 83.2195C58.5882 83.8659 58.397 84.4979 58.0386 85.0353C57.6802 85.5728 57.1708 85.9917 56.5748 86.2391C55.9788 86.4865 55.323 86.5512 54.6903 86.4251C54.0576 86.299 53.4764 85.9877 53.0203 85.5306C52.5641 85.0735 52.2535 84.4912 52.1276 83.8572C52.0018 83.2232 52.0664 82.566 52.3132 81.9688C52.5601 81.3716 52.9781 80.8611 53.5145 80.502C54.0509 80.1429 54.6815 79.9512 55.3266 79.9512C56.1916 79.9512 57.0213 80.2955 57.6329 80.9084C58.2446 81.5214 58.5882 82.3527 58.5882 83.2195Z" fill="white" stroke="#683F1D" stroke-width="0.451128" stroke-linecap="round" stroke-linejoin="round"/>
</g>
<path d="M103.759 22.7047V90.1964H7.73242V22.7047C7.73839 20.9034 8.45697 19.178 9.73057 17.9069C11.0042 16.6358 12.7288 15.9226 14.5264 15.9238H96.9926C98.7873 15.9238 100.508 16.6382 101.778 17.9099C103.047 19.1815 103.759 20.9063 103.759 22.7047Z" stroke="#DDDDDD" stroke-width="0.902256" stroke-linecap="round" stroke-linejoin="round"/>
<path d="M103.759 22.7047V23.012H7.73242V22.7047C7.73839 20.9034 8.45697 19.178 9.73057 17.9069C11.0042 16.6358 12.7288 15.9226 14.5264 15.9238H96.9926C98.7873 15.9238 100.508 16.6382 101.778 17.9099C103.047 19.1815 103.759 20.9063 103.759 22.7047Z" stroke="#DDDDDD" stroke-width="0.902256" stroke-linecap="round" stroke-linejoin="round"/>
<path d="M90.7671 19.4626C90.768 19.7078 90.6963 19.9477 90.561 20.152C90.4257 20.3563 90.233 20.5157 90.0072 20.6102C89.7814 20.7046 89.5327 20.7298 89.2926 20.6825C89.0526 20.6352 88.8319 20.5176 88.6586 20.3446C88.4852 20.1715 88.3671 19.9509 88.319 19.7105C88.2709 19.4701 88.2952 19.2208 88.3886 18.9942C88.482 18.7676 88.6404 18.5739 88.8438 18.4376C89.0472 18.3013 89.2863 18.2285 89.531 18.2285C89.8581 18.2285 90.1718 18.3584 90.4035 18.5897C90.6351 18.821 90.7659 19.1349 90.7671 19.4626Z" fill="#DDDDDD"/>
<path d="M93.5593 20.7019C94.242 20.7019 94.7954 20.1473 94.7954 19.4632C94.7954 18.7792 94.242 18.2246 93.5593 18.2246C92.8767 18.2246 92.3232 18.7792 92.3232 19.4632C92.3232 20.1473 92.8767 20.7019 93.5593 20.7019Z" fill="#EDEDED"/>
<path d="M98.8242 19.4626C98.8251 19.7078 98.7534 19.9477 98.6181 20.152C98.4828 20.3563 98.2901 20.5157 98.0643 20.6102C97.8385 20.7046 97.5898 20.7298 97.3498 20.6825C97.1097 20.6352 96.889 20.5176 96.7157 20.3446C96.5424 20.1715 96.4242 19.9509 96.3761 19.7105C96.3281 19.4701 96.3523 19.2208 96.4457 18.9942C96.5391 18.7676 96.6976 18.5739 96.9009 18.4376C97.1043 18.3013 97.3435 18.2285 97.5881 18.2285C97.9152 18.2285 98.2289 18.3584 98.4606 18.5897C98.6923 18.821 98.823 19.1349 98.8242 19.4626Z" fill="#DDDDDD"/>
<path d="M80.4634 78.6351C82.0062 76.9941 84.5822 76.7907 84.5822 76.7907L87.5596 79.8828C87.5596 79.8828 88.4123 70.7648 84.5822 58.252C83.8514 64.3592 81.6138 74.1914 80.4634 78.6351Z" fill="#DDDDDD" stroke="#DDDDDD" stroke-width="0.451128" stroke-linecap="round" stroke-linejoin="round"/>
<path d="M109.886 56.4004C114.194 70.0976 113.987 79.9072 113.987 79.9072H87.5598C87.5598 79.9072 84.0049 66.3139 84.5824 58.2764C84.5824 58.2764 84.0816 56.3823 85.7373 56.2195C87.3929 56.0568 109.886 56.4004 109.886 56.4004Z" fill="#F9F9F9" stroke="#DDDDDD" stroke-width="0.451128" stroke-linecap="round" stroke-linejoin="round"/>
<path d="M88.7146 56.2678C88.7123 56.2287 88.7123 56.1894 88.7146 56.1503C88.7538 55.7858 88.8974 55.4405 89.1282 55.1561C89.3589 54.8716 89.6669 54.6602 90.0149 54.5473C90.363 54.4345 90.7362 54.425 91.0895 54.52C91.4428 54.615 91.7611 54.8104 92.006 55.0828C92.2509 55.3551 92.4119 55.6926 92.4695 56.0546C92.5271 56.4166 92.4789 56.7875 92.3308 57.1227C92.1826 57.4579 91.9408 57.7429 91.6345 57.9433C91.3283 58.1438 90.9706 58.2511 90.6048 58.2523" stroke="#EDEDED" stroke-width="0.451128" stroke-linecap="round" stroke-linejoin="round"/>
<path d="M102.136 56.2678C102.183 55.9054 102.334 55.5645 102.57 55.2857C102.806 55.0069 103.117 54.8021 103.466 54.6957C103.815 54.5893 104.187 54.5858 104.538 54.6857C104.889 54.7856 105.203 54.9846 105.444 55.259C105.685 55.5333 105.842 55.8714 105.897 56.2328C105.951 56.5942 105.9 56.9636 105.751 57.297C105.601 57.6303 105.359 57.9134 105.053 58.1125C104.747 58.3116 104.391 58.4182 104.026 58.4196C103.709 58.4204 103.398 58.3378 103.124 58.18" stroke="#EDEDED" stroke-width="0.451128" stroke-linecap="round" stroke-linejoin="round"/>
<path d="M94.1055 56.187C94.1241 55.6908 94.3276 55.2197 94.6758 54.8665C95.0241 54.5134 95.4918 54.3038 95.9867 54.2793C96.5043 54.3382 96.9821 54.5859 97.3291 54.9753C97.676 55.3647 97.8678 55.8684 97.8678 56.3904C97.8678 56.9124 97.676 57.4161 97.3291 57.8055C96.9821 58.1948 96.5043 58.4426 95.9867 58.5015C95.5612 58.4955 95.1524 58.3349 94.8363 58.0494" stroke="#EDEDED" stroke-width="0.451128" stroke-linecap="round" stroke-linejoin="round"/>
<path d="M98.1294 56.2326C98.1762 55.8707 98.3262 55.5299 98.5613 55.2511C98.7965 54.9724 99.1068 54.7674 99.4552 54.6609C99.8036 54.5543 100.175 54.5506 100.526 54.6502C100.876 54.7499 101.19 54.9486 101.431 55.2227C101.672 55.4967 101.828 55.8345 101.882 56.1954C101.936 56.5564 101.885 56.9253 101.735 57.258C101.585 57.5907 101.343 57.873 101.037 58.0712C100.731 58.2693 100.375 58.375 100.011 58.3754" stroke="#EDEDED" stroke-width="0.451128" stroke-linecap="round" stroke-linejoin="round"/>
<path d="M108.469 60.8066H89.9551V62.9268H108.469V60.8066Z" stroke="#DDDDDD" stroke-width="0.451128" stroke-linecap="round" stroke-linejoin="round"/>
<path d="M94.543 77.5743L94.3084 75.7886L93.1129 66.5938L92.9189 65.084" stroke="#EDEDED" stroke-width="0.451128" stroke-linecap="round" stroke-linejoin="round"/>
<path d="M100.552 77.5743L100.3 75.6575L99.1403 66.7159L98.9282 65.084" stroke="#EDEDED" stroke-width="0.451128" stroke-linecap="round" stroke-linejoin="round"/>
<path d="M104.937 65.084L106.561 77.5743" stroke="#EDEDED" stroke-width="0.451128" stroke-linecap="round" stroke-linejoin="round"/>
<path d="M108.668 67.5781H99.2526H93.2436H90.6045" stroke="#EDEDED" stroke-width="0.451128" stroke-linecap="round" stroke-linejoin="round"/>
<path d="M109.584 73.0391H99.9611H93.9521H91.5205" stroke="#EDEDED" stroke-width="0.451128" stroke-linecap="round" stroke-linejoin="round"/>
<path d="M94.9583 65.5117C91.9718 67.0397 90.5327 73.4136 95.5989 73.8386C103.065 74.4624 103.421 65.2495 96.8801 66.113" fill="#F9F9F9"/>
<path d="M94.9583 65.5117C91.9718 67.0397 90.5327 73.4136 95.5989 73.8386C103.065 74.4624 103.421 65.2495 96.8801 66.113" stroke="#DDDDDD" stroke-width="0.902256" stroke-linecap="round" stroke-linejoin="round"/>
<path d="M99.9609 73.0389H93.9519L93.2437 67.5781H99.2527L99.9609 73.0389Z" fill="#EDEDED"/>
<path d="M110.752 72.2134C110.879 74.2928 114.812 72.0054 114.546 70.1882C114.28 68.3709 110.608 69.813 110.752 72.2134Z" fill="#FEBD9D" stroke="#EF8A66" stroke-width="0.338346" stroke-linecap="round" stroke-linejoin="round"/>
<path d="M110.075 69.4221C110.22 71.4971 114.65 69.2142 114.357 67.3969C114.063 65.5797 109.922 67.0036 110.075 69.4221Z" fill="#FEBD9D" stroke="#EF8A66" stroke-width="0.338346" stroke-linecap="round" stroke-linejoin="round"/>
<path d="M109.778 67.3345C109.931 69.414 114.682 67.1311 114.37 65.3093C114.059 63.4875 109.597 64.9341 109.778 67.3345Z" fill="#FEBD9D" stroke="#EF8A66" stroke-width="0.338346" stroke-linecap="round" stroke-linejoin="round"/>
<path d="M109.105 64.7667C109.268 66.6473 114.167 64.5769 113.847 62.9269C113.526 61.2769 108.925 62.5878 109.105 64.7667Z" fill="#FEBD9D" stroke="#EF8A66" stroke-width="0.338346" stroke-linecap="round" stroke-linejoin="round"/>
<path d="M94.9583 65.5117C91.9718 67.0397 90.5327 73.4136 95.5989 73.8386C103.065 74.4624 103.421 65.2495 96.8801 66.113" stroke="#DDDDDD" stroke-width="0.902256" stroke-linecap="round" stroke-linejoin="round"/>
<path d="M77.1432 17.1423C76.7553 20.4107 72.3884 22.3274 72.3884 22.3274L60.2711 32.91C59.0305 34.8991 55.647 35.8936 53.5899 34.239C52.3899 33.2717 51.6365 31.3911 52.047 28.2719C51.7081 28.2719 51.3769 28.1712 51.0951 27.9826C49.7056 27.1192 48.8395 24.3662 50.9327 21.0978C50.7838 21.2425 48.0004 23.9593 45.1312 23.1411C44.6411 23.008 44.1848 22.7719 43.7928 22.4484C43.4007 22.125 43.0819 21.7216 42.8575 21.2651C41.9553 19.4117 42.2711 16.3332 44.8425 12.1064C46.6741 9.09124 49.2229 8.54878 51.4109 9.10932C53.8786 9.7422 55.8816 11.781 55.8816 13.2592C56.4216 12.5884 57.0481 11.9926 57.7447 11.4871C58.7102 10.8181 59.9056 10.357 60.9748 11.008C60.9748 11.008 64.7327 8.98275 66.8756 10.2485C69.5372 11.8217 68.9508 12.9201 71.5402 13.0919C73.462 13.214 76.4801 13.7022 77.0575 15.8901C77.1675 16.2979 77.1966 16.7233 77.1432 17.1423Z" fill="#DD6819"/>
<path d="M55.8589 13.2592L50.9416 21.0888C50.591 21.4188 50.2155 21.721 49.8183 21.9929C48.7221 22.775 46.9176 23.6565 45.1131 23.1547C44.625 23.0178 44.1714 22.7786 43.7826 22.4528C43.3937 22.1271 43.0784 21.7222 42.8574 21.2651C48.4604 21.1431 50.4273 19.5744 49.277 16.4869C48.2078 13.6118 47.1025 10.0044 51.4108 9.10938C53.087 9.53713 54.5422 10.5791 55.489 12.0296C55.7163 12.4006 55.8438 12.8242 55.8589 13.2592Z" fill="#CC5E0D"/>
<path d="M77.1431 17.1423C76.7551 20.4106 72.3882 22.3274 72.3882 22.3274L60.2709 32.91C59.0303 34.899 55.6469 35.8935 53.5897 34.239C52.8784 32.5295 52.7037 30.6435 53.0889 28.832C53.4741 27.0206 54.401 25.3697 55.7461 24.0994C58.2318 21.8391 56.4093 20.153 56.6484 17.1739C56.8875 14.1949 62.3191 9.62462 66.2123 13.7338C69.2574 16.9569 74.9957 13.0557 77.08 15.8901C77.1824 16.2994 77.2038 16.7248 77.1431 17.1423Z" fill="#CC5E0D"/>
<path d="M69.7087 38.7681C64.2681 38.2121 58.7463 32.5569 58.7463 32.5569C56.6666 34.9211 52.5793 31.3861 54.6049 28.4387C55.9312 26.4993 58.0064 27.6476 58.5072 28.7099C59.3504 28.1666 59.9689 27.3358 60.2483 26.3711C60.5278 25.4063 60.4493 24.3728 60.0275 23.4615C59.5851 22.3415 59.3941 21.1377 59.4681 19.9355C61.3087 17.1282 66.1899 16.4863 66.1899 16.4863C66.9108 17.248 67.7877 17.8443 68.7603 18.2345C69.7328 18.6246 70.7781 18.7993 71.8245 18.7466C71.8245 18.7466 73.4981 22.024 74.8605 25.3511L74.9553 25.5817C75.3387 26.531 75.6951 27.4758 75.9748 28.3482C75.9974 28.4341 76.0245 28.511 76.047 28.5924C76.2752 29.2766 76.4413 29.9802 76.5432 30.6944C76.9853 34.2837 75.1448 39.3332 69.7087 38.7681Z" fill="#FEBD9D"/>
<path d="M71.9644 23.865C71.9635 23.9823 71.9974 24.0973 72.0618 24.1952C72.1262 24.2932 72.2181 24.3698 72.326 24.4153C72.434 24.4609 72.5529 24.4732 72.6678 24.4509C72.7828 24.4286 72.8885 24.3725 72.9716 24.2899C73.0547 24.2072 73.1114 24.1017 73.1346 23.9867C73.1578 23.8717 73.1464 23.7524 73.1018 23.644C73.0572 23.5355 72.9814 23.4427 72.8841 23.3775C72.7869 23.3122 72.6724 23.2773 72.5553 23.2773C72.3994 23.2773 72.2498 23.3391 72.1391 23.4492C72.0284 23.5593 71.9656 23.7087 71.9644 23.865Z" fill="#683F1D"/>
<path d="M68.9507 25.0406C69.2746 25.0406 69.5372 24.7775 69.5372 24.4529C69.5372 24.1283 69.2746 23.8652 68.9507 23.8652C68.6268 23.8652 68.3643 24.1283 68.3643 24.4529C68.3643 24.7775 68.6268 25.0406 68.9507 25.0406Z" fill="#683F1D"/>
<path d="M68.2607 28.4297C69.4362 29.0206 70.7403 29.308 72.0547 29.266C72.0547 29.266 71.8021 31.4675 69.9119 30.8843C68.2698 30.3871 68.2607 28.4297 68.2607 28.4297Z" fill="white" stroke="#EF8A66" stroke-width="0.338346" stroke-linecap="round" stroke-linejoin="round"/>
<path d="M66.3972 22.7259C66.6183 23.4538 69.3251 22.7259 69.0318 21.5506C68.7386 20.3753 66.0905 21.6998 66.3972 22.7259Z" fill="#DD6819"/>
<path d="M71.0079 21.2794C70.9628 22.066 73.7146 22.1157 73.7146 21.4421C73.7146 20.7686 71.0801 19.991 71.0079 21.2794Z" fill="#DD6819"/>
<path d="M52.0425 28.2718C52.3797 26.0464 53.4557 24 55.0966 22.4629" stroke="#FF79A0" stroke-width="0.338346" stroke-linecap="round" stroke-linejoin="round"/>
<path d="M60.9747 11.0078C60.1221 11.6904 58.8454 13.9055 58.3491 14.909" stroke="#FF79A0" stroke-width="0.338346" stroke-linecap="round" stroke-linejoin="round"/>
<path d="M60.2168 17.1435C61.2228 14.4583 63.1582 13.2513 64.0604 14.2775C64.9627 15.3036 66.1852 16.488 66.1852 16.488" stroke="#FF79A0" stroke-width="0.338346" stroke-linecap="round" stroke-linejoin="round"/>
<path d="M71.8291 18.7687C72.9569 18.728 74.0261 17.5708 74.3509 16.9062" stroke="#FF79A0" stroke-width="0.338346" stroke-linecap="round" stroke-linejoin="round"/>
<path d="M49.2592 20.6043C45.0998 21.2553 43.0472 15.0847 46.4216 10.207" stroke="#FF79A0" stroke-width="0.338346" stroke-linecap="round" stroke-linejoin="round"/>
<path d="M53.4277 14.9104C54.2983 12.6501 51.3886 9.00201 49.7961 11.5064C47.9916 14.3679 50.6217 18.1742 53.4051 17.8352" stroke="#FF79A0" stroke-width="0.338346" stroke-linecap="round" stroke-linejoin="round"/>
<path d="M50.9463 21.0894C51.9421 18.1265 53.6259 15.443 55.8591 13.2598C55.8591 13.2598 54.6004 15.8274 55.5252 17.6537C53.9208 18.6905 52.3907 19.8385 50.9463 21.0894Z" fill="#FED81D"/>
<path d="M55.0967 30.388C55.9313 28.9053 57.3929 28.9867 58.1553 30.2343" stroke="#EF8A66" stroke-width="0.338346" stroke-linecap="round" stroke-linejoin="round"/>
<path d="M57.853 29.8182C56.1206 29.3662 56.1206 31.6943 57.9567 31.3597" stroke="#EF8A66" stroke-width="0.338346" stroke-linecap="round" stroke-linejoin="round"/>
<path d="M70.3988 23.4395C70.3762 24.7956 71.4544 25.5732 72.1717 25.9438C72.889 26.3145 72.6499 27.3271 72.6228 27.4492" stroke="#EF8A66" stroke-width="0.338346" stroke-linecap="round" stroke-linejoin="round"/>
<path d="M58.7461 32.5583C59.026 32.203 59.258 31.8124 59.4363 31.3965" stroke="#EF8A66" stroke-width="0.338346" stroke-linecap="round" stroke-linejoin="round"/>
<path d="M66.5646 27.9921C66.1135 28.8465 64.724 29.0092 63.4067 28.3492C62.0894 27.6892 61.3947 26.4641 61.8278 25.6052C62.2609 24.7463 63.6639 24.5881 64.9857 25.2436C66.3075 25.8991 66.9932 27.1332 66.5646 27.9921Z" fill="#F4AF90"/>
<path d="M76.0471 28.6162C75.7644 28.7454 75.4513 28.7922 75.1433 28.7514C74.8354 28.7107 74.5452 28.5839 74.3057 28.3857C73.6516 27.7302 73.8997 26.3966 74.8606 25.375L74.9553 25.6055C75.3388 26.5549 75.6952 27.4997 75.9749 28.3721C75.9974 28.458 76.0245 28.5349 76.0471 28.6162Z" fill="#F4AF90"/>
</svg>
