<svg width="120" height="99" viewBox="0 0 120 99" fill="none" xmlns="http://www.w3.org/2000/svg">
<g clip-path="url(#clip0_219_6116)">
<path d="M97.0695 6.85938H14.1474C12.6198 6.85938 11.3813 8.0978 11.3813 9.62548V59.8831C11.3813 61.4108 12.6198 62.6492 14.1474 62.6492H97.0695C98.5972 62.6492 99.8356 61.4108 99.8356 59.8831V9.62548C99.8356 8.0978 98.5972 6.85938 97.0695 6.85938Z" stroke="#EDEDED" stroke-width="0.368136" stroke-linecap="round" stroke-linejoin="round"/>
<path d="M94.4476 9.46094H16.771C15.2433 9.46094 14.0049 10.6994 14.0049 12.227V57.2779C14.0049 58.8056 15.2433 60.044 16.771 60.044H94.4476C95.9753 60.044 97.2137 58.8056 97.2137 57.2779V12.227C97.2137 10.6994 95.9753 9.46094 94.4476 9.46094Z" stroke="#DDDDDD" stroke-width="0.368136" stroke-linecap="round" stroke-linejoin="round"/>
<path d="M62.0458 46.5369C62.0224 46.958 61.9769 47.3775 61.9095 47.7938C61.3827 51.221 59.4892 56.145 57.3882 59.1532C56.9676 59.7731 56.4821 60.3465 55.94 60.8637C54.2885 62.383 51.6587 62.6698 49.822 61.606C49.2676 61.2865 48.7952 60.8422 48.4422 60.3085C48.0891 59.7747 47.8652 59.1661 47.7881 58.5308C47.7081 57.9802 47.702 57.4213 47.7698 56.8691C48.1217 53.7552 50.2431 48.4182 52.8037 44.5681C53.0946 44.1247 53.3956 43.6996 53.6987 43.303C55.1448 41.4074 56.6763 40.0854 58.0756 39.943C58.3647 39.9091 58.6576 39.9319 58.938 40.0101C61.2566 40.6772 62.2553 42.4915 62.0458 46.5369Z" fill="#7DE375"/>
<path d="M57.803 48.4063C57.1002 50.8235 56.8181 53.3436 56.9691 55.8564C57.0501 56.9655 57.1899 58.0694 57.3881 59.1636C56.9675 59.7835 56.482 60.3569 55.94 60.8741C54.2884 62.3934 51.6586 62.6802 49.822 61.6164C49.2675 61.2969 48.7951 60.8526 48.4421 60.3188C48.0891 59.7851 47.8652 59.1765 47.7881 58.5412C49.4152 60.2863 51.1237 60.6625 52.4661 60.2212C54.4145 59.5947 55.6369 57.2781 54.8864 54.9086C53.5664 50.7432 56.544 48.3615 57.9657 47.668C57.9291 47.8998 57.8722 48.1459 57.803 48.4063Z" fill="#5FC557"/>
<path d="M62.0458 46.5369C62.0224 46.958 61.9769 47.3775 61.9095 47.7938C61.666 47.4326 61.4653 47.0442 61.3115 46.6365C60.5915 44.7145 59.2939 43.6325 57.8539 43.1627C56.4932 42.7405 55.0298 42.79 53.7007 43.303C55.1468 41.4074 56.6783 40.0854 58.0776 39.943C58.3667 39.9091 58.6597 39.9319 58.94 40.0101C61.2566 40.6772 62.2553 42.4915 62.0458 46.5369Z" fill="#AFFFA8"/>
<path d="M78.2928 80.44C72.8664 79.5227 67.4501 78.7885 62.2637 78.2943C60.7342 78.1505 59.1891 78.0149 57.6284 77.8875C57.9213 74.3546 58.5803 68.556 59.7925 67.1465C59.8566 67.0573 59.9393 66.9829 60.0347 66.9285C60.1302 66.8741 60.2363 66.8409 60.3457 66.8312C61.0332 66.819 62.7538 66.7621 64.7999 66.6868C69.3416 66.516 75.486 66.2617 75.486 66.2617C75.5735 66.6034 75.661 66.9431 75.7464 67.2787C75.7464 67.2929 75.7464 67.3092 75.7606 67.3254C76.8364 71.649 77.6816 76.0267 78.2928 80.44Z" fill="#A7AAF0"/>
<path d="M73.3076 68.0098C73.9442 69.4335 75.6466 71.1033 76.2222 71.4837" stroke="white" stroke-width="0.183051" stroke-miterlimit="10"/>
<path d="M67.57 43.2348C64.9503 43.5541 64.3849 41.4551 64.3687 38.4551C64.3687 37.7494 64.3931 36.9928 64.4317 36.2036C64.4528 35.7407 64.5023 35.2795 64.5802 34.8226C65.4731 29.7114 69.7036 30.3297 69.9212 33.3419C70.0046 34.485 70.81 42.8402 67.57 43.2348Z" fill="#B25E47"/>
<path d="M67.5089 35.3043C67.3686 37.3219 65.9184 38.3551 64.3706 38.4548C64.3706 37.749 64.395 36.9924 64.4337 36.2033C64.4547 35.7403 64.5043 35.2791 64.5821 34.8222C65.4343 34.4582 67.6187 33.6772 67.5089 35.3043Z" fill="#914839"/>
<path d="M77.6561 55.1803C77.5178 55.6415 77.4085 56.1108 77.3287 56.5857C77.3063 56.7158 77.286 56.846 77.2656 56.9742C76.4622 61.9796 76.3626 66.623 76.3076 67.105C76.2527 67.587 71.77 67.4203 68.4344 67.2575C67.1348 67.1925 65.4548 67.2108 63.8704 67.223C61.389 67.2413 59.1415 67.2474 58.9524 66.8955C58.8324 66.6677 58.511 65.3355 58.1612 63.625C58.1063 63.3586 58.0514 63.086 57.9944 62.8114C57.966 62.6731 57.9395 62.5308 57.9131 62.3884C57.8866 62.246 57.85 62.0609 57.8195 61.8982C57.789 61.7355 57.7524 61.5484 57.7199 61.3714C57.6487 60.9809 57.5775 60.5864 57.5165 60.1938C57.4554 59.8013 57.3863 59.4169 57.3273 59.0386C57.1394 57.9425 57.0104 56.8372 56.9409 55.7274C56.8165 53.2127 57.1254 50.6953 57.8541 48.2853C57.8724 48.2223 57.8907 48.1613 57.9049 48.1003C57.9334 47.9945 57.9599 47.8969 57.9843 47.785L58.0209 47.6203C58.0331 47.5653 58.0432 47.5104 58.0534 47.4555C58.0636 47.4006 58.0758 47.3457 58.0839 47.2928C58.0921 47.2399 58.1022 47.183 58.1104 47.1281C58.1287 47.0223 58.1429 46.9145 58.1571 46.8108C58.1856 46.5504 58.208 46.2942 58.2182 46.044C58.2182 46.0094 58.2182 45.9748 58.2182 45.9423C58.2182 45.7653 58.2182 45.5904 58.2182 45.4175C58.1995 44.6234 58.1103 43.8325 57.9517 43.0542C57.6954 41.726 57.3517 40.7274 57.4371 40.2677C57.4778 40.042 57.7117 39.9057 58.1226 39.8467C58.151 39.8467 58.1815 39.8467 58.208 39.8365C59.2249 39.7186 61.1653 40.0053 63.8134 40.5525C63.8671 39.9582 63.9615 39.3683 64.0961 38.787C64.1223 38.6964 64.1778 38.617 64.2541 38.5614C64.3303 38.5058 64.4228 38.4771 64.5171 38.4799C64.806 38.4535 65.1965 38.5592 65.5707 38.5938C66.2073 38.6528 68.3734 38.2582 69.488 37.6704C69.7119 37.5396 69.9593 37.4539 70.2161 37.4182C70.751 37.3674 70.9361 37.7884 71.0053 38.364C71.0053 38.3884 71.0053 38.4148 71.0053 38.4392C71.0053 38.4636 71.0053 38.4921 71.0053 38.5206C71.0053 38.5491 71.0053 38.6264 71.0175 38.6813C71.0297 38.7362 71.0175 38.7626 71.0276 38.8053C71.0378 38.8481 71.0276 38.9172 71.0378 38.9742C71.048 39.0311 71.0378 39.1104 71.0378 39.1775C71.0378 39.2447 71.0378 39.3077 71.0378 39.3809C71.0378 39.4135 71.0378 39.4481 71.0378 39.4826C71.0378 39.5172 71.0378 39.5396 71.0378 39.5681C71.0378 39.5965 71.0378 39.6453 71.0378 39.684C71.0378 39.7226 71.0378 39.7816 71.0378 39.8284C71.0378 39.8752 71.0378 39.924 71.0378 39.9708V40.0623C71.0378 40.4691 71.0378 40.7945 71.0378 40.7945C73.0514 40.0318 76.086 39.2528 78.3863 40.6664H78.3985C79.1472 41.1406 79.7664 41.7934 80.2005 42.566C80.3144 42.7586 80.4222 42.962 80.5239 43.1762C82.4643 47.2582 78.966 50.7301 77.6561 55.1803Z" fill="#7DE375"/>
<path d="M80.2471 42.5578C78.3047 42.7958 76.1305 44.0568 74.0905 46.4812C73.7732 46.8581 73.46 47.2649 73.1508 47.7015C69.8701 52.292 64.1569 51.0758 61.9644 47.728C61.7243 47.3651 61.5277 46.9753 61.3786 46.5666C60.6769 44.6365 59.3915 43.5402 57.9576 43.0561C57.7013 41.728 57.3576 40.7293 57.443 40.2697C57.4837 40.0439 57.7176 39.9076 58.1284 39.8487C58.1569 39.8487 58.1874 39.8487 58.2139 39.8385C59.2308 39.7205 61.1711 40.0073 63.8193 40.5544C63.8729 39.9602 63.9674 39.3703 64.102 38.789C64.1281 38.6983 64.1837 38.619 64.2599 38.5633C64.3361 38.5077 64.4287 38.4791 64.523 38.4819C64.8118 38.4554 65.2023 38.5612 65.5766 38.5958C66.2132 38.6548 68.3793 38.2602 69.4938 37.6724C69.7178 37.5416 69.9651 37.4559 70.222 37.4202C70.7569 37.3693 70.942 37.7903 71.0111 38.3659C71.0111 38.3903 71.0111 38.4168 71.0111 38.4412C71.0111 38.4656 71.0111 38.4941 71.0111 38.5225C71.0111 38.551 71.0111 38.6283 71.0233 38.6832C71.0355 38.7381 71.0233 38.7646 71.0335 38.8073C71.0437 38.85 71.0335 38.9192 71.0437 38.9761C71.0538 39.0331 71.0437 39.1124 71.0437 39.1795C71.0437 39.2466 71.0437 39.3097 71.0437 39.3829C71.0437 39.4154 71.0437 39.45 71.0437 39.4846C71.0437 39.5192 71.0437 39.5415 71.0437 39.57C71.0437 39.5985 71.0437 39.6473 71.0437 39.6859C71.0437 39.7246 71.0437 39.7836 71.0437 39.8303C71.0437 39.8771 71.0437 39.9259 71.0437 39.9727V40.0642C71.0437 40.471 71.0437 40.7964 71.0437 40.7964C73.0572 40.0337 76.0918 39.2548 78.3922 40.6683H78.4044C79.1667 41.1345 79.8002 41.7841 80.2471 42.5578Z" fill="#AFFFA8"/>
<path d="M58.1489 45.9414C58.1424 46.5175 58.0853 47.0919 57.978 47.658C57.9292 47.9001 57.8723 48.1462 57.8031 48.3963C57.1003 50.8136 56.8182 53.3337 56.9692 55.8465C57.0502 56.9555 57.1901 58.0594 57.3882 59.1536C57.4513 59.5299 57.5204 59.9163 57.5916 60.3068C57.8072 61.4784 58.0492 62.6804 58.2791 63.738C58.6472 65.4424 58.9828 66.7726 59.1048 66.9923" stroke="#5FC557" stroke-width="0.138305" stroke-linecap="round" stroke-linejoin="round"/>
<path d="M77.3123 56.8866C76.5618 61.9021 76.5109 66.5435 76.4601 67.0255C76.4092 67.5076 71.9265 67.3916 68.5909 67.2615C67.2913 67.2106 65.6113 67.2472 64.0269 67.2757C65.3286 66.1916 68.0214 64.4099 70.6045 65.5367C74.1903 67.1008 75.8804 62.1666 73.6919 61.7252C71.5035 61.2838 71.3896 58.7943 70.9624 56.7808L72.7523 56.0547L77.3123 56.8866Z" fill="#5FC557"/>
<path d="M63.6891 40.6016C63.6668 40.9897 63.6668 41.3788 63.6891 41.767" stroke="#5FC557" stroke-width="0.138305" stroke-linecap="round" stroke-linejoin="round"/>
<path d="M70.9625 40.6875C70.934 41.4522 70.8994 41.9506 70.8994 41.9506" stroke="#5FC557" stroke-width="0.138305" stroke-linecap="round" stroke-linejoin="round"/>
<path d="M65.4263 41.8691C66.4107 42.1519 67.9239 42.1681 68.7903 41.8691" stroke="#5FC557" stroke-width="0.138305" stroke-linecap="round" stroke-linejoin="round"/>
<path d="M86.719 59.8349C85.702 61.1264 82.9379 61.3745 80.6885 59.5786C80.061 59.0719 79.5239 58.4626 79.1 57.7766C78.8518 57.382 78.5325 56.784 78.1766 56.0803C78.02 55.7671 77.8532 55.4335 77.6844 55.0878C76.7386 53.1515 75.6505 50.8044 74.963 49.462C74.6181 48.7838 74.3599 48.0649 74.1942 47.3223C74.1251 47.0274 74.0702 46.7284 74.0274 46.4274C73.5088 42.8132 74.8064 39.0179 78.3108 40.5535H78.321C79.0186 40.8606 79.761 41.5257 80.5074 42.3983C82.3176 44.5217 84.1359 47.8898 85.2952 50.422C85.5596 50.9976 85.7874 51.5305 85.9746 51.9962C87.3291 55.3644 87.9861 58.2118 86.719 59.8349Z" fill="#7DE375"/>
<path d="M81.4004 54.1236C81.3211 55.3867 79.8384 55.9074 78.1767 56.0802C78.0201 55.767 77.8533 55.4335 77.6845 55.0877C76.7387 53.1514 75.6506 50.8043 74.9631 49.4619C74.6183 48.7837 74.36 48.0649 74.1943 47.3223C75.6181 47.3528 77.1699 47.8735 77.3123 50.3162C77.4099 51.984 81.5794 51.2334 81.4004 54.1236Z" fill="#5FC557"/>
<path d="M80.5074 42.4044C80.3854 42.4044 80.2634 42.4247 80.1434 42.441C78.203 42.6972 76.043 43.9827 74.0274 46.4274C73.5088 42.8132 74.8064 39.0179 78.3108 40.5535H78.321C79.0186 40.8667 79.761 41.5318 80.5074 42.4044Z" fill="#AFFFA8"/>
<path d="M79.0999 57.7769C78.8517 57.3823 78.5324 56.7843 78.1765 56.0806C78.0199 55.7674 77.8531 55.4338 77.6843 55.0881C76.7385 53.1518 75.6504 50.8047 74.9629 49.4623C74.618 48.7841 74.3598 48.0653 74.1941 47.3227C74.125 47.0277 74.0701 46.7288 74.0273 46.4277" stroke="#5FC557" stroke-width="0.138305" stroke-linecap="round" stroke-linejoin="round"/>
<path d="M86.719 59.8345C85.702 61.126 82.938 61.3742 80.6885 59.5782C81.243 59.4002 81.8307 59.3508 82.4071 59.4338C84.6973 59.7674 86.957 58.8237 85.1956 56.1572C83.7719 53.9952 84.7888 51.2759 85.2953 50.4277C85.5597 51.0033 85.7875 51.5362 85.9746 52.002C87.3292 55.364 87.9861 58.2115 86.719 59.8345Z" fill="#5FC557"/>
<path d="M72.0102 25.6545C71.5811 25.9596 71.3167 26.0084 71.3269 26.468C71.337 26.9277 71.1377 27.0619 70.9363 27.1372C70.735 27.2124 70.9608 27.5541 70.8977 27.8836C70.8347 28.2131 69.9886 28.5263 69.9886 28.5263L64.3689 25.8823C63.9011 25.3128 64.1045 24.9975 64.255 24.6924C64.2696 24.6638 64.2773 24.6321 64.2773 24.5999C64.2773 24.5677 64.2696 24.536 64.255 24.5073C64.1757 24.304 63.834 24.1107 63.9214 23.8728C64.0333 23.5697 64.3282 23.5189 64.6902 23.5067C65.0523 23.4945 64.973 22.4897 64.8062 22.2172C64.6394 21.9446 64.7675 21.2836 65.335 21.3223C65.9025 21.3609 66.118 21.247 66.1689 20.9806C66.2031 20.8878 66.2561 20.8031 66.3245 20.7317C66.3929 20.6603 66.4753 20.6038 66.5665 20.5656C66.6577 20.5274 66.7558 20.5085 66.8546 20.5099C66.9535 20.5113 67.051 20.533 67.1411 20.5738C67.5824 20.8036 67.9547 20.5494 68.2272 20.2972C68.2428 20.2814 68.2598 20.2671 68.278 20.2545C68.5689 20.0287 69.1791 19.9046 69.4272 20.2972C69.6753 20.6897 70.0089 20.8789 70.5397 20.9073C71.0706 20.9358 71.2211 21.3873 71.1072 21.8287C70.9933 22.2701 71.158 22.4226 71.4997 22.626C71.6788 22.7673 71.8107 22.9596 71.8779 23.1776C71.9451 23.3955 71.9444 23.6288 71.876 23.8463C71.8073 23.975 71.7826 24.1226 71.8057 24.2666C71.8289 24.4106 71.8986 24.543 72.0041 24.6436C72.173 24.8348 72.4394 25.3514 72.0102 25.6545Z" fill="#473526"/>
<path d="M69.8684 32.8788C69.4246 33.0691 68.9433 33.156 68.4609 33.133C66.5308 33.0435 61.8182 34.7886 61.8182 34.7886C61.027 34.8862 60.545 35.1588 60.903 35.5533C61.2609 35.9479 61.5965 37.0869 60.6813 37.1805C60.5013 37.1974 60.3202 37.1974 60.1403 37.1805C59.6033 37.1337 59.3654 36.9079 59.4325 36.6964C59.5179 36.4259 60.0996 36.493 60.2094 36.375C60.3193 36.2571 60.3457 36.0171 59.9877 35.6815C59.6298 35.3459 59.3776 34.8293 59.7416 34.3025C60.1057 33.7757 60.842 33.2957 60.3965 32.9235C59.9511 32.5513 59.583 32.2177 59.7864 31.7723C59.9898 31.3269 61.023 30.6964 60.5409 30.1452C60.0589 29.594 59.6257 28.8964 60.5654 28.0422C61.505 27.1879 62.4569 27.3506 62.3206 26.6184C62.1843 25.8862 62.2982 25.1825 63.3111 25.3554C64.324 25.5283 64.4745 25.455 64.9199 25.2069C65.3654 24.9588 65.9572 25.095 66.5287 25.5913C67.1003 26.0876 67.6413 25.5283 68.3328 25.6645C69.0243 25.8008 68.3328 26.4679 69.2115 26.6184C70.0901 26.7689 70.387 26.8035 70.4867 27.6354C70.5864 28.4672 71.1681 28.4855 71.2881 28.75C71.5382 29.2808 71.1416 29.653 71.0298 29.9703C70.9179 30.2876 71.164 30.4747 71.3593 30.8001C71.6704 31.3513 71.0074 32.3947 69.8684 32.8788Z" fill="#604730"/>
<path d="M70.1695 31.3922C70.105 31.8948 70.0023 32.3919 69.8624 32.8789C69.4186 33.0693 68.9373 33.1562 68.455 33.1332C66.5248 33.0437 61.8122 34.7888 61.8122 34.7888C61.0211 34.8864 60.539 35.1589 60.897 35.5535C61.255 35.9481 61.5905 37.0871 60.6753 37.1806C60.4954 37.1976 60.3142 37.1976 60.1343 37.1806C60.8197 37.0688 61.0028 36.5806 60.6489 35.9339C60.1628 35.045 60.3377 34.5101 60.8258 34.0078C61.3139 33.5054 60.5146 32.2932 60.8258 31.6586C61.137 31.024 61.6658 30.8003 61.4543 29.8423C61.2427 28.8844 61.3465 28.4186 62.1092 27.8918C62.8719 27.365 63.5024 27.2572 63.9072 26.6227C64.3119 25.9881 65.3675 25.5854 65.7275 26.3461C66.0875 27.1067 66.2034 27.6213 67.2143 27.3122C68.2251 27.003 68.9024 27.3834 68.5424 28.2518C68.1824 29.1203 68.3533 29.944 68.9878 30.0498C69.6224 30.1556 70.2956 30.1881 70.1695 31.3922Z" fill="#473526"/>
<path d="M69.4493 34.2992C65.652 37.0612 64.0147 37.9703 62.1985 36.4429C61.3523 35.733 61.2059 34.2829 61.3727 32.8022C61.4348 32.2741 61.5299 31.7503 61.6574 31.2341C61.8474 30.3943 62.139 29.5808 62.5259 28.8117C63.3395 27.3392 65.2147 27.2659 65.4039 27.3392C65.593 27.4124 65.652 27.5222 65.469 27.9493C65.2859 28.3764 65.4873 28.6958 66.014 28.712C66.5408 28.7283 67.1429 29.0944 67.0859 29.6212C67.0515 29.8776 67.0935 30.1386 67.2067 30.3712C67.32 30.6039 67.4994 30.7979 67.7225 30.929C68.2127 31.2381 68.1293 31.712 68.1944 32.0008C68.2595 32.2897 68.8676 32.611 69.0324 32.2185C69.1971 31.8259 70.1388 30.9656 70.9035 31.7486C71.6683 32.5317 70.993 34.3541 69.4493 34.2992Z" fill="#B25E47"/>
<path d="M64.8976 32.3245C65.0807 32.7049 65.7396 32.7659 66.3661 32.4629C66.9925 32.1598 67.3566 31.6066 67.1796 31.2262C67.0027 30.8459 66.3396 30.7829 65.7112 31.0879C65.0827 31.393 64.7146 31.9442 64.8976 32.3245Z" fill="#A0503D"/>
<path d="M62.3371 32.6541C62.1642 32.8961 61.7819 32.9409 61.373 32.8006C61.4352 32.2724 61.5303 31.7487 61.6578 31.2324C61.6922 31.2522 61.7255 31.2739 61.7575 31.2975C62.3249 31.7043 62.5832 32.3124 62.3371 32.6541Z" fill="#A0503D"/>
<path d="M62.2637 30.8189C62.2633 30.8704 62.2782 30.921 62.3066 30.964C62.3349 31.0071 62.3754 31.0408 62.423 31.0608C62.4705 31.0808 62.5229 31.0863 62.5736 31.0765C62.6242 31.0667 62.6708 31.042 62.7074 31.0057C62.744 30.9694 62.769 30.923 62.7792 30.8724C62.7894 30.8219 62.7844 30.7694 62.7647 30.7217C62.7451 30.674 62.7117 30.6333 62.6689 30.6046C62.626 30.5759 62.5756 30.5605 62.524 30.5605C62.4553 30.5605 62.3894 30.5877 62.3406 30.6361C62.2919 30.6845 62.2642 30.7502 62.2637 30.8189Z" fill="#683F1D"/>
<path d="M63.8501 30.9576C63.8501 31.0091 63.8654 31.0594 63.894 31.1022C63.9226 31.1451 63.9632 31.1784 64.0108 31.1981C64.0584 31.2178 64.1107 31.223 64.1612 31.2129C64.2117 31.2029 64.2581 31.1781 64.2945 31.1417C64.3309 31.1053 64.3557 31.0589 64.3658 31.0084C64.3758 30.9579 64.3707 30.9056 64.351 30.858C64.3313 30.8104 64.2979 30.7697 64.2551 30.7411C64.2123 30.7125 64.1619 30.6973 64.1104 30.6973C64.0414 30.6973 63.9752 30.7247 63.9264 30.7735C63.8775 30.8223 63.8501 30.8886 63.8501 30.9576Z" fill="#683F1D"/>
<path d="M69.3091 33.1346C69.3599 32.5752 69.9986 31.8044 70.6881 32.3739" stroke="#934735" stroke-width="0.138305" stroke-linecap="round" stroke-linejoin="round"/>
<path d="M69.3335 32.9959C69.8115 32.1823 70.7735 33.2989 69.6528 33.5227" stroke="#934735" stroke-width="0.138305" stroke-linecap="round" stroke-linejoin="round"/>
<path d="M63.0058 32.4852C62.7211 32.353 62.6092 32.0947 62.6336 32.0316C62.658 31.9686 63.5489 31.3116 63.378 30.3008" stroke="#934735" stroke-width="0.138305" stroke-linecap="round" stroke-linejoin="round"/>
<path d="M64.1106 29.0365C64.0293 29.5633 65.3086 30.0778 65.5059 29.7463C65.6747 29.4616 64.2286 28.2697 64.1106 29.0365Z" fill="#604730"/>
<path d="M61.9626 29.3852C61.9748 29.5357 63.3476 29.5052 63.3293 28.9784C63.311 28.4516 61.928 28.9418 61.9626 29.3852Z" fill="#604730"/>
<path d="M63.1401 33.0176C63.6161 32.8924 64.0807 32.7278 64.5293 32.5254C64.5293 32.5254 64.6717 33.404 64.1103 33.5647C64.0107 33.5934 63.9063 33.602 63.8034 33.5899C63.7004 33.5778 63.6009 33.5454 63.5106 33.4945C63.4203 33.4436 63.341 33.3752 63.2774 33.2933C63.2138 33.2114 63.1671 33.1177 63.1401 33.0176Z" fill="white" stroke="#934735" stroke-width="0.138305" stroke-linecap="round" stroke-linejoin="round"/>
<path d="M70.3726 23.5217C70.1692 24.1766 69.3983 23.4994 69.3373 24.435C69.2763 25.3705 67.4092 25.1082 66.8376 24.199C66.3698 23.4505 65.0437 23.7312 64.2648 24.5224C64.1854 24.319 63.8437 24.1258 63.9312 23.8878C64.0431 23.5848 64.338 23.5339 64.7 23.5217C65.062 23.5095 64.9827 22.5048 64.8159 22.2322C64.6492 21.9597 64.7773 21.2987 65.3448 21.3373C65.9122 21.376 66.1278 21.2621 66.1787 20.9956C66.2129 20.9029 66.2658 20.8182 66.3343 20.7468C66.4027 20.6754 66.485 20.6188 66.5762 20.5807C66.6674 20.5425 66.7655 20.5235 66.8644 20.5249C66.9633 20.5264 67.0608 20.5481 67.1509 20.5889C67.5922 20.8187 67.9644 20.5644 68.237 20.3122C68.2525 20.2964 68.2696 20.2821 68.2878 20.2695C68.5054 20.8797 68.6641 21.7299 69.5082 21.8051C70.6858 21.9129 70.5759 22.8648 70.3726 23.5217Z" fill="#604730"/>
<path d="M46.0576 41.5138C46.1634 40.8426 48.0488 40.3423 49.1451 40.1328L49.5641 42.842C49.5641 42.842 46.5498 42.4108 46.0576 41.5138Z" fill="#5FC557"/>
<path d="M47.8109 42.9536C47.5933 40.0207 47.5933 37.5536 47.5323 36.6099C47.4713 35.6661 47.518 34.6797 48.6184 34.2261C48.6184 34.2261 48.6184 33.3617 49.8733 33.2092C49.8733 33.2092 49.7147 32.4343 50.7641 32.4546C50.762 32.382 50.7767 32.3099 50.807 32.244C50.8374 32.1781 50.8826 32.1201 50.9392 32.0745C50.9957 32.029 51.0621 31.9972 51.133 31.9816C51.2039 31.9661 51.2774 31.9671 51.3479 31.9848C52.0353 32.1048 52.257 32.5258 52.257 32.5258C53.1682 32.3224 53.6808 33.2763 53.6319 34.0553C53.5831 34.8343 53.5282 35.6824 53.1519 36.4675C52.7757 37.2526 52.2977 38.5522 52.2977 38.5522L52.3282 40.1997C52.3282 40.1997 51.6286 45.498 47.8109 42.9536Z" fill="#B25E47"/>
<path d="M47.532 36.6099C47.469 35.6763 47.5178 34.6797 48.6181 34.2261C48.6181 34.2261 48.6181 33.3617 49.873 33.2092C49.873 33.2092 49.7144 32.4343 50.7639 32.4546C50.7617 32.382 50.7764 32.3099 50.8067 32.244C50.8371 32.1781 50.8823 32.1201 50.9389 32.0745C50.9955 32.029 51.0618 31.9972 51.1327 31.9816C51.2036 31.9661 51.2772 31.9671 51.3476 31.9848C52.0351 32.1048 52.2568 32.5258 52.2568 32.5258C53.1679 32.3224 53.6805 33.2763 53.6317 34.0553" stroke="#934735" stroke-width="0.138305" stroke-linecap="round" stroke-linejoin="round"/>
<path d="M52.2571 32.5254C51.3195 32.9871 50.63 33.8535 50.9127 34.2786C51.1954 34.7037 52.2592 34.1708 52.4036 34.0345" stroke="#934735" stroke-width="0.138305" stroke-linecap="round" stroke-linejoin="round"/>
<path d="M50.6846 32.457C51.0385 32.5038 51.7361 32.8964 51.7361 32.8964" stroke="#934735" stroke-width="0.138305" stroke-linecap="round" stroke-linejoin="round"/>
<path d="M49.873 33.209C50.2841 33.2258 50.6869 33.3298 51.0547 33.5141" stroke="#934735" stroke-width="0.138305" stroke-linecap="round" stroke-linejoin="round"/>
<path d="M50.894 35.4849C51.2073 35.2469 51.4778 34.8279 51.3964 34.4395" stroke="#934735" stroke-width="0.138305" stroke-linecap="round" stroke-linejoin="round"/>
<path d="M48.6104 34.2342C49.3588 33.9271 50.1195 33.5793 50.3453 34.0898C50.571 34.6003 50.6951 36.1725 50.3453 36.386C49.9954 36.5996 49.4097 36.4227 49.31 36.0118C49.2104 35.601 49.1351 35.0376 49.1351 35.0376" stroke="#934735" stroke-width="0.138305" stroke-linecap="round" stroke-linejoin="round"/>
<path d="M50.0073 36.4746C50.3225 36.8631 50.2107 38.238 49.873 38.6977" stroke="#934735" stroke-width="0.138305" stroke-linecap="round" stroke-linejoin="round"/>
<path d="M52.4747 60.2024C51.8646 61.3597 50.99 61.9902 49.8185 61.5976C47.6117 60.8492 46.733 58.7319 46.4117 56.6634C46.0741 54.5054 46.3385 52.3922 46.3283 51.9529C46.3059 51.0763 46.0659 41.5088 46.0659 41.5088C46.4483 41.6614 47.028 41.6654 47.7297 41.5332C48.2641 41.4272 48.7887 41.2761 49.2978 41.0817C50.3645 40.6729 51.3795 40.1405 52.3222 39.4953L52.3629 39.4668C52.3629 39.4668 52.5541 41.8383 52.8124 44.5637C53.03 46.8987 53.2985 49.4919 53.5385 51.0722C53.9168 53.6471 53.6951 57.9407 52.4747 60.2024Z" fill="#7DE375"/>
<path d="M52.4747 60.203C51.8645 61.3603 50.9899 61.9908 49.8184 61.5983C47.6116 60.8498 46.733 58.7325 46.4116 56.6641C46.8046 57.3322 47.2683 57.9561 47.7947 58.5251C49.4238 60.2763 51.1262 60.6525 52.4747 60.203Z" fill="#5FC557"/>
<path d="M52.3564 39.4727C52.3564 39.4727 53.0154 47.6449 53.532 51.0842C53.8136 53.2716 53.745 55.4899 53.3286 57.6557" stroke="#5FC557" stroke-width="0.138305" stroke-linecap="round" stroke-linejoin="round"/>
<path d="M75.6893 49.3061L67.8426 46.0285C67.2238 45.7701 66.5126 46.0622 66.2542 46.681L61.5946 57.8364C61.3361 58.4552 61.6282 59.1664 62.247 59.4249L70.0938 62.7024C70.7126 62.9608 71.4237 62.6687 71.6822 62.05L76.3418 50.8945C76.6002 50.2757 76.3081 49.5645 75.6893 49.3061Z" fill="#EDEDED"/>
<path d="M74.8068 48.9357L67.8421 46.0266C67.2233 45.7681 66.5122 46.0602 66.2537 46.679L61.5941 57.8345C61.3357 58.4533 61.6278 59.1644 62.2465 59.4229L69.2112 62.332C69.83 62.5905 70.5412 62.2984 70.7996 61.6796L75.4592 50.5241C75.7177 49.9053 75.4256 49.1941 74.8068 48.9357Z" fill="#F9F9F9" stroke="#DDDDDD" stroke-width="0.183051" stroke-linecap="round" stroke-linejoin="round"/>
<path d="M68.3042 47.8843C68.3042 47.9889 68.2732 48.0911 68.2151 48.1781C68.157 48.265 68.0744 48.3328 67.9778 48.3729C67.8811 48.4129 67.7748 48.4233 67.6722 48.4029C67.5697 48.3825 67.4754 48.3322 67.4015 48.2582C67.3275 48.1843 67.2771 48.09 67.2567 47.9875C67.2363 47.8849 67.2468 47.7785 67.2868 47.6819C67.3269 47.5853 67.3946 47.5027 67.4816 47.4446C67.5686 47.3865 67.6708 47.3555 67.7754 47.3555C67.8449 47.3552 67.9138 47.3687 67.9781 47.3952C68.0424 47.4217 68.1008 47.4606 68.1499 47.5098C68.1991 47.5589 68.238 47.6173 68.2645 47.6816C68.291 47.7459 68.3045 47.8148 68.3042 47.8843Z" fill="#EDEDED"/>
<path d="M69.1768 48.4069C69.1772 48.4594 69.1619 48.5108 69.133 48.5546C69.1041 48.5984 69.0629 48.6326 69.0145 48.6528C68.9661 48.6731 68.9128 48.6785 68.8613 48.6684C68.8098 48.6582 68.7625 48.633 68.7254 48.5959C68.6883 48.5588 68.6631 48.5115 68.6529 48.46C68.6428 48.4085 68.6482 48.3552 68.6685 48.3068C68.6887 48.2584 68.7229 48.2172 68.7667 48.1883C68.8105 48.1594 68.8619 48.1441 68.9144 48.1445C68.9838 48.1451 69.0502 48.1729 69.0993 48.222C69.1484 48.2711 69.1762 48.3375 69.1768 48.4069Z" fill="#EDEDED"/>
<path d="M68.7904 57.179C68.2717 56.998 68.0032 55.9953 67.9341 55.1309L69.968 55.3709C69.968 55.3709 69.9822 57.3092 68.7904 57.179Z" fill="#5FC557"/>
<path d="M69.4739 56.6686C68.8968 56.2566 68.2995 55.8737 67.6841 55.5215C67.4522 55.3954 66.1363 55.2469 65.221 54.7425C64.6044 54.394 64.01 54.0075 63.4414 53.5852L63.0793 54.2584C63.0793 54.2584 62.3675 53.4896 62.2658 52.796C62.1641 52.1025 62.4448 52.0801 62.6115 51.9316C62.7783 51.7832 62.6746 51.5635 62.6644 51.2055C62.6542 50.8476 62.9593 50.7743 63.0549 50.6482C63.1505 50.5221 63.0651 50.1947 63.0448 49.7533C63.0244 49.312 63.5492 49.2896 63.6326 49.0374C63.7159 48.7852 63.7912 47.9737 64.5071 48.1852C65.2231 48.3967 68.339 50.7113 68.5424 50.8171C68.8452 50.9254 69.1551 51.0131 69.4698 51.0794C69.4698 51.0794 72.0203 55.0679 69.4739 56.6686Z" fill="#B25E47"/>
<path d="M63.4414 53.5852L63.0793 54.2584C63.0793 54.2584 62.3675 53.4896 62.2658 52.796C62.1641 52.1025 62.4448 52.0801 62.6115 51.9316C62.7783 51.7832 62.6746 51.5635 62.6644 51.2055C62.6542 50.8476 62.9593 50.7743 63.0549 50.6482C63.1505 50.5221 63.0651 50.1947 63.0448 49.7533C63.0244 49.312 63.5492 49.2896 63.6326 49.0374C63.7159 48.7852 63.7912 47.9737 64.5071 48.1852" stroke="#934735" stroke-width="0.138305" stroke-linecap="round" stroke-linejoin="round"/>
<path d="M63.4414 53.5861C63.0854 53.2871 63.0122 53.2383 63.0122 53.2383" stroke="#934735" stroke-width="0.138305" stroke-linecap="round" stroke-linejoin="round"/>
<path d="M87.1181 59.2981C86.4652 61.3035 84.0306 63.0811 78.4801 60.9821L78.177 60.8642C72.4069 58.576 68.7886 57.1767 68.7886 57.1767C69.2873 55.0668 69.2873 52.8697 68.7886 50.7598C72.1018 51.6872 80.8638 53.4852 83.9757 54.3984C84.1791 54.4594 84.3825 54.5225 84.5635 54.6018C87.175 55.5659 87.7486 57.3557 87.1181 59.2981Z" fill="#7DE375"/>
<path d="M78.177 60.8651C72.4068 58.577 68.7905 57.1797 68.7905 57.1797" stroke="#5FC557" stroke-width="0.138305" stroke-linecap="round" stroke-linejoin="round"/>
<path d="M68.7905 50.7598C71.7966 51.6018 79.2936 53.1598 82.979 54.1238" stroke="#5FC557" stroke-width="0.138305" stroke-linecap="round" stroke-linejoin="round"/>
<path d="M87.118 59.2982C86.4651 61.3036 84.0305 63.0812 78.48 60.9822C78.48 60.9822 80.1071 59.1009 82.4074 59.4344C84.7078 59.768 86.9573 58.8243 85.1959 56.1578C84.8839 55.6833 84.6689 55.1517 84.5634 54.5938C87.1749 55.566 87.7485 57.3558 87.118 59.2982Z" fill="#5FC557"/>
<path d="M107.863 41.7585C107.649 42.1024 107.337 42.3743 106.966 42.5395C104.385 43.7598 98.5502 41.4371 98.5502 41.3659C98.5502 41.2947 97.4234 31.7293 99.0342 28.29C99.3373 27.6453 99.7359 27.2181 100.255 27.1144C102.921 27.033 105.209 27.9381 105.6 29.8622C105.99 31.7863 104.829 34.0032 105.168 35.372C105.508 36.7408 106.889 36.7693 107.469 37.0622C108.518 37.589 109.501 39.0392 107.863 41.7585Z" fill="#DD6819"/>
<path d="M106.966 42.5386C104.385 43.7589 98.5502 41.4362 98.5502 41.365C98.5502 41.2938 97.4234 31.7284 99.0342 28.2891C103.395 28.4477 104.119 30.0565 103.792 32.2857C103.444 34.6552 101.857 37.9033 105.311 40.2423C106.352 40.9501 106.82 41.7555 106.966 42.5386Z" fill="#CC5E0D"/>
<path d="M101.434 32.9609C102.071 33.6748 102.164 34.5738 101.902 35.5867C101.64 36.5996 101.233 38.0803 101.737 39.5426" stroke="#FF79A0" stroke-width="0.138305" stroke-linecap="round" stroke-linejoin="round"/>
<path d="M104.359 32.0586C104.327 33.4152 103.918 34.3488 103.802 35.6261C103.686 36.9033 104.475 37.6396 105.474 38.0322C105.888 38.2049 106.217 38.5347 106.389 38.9493C106.561 39.364 106.562 39.8298 106.391 40.245" stroke="#FF79A0" stroke-width="0.138305" stroke-linecap="round" stroke-linejoin="round"/>
<path d="M103.658 40.0859C102.698 38.9713 102.51 38.1557 103.084 38.0703C103.658 37.9848 104.786 38.477 104.672 38.9713C104.559 39.4655 103.828 39.256 103.859 39.014" stroke="#FF79A0" stroke-width="0.138305" stroke-linecap="round" stroke-linejoin="round"/>
<path d="M99.1645 46.6097C96.4391 48.0334 94.456 46.6727 94.1998 45.1636C94.033 44.1751 94.1306 41.8971 94.1876 39.5297C94.216 38.291 94.2364 37.0239 94.1998 35.9093C94.1998 35.7344 94.1998 35.5656 94.1998 35.3988C94.1998 28.3534 99.5815 29.9866 100.019 32.7141C100.295 34.4449 100.72 37.8924 100.928 39.7107C101.135 41.529 101.898 45.1859 99.1645 46.6097Z" fill="#FEBD9D"/>
<path d="M94.1875 39.5286C94.216 38.29 94.2363 37.0228 94.1997 35.9083C94.1997 35.7333 94.1997 35.5645 94.1997 35.3977C95.538 35.3327 97.6573 35.2676 97.6573 35.2676C98.0478 38.0154 96.4817 39.7889 94.1875 39.5286Z" fill="#F4A789"/>
<path d="M84.555 70.8695C84.8011 71.2457 86.5889 69.8525 87.1014 69.039L85.2851 66.5332C85.2851 66.5332 83.8492 69.7773 84.555 70.8695Z" fill="#A7AAF0"/>
<path d="M88.9664 64.1478C91.2037 67.5627 92.241 68.6406 92.4017 70.0623C92.5624 71.484 91.9665 75.0128 90.3861 75.6088C88.8058 76.2047 85.159 73.7051 85.0207 73.1335C84.8824 72.562 86.6132 72.8122 87.4227 73.2006C87.4227 73.2006 85.877 71.1261 85.877 68.8013C85.877 68.2054 83.7373 67.0359 83.7373 67.0359C83.7373 67.0359 85.5088 61.7173 88.9664 64.1478Z" fill="#FEBD9D"/>
<path d="M115.918 89.8458C108.988 87.3807 100.46 84.999 91.4458 83.0058V78.9664C91.4458 77.8742 91.5719 76.0275 91.7346 74.0281C91.8668 72.3766 92.0234 70.6214 92.1414 69.1061C92.2492 67.8329 92.3326 66.7264 92.3692 65.9922L95.117 65.9637L100.244 65.9149L110.713 65.8112L112.411 65.7949C112.604 70.6173 114.295 76.3387 115.484 80.681C116.339 83.7766 116.117 87.7671 115.918 89.8458Z" fill="#683F1D"/>
<path d="M110.034 73.8457C109.344 76.0525 110.078 78.2471 111.413 78.9671" stroke="#91613D" stroke-width="0.138305" stroke-linecap="round" stroke-linejoin="round"/>
<path d="M84.5552 56.0547L85.7938 58.2188L89.4792 64.6581" stroke="#83ADDF" stroke-width="0.138305" stroke-linecap="round" stroke-linejoin="round"/>
<path d="M110.318 66.2685C109.79 66.3763 106.84 66.4719 103.482 66.5125C98.3977 66.5654 92.3774 66.4617 92.3774 65.9919C92.3774 65.2556 92.6988 64.5681 91.7794 62.9553C90.8601 61.3424 89.3388 60.0834 89.2025 57.1485C89.0662 54.2136 89.7537 50.9471 89.7537 50.9471L88.3116 52.3708L84.555 56.0542L85.7937 58.2183L89.4791 64.6576C89.4791 64.6576 84.5103 66.5898 84.555 70.8692C84.555 70.8692 77.7476 62.4041 75.7238 59.5058C73.7001 56.6075 75.9984 53.2942 79.2649 49.8895C80.892 48.1892 82.6798 45.899 84.4655 43.9708C86.2513 42.0427 88.0513 40.4807 89.7089 40.2427C90.6466 40.1085 91.9462 39.9925 93.3455 39.899C93.6181 39.8786 93.8927 39.8603 94.1713 39.8441C94.096 42.718 94.9259 43.2488 94.9259 43.2488C95.3326 43.4888 95.3754 43.377 95.412 43.859C95.4486 44.341 95.6723 45.7078 96.0649 45.7078C96.6079 45.7078 96.9577 44.8169 97.4174 43.5275C97.7204 41.9858 99.6242 41.3837 100.238 40.5458C100.451 40.2442 100.6 39.9023 100.676 39.541H100.901C101.257 39.6285 101.687 39.7281 102.156 39.8237C103.377 40.0719 104.876 40.2997 106.092 40.2427C107.705 40.1695 112.428 40.2651 113.833 43.9932C113.833 43.9932 113.833 44.0034 113.833 44.0095C113.892 44.1681 113.945 44.3349 113.994 44.5078C114.03 44.6441 114.063 44.7946 114.091 44.9573C114.925 49.8305 111.61 66 110.318 66.2685Z" fill="#C3CBF8"/>
<path d="M105.763 53.5215C102.997 54.4917 102.256 58.3113 102.883 59.8489C103.509 61.3866 101.372 62.1391 99.3315 62.1391C96.9824 62.1391 94.1898 64.6103 95.3857 68.1452L107.386 62.6537L105.763 53.5215Z" fill="#A7AAF0"/>
<path d="M114.187 44.9938C114.158 44.9796 114.126 44.9694 114.097 44.9572C111.587 43.9647 108.648 44.5911 106.737 46.1775C106.251 46.5739 105.831 47.044 105.492 47.5708C103.204 51.1687 95.845 53.1335 93.4287 48.4169C91.4721 44.5931 88.5474 43.3952 84.4653 43.9728C86.2552 42.0447 88.0511 40.4826 89.7087 40.2447C90.6464 40.1104 91.946 39.9945 93.3453 39.9009C93.6179 39.8806 93.8925 39.8623 94.1711 39.846C94.0958 42.7199 94.9257 43.2508 94.9257 43.2508C95.3324 43.4908 95.3752 43.3789 95.4118 43.8609C95.4484 44.343 95.6721 45.7097 96.0647 45.7097C96.6077 45.7097 96.9575 44.8189 97.4172 43.5294C97.7202 41.9877 99.624 41.3857 100.238 40.5477C100.451 40.2462 100.6 39.9042 100.676 39.543H100.901C101.257 39.6304 101.686 39.7301 102.156 39.8257C103.377 40.0738 104.876 40.3016 106.092 40.2447C107.705 40.1714 112.427 40.267 113.833 43.9952C113.833 43.9952 113.833 44.0053 113.833 44.0114C113.973 44.3305 114.091 44.6587 114.187 44.9938Z" fill="#D0E5F7"/>
<path d="M96.7322 47.065C96.967 47.065 97.1573 46.8747 97.1573 46.6399C97.1573 46.4052 96.967 46.2148 96.7322 46.2148C96.4974 46.2148 96.3071 46.4052 96.3071 46.6399C96.3071 46.8747 96.4974 47.065 96.7322 47.065Z" fill="#83ADDF"/>
<path d="M95.831 46.4395C95.9571 47.5825 95.6032 49.6001 95.3327 51.6401C95.0622 53.6801 94.4174 56.4869 95.3327 59.3689C96.2479 62.251 96.4534 63.1357 96.4778 63.4876C96.5185 64.112 96.0425 64.8259 97.2263 65.3181" stroke="#83ADDF" stroke-width="0.138305" stroke-linecap="round" stroke-linejoin="round"/>
<path d="M94.9257 43.25C93.7949 42.9815 92.9895 44.3605 92.5583 45.5259C92.5156 42.1578 92.9223 40.61 93.3454 39.9002C93.7684 39.1903 94.1935 39.3246 94.1935 39.3246C94.1813 39.5076 94.1752 39.6805 94.1711 39.8452C94.0959 42.713 94.9257 43.25 94.9257 43.25Z" fill="#7DE375"/>
<path d="M102.168 41.15C101.867 43.068 100.665 45.712 100.665 45.712C100.665 45.712 99.7094 44.63 99.0383 43.8124C98.3671 42.9948 97.9786 43.129 97.4111 43.5317C97.7142 41.99 99.6179 41.388 100.232 40.55C100.445 40.2485 100.594 39.9065 100.669 39.5453C100.749 39.2041 100.785 38.8541 100.775 38.5039C101.112 38.5568 101.424 38.7118 101.67 38.9478C101.916 39.1839 102.084 39.4896 102.15 39.8239C102.241 40.2607 102.247 40.7108 102.168 41.15Z" fill="#7DE375"/>
<path d="M83.6416 68.0099C83.8653 66.8018 85.405 64.6906 87.8477 63.5801" stroke="#83ADDF" stroke-width="0.138305" stroke-linecap="round" stroke-linejoin="round"/>
<path d="M81.4004 53.3223C81.7591 53.3432 82.1062 53.4575 82.4072 53.6538C83.0173 54.0097 83.7638 54.7155 84.555 56.0538" stroke="#83ADDF" stroke-width="0.138305" stroke-linecap="round" stroke-linejoin="round"/>
<path d="M89.7534 50.9466L90.1175 49.3887" stroke="#83ADDF" stroke-width="0.138305" stroke-linecap="round" stroke-linejoin="round"/>
<path d="M88.3116 52.3659L84.555 56.0554C83.7638 54.7171 83.0093 54.0113 82.4072 53.6554C83.3815 53.2181 83.8615 53.6168 84.3333 53.9646C85.5008 54.831 86.6011 51.4019 88.3116 52.3659Z" fill="#A7AAF0"/>
<path d="M114.362 57.9066C113.925 61.5432 113.231 65.0435 112.515 67.4476C111.134 72.0768 107.666 72.3412 105.427 70.8646C104.129 70.0063 103.243 68.5642 103.417 67.0449C103.434 66.8944 103.456 66.7174 103.483 66.514C103.889 63.3981 105.25 54.2537 106.07 49.0551C106.214 48.0773 106.437 47.1129 106.737 46.171C107.803 42.9168 109.584 41.91 111.777 42.1357C112.684 42.2293 113.355 42.9046 113.833 43.9886C113.833 43.9886 113.833 43.9988 113.833 44.0049C113.971 44.3248 114.087 44.6537 114.181 44.9893C115.064 48.0483 114.938 53.0863 114.362 57.9066Z" fill="#C3CBF8"/>
<path d="M114.362 57.9062C113.925 61.5429 113.231 65.0432 112.515 67.4473C111.134 72.0764 107.667 72.3408 105.427 70.8642C105.847 70.46 106.372 70.1822 106.943 70.0629C109.471 69.5869 110.978 67.6486 110.604 63.5808C110.311 60.4934 113.03 58.6283 114.362 57.9062Z" fill="#A7AAF0"/>
<path d="M114.187 44.9951C114.159 44.9808 114.126 44.9707 114.097 44.9585C111.588 43.9659 108.649 44.5924 106.737 46.1788C107.803 42.9246 109.584 41.9178 111.777 42.1436C112.684 42.2371 113.355 42.9124 113.833 43.9964C113.833 43.9964 113.833 44.0066 113.833 44.0127C113.973 44.3318 114.091 44.66 114.187 44.9951Z" fill="#D0E5F7"/>
<path d="M104.093 62.1408C104.683 58.073 105.517 52.6323 106.07 49.0547C106.214 48.077 106.437 47.1125 106.737 46.1706C106.96 45.4567 107.272 44.7735 107.664 44.1367" stroke="#83ADDF" stroke-width="0.138305" stroke-linecap="round" stroke-linejoin="round"/>
<path d="M86.872 78.9653C85.8022 79.1687 84.7181 77.5721 84.3601 76.5897C84.0022 75.6074 86.8598 75.166 86.8598 75.166C86.8598 75.166 87.7893 78.2026 86.872 78.9653Z" fill="#A7AAF0"/>
<path d="M84.2255 71.8379C82.1347 72.5355 77.233 74.9721 76.9706 75.1755C76.7082 75.3789 75.9272 77.1606 75.8988 77.4291C75.8703 77.6975 75.551 80.4799 76.0716 80.6589C76.5923 80.8379 76.8547 79.6826 76.9706 78.9667C77.0811 78.4347 77.2567 77.9182 77.4933 77.4291C77.4933 77.4291 77.176 78.5538 77.6398 78.9667C77.9082 79.2067 78.5082 78.9667 78.5082 78.9667C78.5082 78.9667 78.6547 79.7009 79.6126 79.3531C79.6126 79.3531 79.5557 80.1321 80.1862 80.2847C80.8167 80.4372 81.4065 79.7335 81.6567 79.3186C81.7462 79.1782 81.5204 78.7674 81.2276 78.7674C81.2276 78.7674 81.4879 78.5986 82.271 78.5986C83.054 78.5986 83.9876 78.6433 84.5855 77.7382C85.1835 76.8331 85.8588 76.402 86.416 76.2575L84.2255 71.8379Z" fill="#FEBD9D"/>
<path d="M75.8989 77.4297C75.8684 77.7002 75.5511 80.4805 76.0718 80.6595C76.5925 80.8385 76.8549 79.6832 76.9708 78.9673C77.0813 78.4353 77.2568 77.9188 77.4935 77.4297C77.4935 77.4297 77.1762 78.5544 77.6399 78.9673C77.9084 79.2073 78.5084 78.9673 78.5084 78.9673C78.5084 78.9673 78.6549 79.7016 79.6128 79.3538C79.6128 79.3538 79.5559 80.1327 80.1864 80.2853C80.8169 80.4378 81.4067 79.7341 81.6569 79.3192C81.7464 79.1788 81.5206 78.768 81.2277 78.768" stroke="#EF8A66" stroke-width="0.138305" stroke-linecap="round" stroke-linejoin="round"/>
<path d="M81.3436 78.7872C81.1845 78.764 81.0222 78.7751 80.8677 78.8198" stroke="#EF8A66" stroke-width="0.138305" stroke-linecap="round" stroke-linejoin="round"/>
<path d="M81.0162 78.3066C80.8595 78.7134 80.6643 79.3358 80.7416 79.5148" stroke="#EF8A66" stroke-width="0.138305" stroke-linecap="round" stroke-linejoin="round"/>
<path d="M79.6149 79.5059C79.6009 78.678 79.8117 77.8619 80.2251 77.1445" stroke="#EF8A66" stroke-width="0.138305" stroke-linecap="round" stroke-linejoin="round"/>
<path d="M78.5085 78.9671C78.356 78.3569 78.8258 76.805 79.2021 76.3535" stroke="#EF8A66" stroke-width="0.138305" stroke-linecap="round" stroke-linejoin="round"/>
<path d="M77.4917 77.4284C77.5507 77.0216 77.6341 75.9091 78.2422 75.3945" stroke="#EF8A66" stroke-width="0.138305" stroke-linecap="round" stroke-linejoin="round"/>
<path d="M109.438 71.3905C108.533 71.8664 106.363 72.6841 103.706 73.6115C96.899 75.9851 86.8983 79.0746 86.8719 78.9647C86.8353 78.8122 85.9566 74.8054 82.9424 72.1349C82.9424 72.1349 96.9275 65.4515 101.408 63.3586C104.099 62.1017 108.216 59.9661 110.433 61.998C110.514 62.0712 110.591 62.1485 110.664 62.2278C113.054 64.7437 112.56 69.7451 109.438 71.3905Z" fill="#C3CBF8"/>
<path d="M109.438 71.3912C108.533 71.8672 106.363 72.6848 103.707 73.6122C104.176 72.3919 105.199 70.3905 106.942 70.0631C109.471 69.5872 110.978 67.6489 110.603 63.5811C110.56 63.1293 110.583 62.6737 110.671 62.2285C113.054 64.7444 112.56 69.7458 109.438 71.3912Z" fill="#A7AAF0"/>
<path d="M82.9424 72.135C82.9424 72.135 96.9275 65.4516 101.408 63.3587C102.694 62.7587 104.304 61.9574 105.883 61.5059" stroke="#83ADDF" stroke-width="0.138305" stroke-linecap="round" stroke-linejoin="round"/>
<path d="M85.8774 71.6621C87.5676 73.7347 88.9669 77.4282 88.9669 77.4282" stroke="#83ADDF" stroke-width="0.138305" stroke-linecap="round" stroke-linejoin="round"/>
<path d="M101.107 27.1367C102.374 27.7469 103.421 30.4133 101.178 32.0588C98.9345 33.7042 99.9575 29.7747 100.012 29.6994C100.067 29.6242 100.139 27.2282 101.107 27.1367Z" fill="#7DE375"/>
<path d="M101.186 30.5281C101.09 30.7115 100.959 30.8739 100.8 31.0061C100.8 31.0061 98.3874 32.6637 96.8843 31.779C95.3813 30.8942 93.5406 28.7952 93.5406 28.7952C92.8633 28.2908 92.4931 27.8963 92.3589 27.4549C92.2936 27.2275 92.2818 26.988 92.3243 26.7552C92.4484 25.9702 93.2823 24.2129 95.9365 24.8637C95.9365 24.8637 96.4023 24.2739 97.3603 24.6298C98.3182 24.9857 99.1521 26.0312 99.1521 26.0312C99.1521 26.0312 100.086 25.6996 101.105 27.1376C101.908 28.2725 101.638 29.7349 101.186 30.5281Z" fill="#DD6819"/>
<path d="M101.186 30.5279C101.09 30.7112 100.959 30.8737 100.8 31.0058C100.8 31.0058 98.3874 32.6635 96.8843 31.7787C95.3813 30.894 93.5406 28.795 93.5406 28.795C92.8633 28.2906 92.4931 27.896 92.3589 27.4546C92.4809 26.1753 93.0708 25.2601 94.3135 25.6424C96.0748 26.1855 96.925 27.1597 98.6782 26.6899C98.6782 26.6899 99.1216 30.1516 101.186 30.5279Z" fill="#CC5E0D"/>
<path d="M93.2314 26.337C93.5487 25.9912 94.1975 26.0055 95.1616 27.0082" stroke="#FF79A0" stroke-width="0.138305" stroke-linecap="round" stroke-linejoin="round"/>
<path d="M95.3672 24.7559C96.0924 24.9073 96.7777 25.2094 97.3787 25.6426" stroke="#FF79A0" stroke-width="0.138305" stroke-linecap="round" stroke-linejoin="round"/>
<path d="M99.1543 26.0352C99.3172 26.2368 99.4538 26.4582 99.5611 26.6941" stroke="#FF79A0" stroke-width="0.138305" stroke-linecap="round" stroke-linejoin="round"/>
<path d="M99.6606 33.4974C97.5189 36.5116 94.7528 38.155 93.083 36.7516C91.8504 35.7204 91.8423 33.6682 92.1331 32.0147C92.2172 31.5336 92.3306 31.0581 92.4728 30.5909C92.485 30.5503 92.4992 30.5116 92.5114 30.473C93.0342 28.8459 93.8071 26.4052 95.0518 26.9116C95.0518 26.9116 96.024 27.7821 97.8667 27.4079C97.8667 27.4079 96.9209 30.8655 99.0626 31.2723C99.0626 31.2723 100.008 30.052 101.097 30.7008C102.185 31.3496 102.197 33.471 99.6606 33.4974Z" fill="#FEBD9D"/>
<path d="M95.2105 29.9224C95.2101 29.9739 95.225 30.0245 95.2533 30.0676C95.2817 30.1106 95.3222 30.1443 95.3698 30.1643C95.4173 30.1844 95.4697 30.1898 95.5203 30.18C95.571 30.1702 95.6175 30.1455 95.6542 30.1092C95.6908 30.0729 95.7158 30.0265 95.726 29.9759C95.7362 29.9254 95.7312 29.8729 95.7115 29.8253C95.6919 29.7776 95.6585 29.7368 95.6156 29.7081C95.5728 29.6794 95.5224 29.6641 95.4708 29.6641C95.4021 29.6641 95.3362 29.6912 95.2874 29.7396C95.2387 29.788 95.211 29.8537 95.2105 29.9224Z" fill="#683F1D"/>
<path d="M93.4287 29.9224C93.4283 29.9739 93.4432 30.0245 93.4716 30.0676C93.5 30.1106 93.5405 30.1443 93.588 30.1643C93.6355 30.1844 93.688 30.1898 93.7386 30.18C93.7892 30.1702 93.8358 30.1455 93.8724 30.1092C93.909 30.0729 93.934 30.0265 93.9442 29.9759C93.9545 29.9254 93.9494 29.8729 93.9298 29.8253C93.9101 29.7776 93.8768 29.7368 93.8339 29.7081C93.7911 29.6794 93.7406 29.6641 93.6891 29.6641C93.6204 29.6641 93.5545 29.6912 93.5057 29.7396C93.4569 29.788 93.4293 29.8537 93.4287 29.9224Z" fill="#683F1D"/>
<path d="M99.0503 31.2812C98.8547 31.5015 98.7226 31.7707 98.668 32.0602" stroke="#EF8A66" stroke-width="0.138305" stroke-linecap="round" stroke-linejoin="round"/>
<path d="M99.335 32.1697C99.7865 31.1528 100.759 31.0918 101.318 31.5453" stroke="#EF8A66" stroke-width="0.138305" stroke-linecap="round" stroke-linejoin="round"/>
<path d="M99.5649 31.7792C100.429 31.2036 100.936 32.7148 99.8049 32.7148" stroke="#EF8A66" stroke-width="0.138305" stroke-linecap="round" stroke-linejoin="round"/>
<path d="M92.8938 28.7861C92.9609 29.0017 94.35 28.8776 94.3175 28.3915C94.2646 27.7386 92.7677 28.3772 92.8938 28.7861Z" fill="#DD6819"/>
<path d="M95.359 28.3576C95.3143 28.7949 96.6566 29.1712 96.7827 28.9414C96.9088 28.7115 95.4424 27.5278 95.359 28.3576Z" fill="#DD6819"/>
<path d="M93.6382 31.3613C93.5976 30.9546 93.8131 30.4969 94.106 30.3932C94.3989 30.2895 94.8525 30.0068 94.7508 28.9512" stroke="#EF8A66" stroke-width="0.138305" stroke-linecap="round" stroke-linejoin="round"/>
<path d="M93.9492 32.1705C94.4699 32.1705 95.2814 31.7759 95.4116 31.6152C95.4116 31.6152 95.4726 32.8661 94.7648 32.9556C94.1689 33.0329 93.9492 32.1705 93.9492 32.1705Z" fill="white" stroke="#EF8A66" stroke-width="0.138305" stroke-linecap="round" stroke-linejoin="round"/>
<path d="M99.8374 34.1914C100.286 34.1914 100.649 33.8281 100.649 33.3799C100.649 32.9317 100.286 32.5684 99.8374 32.5684C99.3892 32.5684 99.0259 32.9317 99.0259 33.3799C99.0259 33.8281 99.3892 34.1914 99.8374 34.1914Z" fill="white"/>
<path d="M98.0842 30.932C98.2327 31.2981 97.8951 31.7822 97.3256 32.0141C96.7561 32.2459 96.1764 32.1381 96.0259 31.772C95.8754 31.4059 96.215 30.9198 96.7845 30.688C97.354 30.4561 97.9337 30.5659 98.0842 30.932Z" fill="#F4AF90"/>
<path d="M93.1662 31.8278C93.0035 32.1084 92.5743 32.1796 92.1289 32.0312C92.2129 31.5501 92.3264 31.0746 92.4686 30.6074L92.5621 30.6583C93.095 30.9593 93.3655 31.4861 93.1662 31.8278Z" fill="#F4AF90"/>
<path d="M66.1528 84.6933L76.42 82.334L85.4667 85.4296L76.6376 88.4459L66.1528 84.6933Z" stroke="#DDDDDD" stroke-width="0.183051" stroke-linecap="round" stroke-linejoin="round"/>
<path d="M72.0981 82.7656V84.6917C72.0981 85.3324 73.7456 85.8511 75.7795 85.8511C77.8134 85.8511 79.4629 85.3324 79.4629 84.6917V82.7656H72.0981Z" fill="#DDDDDD" stroke="#DDDDDD" stroke-width="0.183051" stroke-miterlimit="10"/>
<path d="M75.7793 83.8348C73.6315 83.8348 72.1895 83.2836 72.1895 82.767C72.1895 82.2504 73.6315 81.6992 75.7793 81.6992C77.9271 81.6992 79.3691 82.2524 79.3691 82.767C79.3691 83.2816 77.9271 83.8348 75.7793 83.8348Z" fill="#F9F9F9"/>
<path d="M75.7795 81.7905C77.9476 81.7905 79.2778 82.36 79.2778 82.7667C79.2778 83.1735 77.9476 83.743 75.7795 83.743C73.6114 83.743 72.2812 83.1735 72.2812 82.7667C72.2812 82.36 73.6114 81.7905 75.7795 81.7905ZM75.7795 81.6074C73.7456 81.6074 72.0981 82.1261 72.0981 82.7667C72.0981 83.4074 73.7456 83.9261 75.7795 83.9261C77.8134 83.9261 79.4629 83.4074 79.4629 82.7667C79.4629 82.1261 77.8134 81.6074 75.7795 81.6074Z" fill="#DDDDDD"/>
<path d="M69.0166 84.7494C69.0166 84.8755 69.2342 84.9792 69.5027 84.9792C69.7712 84.9792 69.9888 84.8755 69.9888 84.7494C69.9888 84.6233 69.7712 84.5195 69.5027 84.5195C69.2342 84.5195 69.0166 84.6233 69.0166 84.7494Z" fill="#DDDDDD"/>
<path d="M76.2432 87.4017C76.2432 87.5278 76.4608 87.6315 76.7293 87.6315C76.9977 87.6315 77.2133 87.5278 77.2133 87.4017C77.2133 87.2756 76.9957 87.1719 76.7293 87.1719C76.4628 87.1719 76.2432 87.2756 76.2432 87.4017Z" fill="#DDDDDD"/>
<path d="M82.3018 85.388C82.3018 85.5141 82.5194 85.6179 82.7879 85.6179C83.0563 85.6179 83.274 85.5141 83.274 85.388C83.274 85.2619 83.0563 85.1582 82.7879 85.1582C82.5194 85.1582 82.3018 85.2619 82.3018 85.388Z" fill="#DDDDDD"/>
<path d="M-22.8184 76.257C-15.5146 76.0292 -7.52548 75.8889 0.813506 75.8645C8.31452 75.8441 16.1003 75.9214 23.9145 76.1228C25.5511 76.1635 27.1898 76.2109 28.8305 76.2652C38.6196 76.5845 48.3844 77.1052 57.6366 77.8821C59.1972 78.0096 60.7423 78.1452 62.2718 78.2889C67.4583 78.7831 72.8745 79.5092 78.301 80.4346C82.7186 81.1791 87.1423 82.0435 91.4542 82.9994C100.475 84.9926 108.997 87.3743 115.926 89.8394C123.094 92.3919 128.557 95.038 131.101 97.4502" stroke="#EDEDED" stroke-width="0.368136" stroke-linecap="round" stroke-linejoin="round"/>
<path d="M66.7526 87.0495C63.4678 88.7498 44.1885 93.7613 44.1885 93.7613L42.4231 92.0142L31.1553 80.8705C31.1553 80.8705 41.9085 78.7105 43.9139 78.9525C45.5899 79.1559 60.6265 83.1647 65.4305 85.5627C66.3702 86.0427 66.9946 86.9254 66.7526 87.0495Z" stroke="#EDEDED" stroke-width="0.183051" stroke-linecap="round" stroke-linejoin="round"/>
<path d="M31.6436 82.6013C39.651 81.2467 42.8056 80.364 43.9364 80.6731C45.0673 80.9823 60.348 85.3186 60.0917 85.3857C52.9181 87.265 40.131 90.2569 40.131 90.2569L31.6436 82.6013Z" stroke="#DDDDDD" stroke-width="0.183051" stroke-linecap="round" stroke-linejoin="round"/>
<path d="M66.7523 87.0488C63.4676 88.7491 44.1883 93.7607 44.1883 93.7607L42.4229 92.0135L65.4303 85.5742C66.37 86.042 66.9944 86.9247 66.7523 87.0488Z" fill="#EDEDED"/>
<path d="M20.0114 75.1681C18.0141 71.4583 19.2141 65.3688 22.5782 64.9132C25.9422 64.4576 30.4026 68.8102 32.1375 66.6502C34.0209 64.2969 32.4894 52.9417 32.5036 50.8895L40.9422 50.0332C40.9422 50.0332 39.3334 65.4603 41.5382 67.2563C42.8297 68.3078 44.3409 68.1613 45.246 66.2617C46.0595 64.5369 47.2087 63.1478 49.269 64.7464C49.269 64.7464 50.4243 62.0596 54.8989 63.1193C59.3734 64.179 56.7863 69.339 55.7449 70.0346C55.7449 70.0346 57.7789 71.8305 57.1341 74.1024C56.4894 76.3742 53.2087 77.4176 53.2087 77.4176C53.2087 77.4176 54.5694 80.5193 51.848 81.5078C49.1267 82.4963 47.3612 82.1485 45.5734 81.5078C43.7856 80.8671 40.6921 79.2705 38.9511 81.7213C37.21 84.1722 25.1226 84.6685 20.0114 75.1681Z" fill="#F9F9F9" stroke="#EDEDED" stroke-width="0.368136" stroke-linecap="round" stroke-linejoin="round"/>
<path d="M31.6431 55.0944C29.9875 55.5643 29.1475 57.3317 28.7082 59.0829C28.2689 60.8341 28.4438 61.127 27.9556 60.6978C27.4329 60.2381 26.3001 56.9697 26.9082 51.9826C27.3597 48.2788 29.0255 46.5683 29.9855 45.8809C30.2602 48.9419 30.8109 51.9718 31.6309 54.9337C31.6381 54.987 31.6421 55.0407 31.6431 55.0944Z" fill="#EDEDED" stroke="#EDEDED" stroke-width="0.368136" stroke-linecap="round" stroke-linejoin="round"/>
<path d="M45.3173 60.698C44.8292 61.1271 44.998 60.8302 44.5628 59.0831C44.1275 57.3359 43.2855 55.5644 41.6299 55.0946C41.6305 55.0416 41.6339 54.9886 41.6401 54.9359C42.4629 51.9725 43.0143 48.9403 43.2875 45.877C44.2475 46.5705 45.9133 48.281 46.3648 51.9786C46.9709 56.9698 45.8421 60.2383 45.3173 60.698Z" fill="#EDEDED" stroke="#EDEDED" stroke-width="0.368136" stroke-linecap="round" stroke-linejoin="round"/>
<path d="M43.2874 45.8755C43.0142 48.9389 42.4628 51.971 41.64 54.9345C41.5627 55.1989 41.4874 55.4592 41.4081 55.7114H31.863C31.7837 55.4572 31.7064 55.1948 31.6311 54.9284C30.8112 51.9664 30.2605 48.9365 29.9857 45.8755C29.5464 41.1975 29.64 35.9704 30.661 30.9568C30.7932 30.3121 30.9355 29.6938 31.0881 29.106C33.0691 21.426 36.6366 18.2734 36.6366 18.2734C36.6366 18.2734 40.2061 21.426 42.185 29.106C42.3376 29.6938 42.482 30.3121 42.6122 30.9568C43.6332 35.9704 43.7288 41.1894 43.2874 45.8755Z" fill="#F9F9F9" stroke="#DDDDDD" stroke-width="0.368136" stroke-linecap="round" stroke-linejoin="round"/>
<path d="M42.1848 29.106H31.0879C33.0689 21.426 36.6364 18.2734 36.6364 18.2734C36.6364 18.2734 40.2059 21.426 42.1848 29.106Z" fill="#DDDDDD" stroke="#DDDDDD" stroke-width="0.183051" stroke-miterlimit="10"/>
<path d="M39.2885 38.3751C38.9408 38.7244 38.5275 39.0016 38.0723 39.1907C37.6172 39.3799 37.1292 39.4772 36.6363 39.4772C36.1434 39.4772 35.6554 39.3799 35.2003 39.1907C34.7451 39.0016 34.3318 38.7244 33.9841 38.3751C33.2837 37.6705 32.8906 36.7174 32.8906 35.724C32.8906 34.7305 33.2837 33.7774 33.9841 33.0728C34.3318 32.7235 34.7451 32.4463 35.2003 32.2572C35.6554 32.0681 36.1434 31.9707 36.6363 31.9707C37.1292 31.9707 37.6172 32.0681 38.0723 32.2572C38.5275 32.4463 38.9408 32.7235 39.2885 33.0728C39.5157 33.2993 39.7126 33.5543 39.8743 33.8314C40.2918 34.5473 40.4607 35.3811 40.3547 36.203C40.2488 37.0249 39.8739 37.7886 39.2885 38.3751Z" fill="#EDEDED" stroke="#F9F9F9" stroke-width="0.368136" stroke-linecap="round" stroke-linejoin="round"/>
<path d="M39.8743 33.8308L34.7428 38.9623C34.4659 38.7994 34.211 38.6019 33.9841 38.3745C33.7575 38.1473 33.5613 37.8916 33.4004 37.6139L38.5299 32.4844C38.8067 32.6473 39.0617 32.8448 39.2885 33.0722C39.5157 33.2987 39.7126 33.5537 39.8743 33.8308Z" fill="#F9F9F9"/>
<path d="M36.6362 45.0781C35.0335 47.2056 34.1955 57.9669 36.6362 60.8734C39.081 57.9649 38.2369 47.2056 36.6362 45.0781Z" fill="#DDDDDD" stroke="#DDDDDD" stroke-width="0.183051" stroke-miterlimit="10"/>
<path d="M39.2885 38.3751C38.9408 38.7244 38.5275 39.0016 38.0723 39.1907C37.6172 39.3799 37.1292 39.4772 36.6363 39.4772C36.1434 39.4772 35.6554 39.3799 35.2003 39.1907C34.7451 39.0016 34.3318 38.7244 33.9841 38.3751C33.2837 37.6705 32.8906 36.7174 32.8906 35.724C32.8906 34.7305 33.2837 33.7774 33.9841 33.0728C34.3318 32.7235 34.7451 32.4463 35.2003 32.2572C35.6554 32.0681 36.1434 31.9707 36.6363 31.9707C37.1292 31.9707 37.6172 32.0681 38.0723 32.2572C38.5275 32.4463 38.9408 32.7235 39.2885 33.0728C39.5157 33.2993 39.7126 33.5543 39.8743 33.8314C40.2918 34.5473 40.4607 35.3811 40.3547 36.203C40.2488 37.0249 39.8739 37.7886 39.2885 38.3751Z" stroke="#DDDDDD" stroke-width="0.368136" stroke-linecap="round" stroke-linejoin="round"/>
<path d="M55.7451 70.0371C55.3372 70.341 54.9106 70.6189 54.4678 70.869" stroke="#EDEDED" stroke-width="0.368136" stroke-linecap="round" stroke-linejoin="round"/>
<path d="M52.2854 71.4824C51.2237 70.4024 48.6387 70.8844 48.2298 73.3719C47.821 75.8594 50.0034 78.0316 53.2088 77.4275" stroke="#EDEDED" stroke-width="0.368136" stroke-linecap="round" stroke-linejoin="round"/>
<path d="M35.3184 61.5117C35.7251 64.3917 35.5624 69.3931 35.538 69.7104" stroke="#EDEDED" stroke-width="0.368136" stroke-linecap="round" stroke-linejoin="round"/>
<path d="M40.678 73.8573C39.0916 72.1976 38.335 71.1237 38.335 64.0742" stroke="#EDEDED" stroke-width="0.368136" stroke-linecap="round" stroke-linejoin="round"/>
<path d="M11.7151 62.4023L34.4358 71.3027L45.4372 93.2403L20.9836 82.4566L10.4663 62.9373L11.7151 62.4023Z" fill="#EDEDED"/>
<path d="M10.4663 62.9375L33.187 71.8378L44.1883 93.7755L19.7368 82.9917L10.4663 62.9375Z" fill="#F9F9F9" stroke="#DDDDDD" stroke-width="0.183051" stroke-linecap="round" stroke-linejoin="round"/>
</g>
<defs>
<clipPath id="clip0_219_6116">
<rect width="120" height="98.8475" fill="white"/>
</clipPath>
</defs>
</svg>
