<svg width="24" height="24" viewBox="0 0 24 24" fill="none" xmlns="http://www.w3.org/2000/svg">
<g id="Icons">
<path id="Vector (Stroke)" fill-rule="evenodd" clip-rule="evenodd" d="M5.49542 5.49494C4.35394 6.63642 3.7715 8.58545 3.7715 11.9996C3.7715 15.4137 4.35394 17.3627 5.49542 18.5042C6.63691 19.6457 8.58594 20.2282 12.0001 20.2282C15.4142 20.2282 17.3632 19.6457 18.5047 18.5042C19.6462 17.3627 20.2286 15.4137 20.2286 11.9996C20.2286 8.58545 19.6462 6.63642 18.5047 5.49494C17.3632 4.35345 15.4142 3.77101 12.0001 3.77101C8.58594 3.77101 6.63691 4.35345 5.49542 5.49494ZM4.0408 4.04032C5.7923 2.28882 8.47184 1.71387 12.0001 1.71387C15.5283 1.71387 18.2078 2.28882 19.9593 4.04032C21.7108 5.79182 22.2858 8.47135 22.2858 11.9996C22.2858 15.5278 21.7108 18.2073 19.9593 19.9588C18.2078 21.7103 15.5283 22.2853 12.0001 22.2853C8.47184 22.2853 5.7923 21.7103 4.0408 19.9588C2.28931 18.2073 1.71436 15.5278 1.71436 11.9996C1.71436 8.47135 2.28931 5.79182 4.0408 4.04032ZM12.0001 6.23685C12.5681 6.23685 13.0286 6.69736 13.0286 7.26542V16.6757C13.0286 17.2437 12.5681 17.7043 12.0001 17.7043C11.432 17.7043 10.9715 17.2437 10.9715 16.6757V7.26542C10.9715 6.69736 11.432 6.23685 12.0001 6.23685ZM7.6706 9.28262C8.23866 9.28262 8.69917 9.74312 8.69917 10.3112V16.6751C8.69917 17.2432 8.23866 17.7037 7.6706 17.7037C7.10253 17.7037 6.64203 17.2432 6.64203 16.6751V10.3112C6.64203 9.74312 7.10253 9.28262 7.6706 9.28262ZM16.2583 12.6456C16.8263 12.6456 17.2868 13.1061 17.2868 13.6742V16.6755C17.2868 17.2435 16.8263 17.7041 16.2583 17.7041C15.6902 17.7041 15.2297 17.2435 15.2297 16.6755V13.6742C15.2297 13.1061 15.6902 12.6456 16.2583 12.6456Z" fill="#7400FF"/>
</g>
</svg>
