<svg width="25" height="24" viewBox="0 0 25 24" fill="none" xmlns="http://www.w3.org/2000/svg">
<path d="M12.4998 6.9C12.4998 7.93434 12.0889 8.92632 11.3575 9.65772C10.6261 10.3891 9.63415 10.8 8.5998 10.8C7.56546 10.8 6.57348 10.3891 5.84209 9.65772C5.1107 8.92632 4.6998 7.93434 4.6998 6.9C4.6998 5.86566 5.1107 4.87368 5.84209 4.14228C6.57348 3.41089 7.56546 3 8.5998 3C9.63415 3 10.6261 3.41089 11.3575 4.14228C12.0889 4.87368 12.4998 5.86566 12.4998 6.9ZM17.8998 10.8C18.6955 10.8 19.4585 10.4839 20.0211 9.92132C20.5837 9.35871 20.8998 8.59565 20.8998 7.8C20.8998 7.00435 20.5837 6.24129 20.0211 5.67868C19.4585 5.11607 18.6955 4.8 17.8998 4.8C17.1042 4.8 16.3411 5.11607 15.7785 5.67868C15.2159 6.24129 14.8998 7.00435 14.8998 7.8C14.8998 8.59565 15.2159 9.35871 15.7785 9.92132C16.3411 10.4839 17.1042 10.8 17.8998 10.8ZM13.6914 12.3156C12.9425 12.9343 12.3397 13.711 11.9263 14.59C11.5128 15.469 11.2989 16.4286 11.2998 17.4C11.2998 17.874 11.3502 18.336 11.445 18.7836C10.6794 19.0416 9.7434 19.2 8.5998 19.2C2.2998 19.2 2.2998 14.4 2.2998 14.4C2.2998 13.7635 2.55266 13.153 3.00275 12.7029C3.45284 12.2529 4.06328 12 4.6998 12H12.4998C12.9177 11.9997 13.3285 12.1084 13.6914 12.3156ZM17.8998 22.8C19.0844 22.7996 20.2361 22.4097 21.1773 21.6903C22.1185 20.971 22.797 19.962 23.1083 18.819C23.4196 17.676 23.3464 16.4624 22.9 15.3651C22.4536 14.2678 21.6587 13.3477 20.6379 12.7466C19.617 12.1456 18.4269 11.8969 17.2508 12.0389C16.0747 12.181 14.9779 12.7058 14.1295 13.5325C13.281 14.3593 12.728 15.4421 12.5556 16.6141C12.3832 17.7861 12.601 18.9823 13.1754 20.0184L12.5226 22.1652C12.4973 22.2502 12.4954 22.3404 12.5172 22.4264C12.5389 22.5124 12.5835 22.5909 12.6462 22.6536C12.7089 22.7163 12.7874 22.7609 12.8734 22.7826C12.9594 22.8044 13.0496 22.8025 13.1346 22.7772L15.2826 22.1244C16.0832 22.5688 16.9841 22.8014 17.8998 22.8ZM14.8998 16.2C14.8998 16.0409 14.963 15.8883 15.0755 15.7757C15.1881 15.6632 15.3407 15.6 15.4998 15.6H20.2998C20.4589 15.6 20.6115 15.6632 20.7241 15.7757C20.8366 15.8883 20.8998 16.0409 20.8998 16.2C20.8998 16.3591 20.8366 16.5117 20.7241 16.6243C20.6115 16.7368 20.4589 16.8 20.2998 16.8H15.4998C15.3407 16.8 15.1881 16.7368 15.0755 16.6243C14.963 16.5117 14.8998 16.3591 14.8998 16.2ZM15.4998 19.2C15.3407 19.2 15.1881 19.1368 15.0755 19.0243C14.963 18.9117 14.8998 18.7591 14.8998 18.6C14.8998 18.4409 14.963 18.2883 15.0755 18.1757C15.1881 18.0632 15.3407 18 15.4998 18H17.8998C18.0589 18 18.2115 18.0632 18.3241 18.1757C18.4366 18.2883 18.4998 18.4409 18.4998 18.6C18.4998 18.7591 18.4366 18.9117 18.3241 19.0243C18.2115 19.1368 18.0589 19.2 17.8998 19.2H15.4998Z" fill="#7400FF"/>
</svg>
