<svg width="120" height="102" viewBox="0 0 120 102" fill="none" xmlns="http://www.w3.org/2000/svg">
<path d="M86.0123 51.2031H46.3358C45.8815 51.2031 45.5132 51.5714 45.5132 52.0258V52.0989C45.5132 52.5532 45.8815 52.9215 46.3358 52.9215H86.0123C86.4667 52.9215 86.835 52.5532 86.835 52.0989V52.0258C86.835 51.5714 86.4667 51.2031 86.0123 51.2031Z" stroke="#DDDDDD" stroke-width="0.339943" stroke-miterlimit="10"/>
<path d="M85.7302 22.0273H46.618C46.0078 22.0273 45.5132 22.522 45.5132 23.1322V23.2324C45.5132 23.8426 46.0078 24.3373 46.618 24.3373H85.7302C86.3404 24.3373 86.835 23.8426 86.835 23.2324V23.1322C86.835 22.522 86.3404 22.0273 85.7302 22.0273Z" stroke="#DDDDDD" stroke-width="0.339943" stroke-miterlimit="10"/>
<path d="M85.3171 24.3379H47.0293V51.2036H85.3171V24.3379Z" stroke="#DDDDDD" stroke-width="0.339943" stroke-miterlimit="10"/>
<path d="M82.4838 32.1818L78.1699 32.09C78.1699 32.09 79.2356 29.4623 78.5422 27.5552L82.6895 27.4668C82.8826 27.9965 83.0065 28.549 83.0583 29.1104C83.1467 30.0096 83.077 31.1416 82.4838 32.1818Z" stroke="#DDDDDD" stroke-width="0.169972" stroke-linecap="round" stroke-linejoin="round"/>
<path d="M79.6011 28.9707H82.3206" stroke="#DDDDDD" stroke-width="0.169972" stroke-linecap="round" stroke-linejoin="round"/>
<path d="M79.4668 30.541H82.1863" stroke="#DDDDDD" stroke-width="0.169972" stroke-linecap="round" stroke-linejoin="round"/>
<path d="M80.0752 29.7324L82.2151 29.7749" stroke="#DDDDDD" stroke-width="0.169972" stroke-linecap="round" stroke-linejoin="round"/>
<path d="M49.9255 28.2949H54.1408C54.1408 28.2949 53.9096 31.5669 55.2184 32.6836L50.5425 32.7992C50.5425 32.7992 49.6178 31.2592 49.9255 28.2949Z" stroke="#DDDDDD" stroke-width="0.169972" stroke-linecap="round" stroke-linejoin="round"/>
<path d="M52.7095 29.6562H53.3928" stroke="#DDDDDD" stroke-width="0.169972" stroke-linecap="round" stroke-linejoin="round"/>
<path d="M50.6787 29.6562H52.3682" stroke="#DDDDDD" stroke-width="0.169972" stroke-linecap="round" stroke-linejoin="round"/>
<path d="M50.8145 30.6465H52.5414" stroke="#DDDDDD" stroke-width="0.169972" stroke-linecap="round" stroke-linejoin="round"/>
<path d="M50.9912 31.4753C51.0252 31.4413 53.5595 31.4141 53.5595 31.4141" stroke="#DDDDDD" stroke-width="0.169972" stroke-linecap="round" stroke-linejoin="round"/>
<path d="M56.6651 32.3066H60.6084C60.6084 32.3066 60.3331 35.633 61.3869 36.8177H57.2498C56.4921 35.4418 56.2832 33.8302 56.6651 32.3066Z" fill="#EDEDED" stroke="#DDDDDD" stroke-width="0.169972" stroke-linecap="round" stroke-linejoin="round"/>
<path d="M57.542 34.6191H59.8162" stroke="#F9F9F9" stroke-width="0.169972" stroke-linecap="round" stroke-linejoin="round"/>
<path d="M57.6543 35.4902H58.9716" stroke="#F9F9F9" stroke-width="0.169972" stroke-linecap="round" stroke-linejoin="round"/>
<path d="M57.542 33.4297L59.5681 33.5266" stroke="#F9F9F9" stroke-width="0.169972" stroke-linecap="round" stroke-linejoin="round"/>
<path d="M57.02 42.7655L60.003 42.6516L62.0648 36.8182L68.9979 36.1485L72.3192 30.6465" stroke="#DDDDDD" stroke-width="0.339943" stroke-linecap="round" stroke-linejoin="round"/>
<path d="M72.4961 30.3438L70.4292 31.8191L72.1527 32.861L72.4961 30.3438Z" fill="#DDDDDD" stroke="#DDDDDD" stroke-width="0.339943" stroke-linecap="round" stroke-linejoin="round"/>
<path d="M36.161 31.9597C39.4118 31.9597 42.0471 29.3244 42.0471 26.0736C42.0471 22.8228 39.4118 20.1875 36.161 20.1875C32.9102 20.1875 30.2749 22.8228 30.2749 26.0736C30.2749 29.3244 32.9102 31.9597 36.161 31.9597Z" stroke="#DDDDDD" stroke-width="0.339943" stroke-linecap="round" stroke-linejoin="round"/>
<path d="M33.3228 23L36.1613 26.0731L38.5239 24.7881" stroke="#DDDDDD" stroke-width="0.339943" stroke-linecap="round" stroke-linejoin="round"/>
<path d="M80.5134 71.291H70.5157C69.4812 71.291 68.6426 72.1296 68.6426 73.1641V73.3341C68.6426 74.3686 69.4812 75.2072 70.5157 75.2072H80.5134C81.5479 75.2072 82.3865 74.3686 82.3865 73.3341V73.1641C82.3865 72.1296 81.5479 71.291 80.5134 71.291Z" stroke="#DDDDDD" stroke-width="0.169972" stroke-miterlimit="10"/>
<path d="M40.7131 43.2363H35.1432C33.7942 43.2363 32.7007 44.3299 32.7007 45.6788V45.8998C32.7007 47.2487 33.7942 48.3423 35.1432 48.3423H40.7131C42.0621 48.3423 43.1556 47.2487 43.1556 45.8998V45.6788C43.1556 44.3299 42.0621 43.2363 40.7131 43.2363Z" stroke="#DDDDDD" stroke-width="0.169972" stroke-miterlimit="10"/>
<path d="M104.259 27.4082H96.2634C95.7941 27.4082 95.4136 27.7887 95.4136 28.2581V28.3345C95.4136 28.8039 95.7941 29.1844 96.2634 29.1844H104.259C104.728 29.1844 105.109 28.8039 105.109 28.3345V28.2581C105.109 27.7887 104.728 27.4082 104.259 27.4082Z" stroke="#DDDDDD" stroke-width="0.169972" stroke-miterlimit="10"/>
<path d="M22.7453 24.5625H12.7476C11.7131 24.5625 10.8745 25.4011 10.8745 26.4356V26.6056C10.8745 27.64 11.7131 28.4786 12.7476 28.4786H22.7453C23.7798 28.4786 24.6184 27.64 24.6184 26.6056V26.4356C24.6184 25.4011 23.7798 24.5625 22.7453 24.5625Z" stroke="#DDDDDD" stroke-width="0.169972" stroke-miterlimit="10"/>
<path d="M14.3511 54.0982L20.0264 52.2676L24.1686 54.722L24.9488 79.2761H17.4701L14.3511 54.0982Z" fill="#7DE375"/>
<path d="M19.4247 78.475H6.11935L6.76524 60.1181C6.57057 59.7162 6.40029 59.303 6.25533 58.8807C4.70519 54.2915 7.92445 52.2671 10.0695 51.7555C11.538 51.407 13.6525 51.4716 14.8797 51.5243C15.2519 51.5396 15.5426 51.5532 15.7092 51.5532C16.6949 54.7421 17.4896 57.987 18.0888 61.2705C18.176 61.734 18.2565 62.1917 18.3301 62.6439C18.3309 62.6478 18.3309 62.6518 18.3301 62.6558C19.8956 71.9447 19.4247 78.475 19.4247 78.475Z" fill="#A7AAF0"/>
<path d="M31.5846 72.1426C29.5093 73.3579 26.7268 72.605 26.7268 72.605L26.4175 78.746L23.6979 78.916C23.6979 78.916 24.1365 73.4667 23.9665 68.2537C23.9036 66.4129 23.72 64.3834 23.4702 62.3659C23.4056 61.8559 23.3393 61.3545 23.2679 60.8531C22.8192 57.6899 22.2311 54.6797 21.7144 52.6197C22.2007 52.3409 22.7278 52.1401 23.2764 52.0248C24.5129 51.7796 25.7938 51.8928 26.9682 52.3511C27.0872 53.1041 27.2554 54.6321 27.4237 56.3387C27.7636 59.7823 28.1155 63.9551 28.1155 63.9551C28.4775 58.805 33.4543 58.5279 34.0237 66.3194C34.0577 69.9942 33.1687 71.218 31.5846 72.1426Z" fill="#A7AAF0"/>
<path d="M31.4824 66.0391L25.3413 67.4941L26.0059 56.6703L26.1487 54.3536L26.9696 52.3496C26.9696 52.3496 29.9169 54.0799 30.5509 55.8952C30.7291 56.5238 30.8502 57.1672 30.913 57.8176C31.3005 60.9026 31.4824 66.0391 31.4824 66.0391Z" fill="#A7AAF0"/>
<path d="M30.9129 57.8193C30.0036 57.2516 28.6421 56.519 27.4251 56.3388L26.0059 56.6703L26.1486 54.3536L26.9696 52.3496C26.9696 52.3496 29.9169 54.0799 30.5509 55.8952C30.7291 56.5244 30.8503 57.1684 30.9129 57.8193Z" fill="#C3CBF8"/>
<path d="M15.7143 51.5532C16.7 54.7421 17.4947 57.987 18.0939 61.2705C17.47 60.8486 16.9223 60.3239 16.474 59.7187C12.9437 55.1294 8.97997 55.7039 6.25533 58.8807C4.70519 54.2915 7.92445 52.2671 10.0695 51.7555C11.538 51.407 13.6525 51.4716 14.8797 51.5243C15.257 51.5396 15.5477 51.5532 15.7143 51.5532Z" fill="#C3CBF8"/>
<path d="M27.4252 56.3392C26.9645 56.5857 26.6314 56.8848 26.4835 57.1891C26.0994 57.9948 24.879 59.7166 23.2659 60.8469C22.8172 57.6837 22.2291 54.6735 21.7124 52.6135C22.1988 52.3347 22.7258 52.1339 23.2744 52.0186C24.5125 51.773 25.795 51.888 26.9696 52.35C27.0886 53.1047 27.2569 54.6327 27.4252 56.3392Z" fill="#C3CBF8"/>
<path d="M18.3405 62.643C17.89 60.5081 14.8255 57.4945 14.8255 57.4945L15.4968 55.6758L14.1558 55.0452L14.8849 51.5234C15.2572 51.5387 15.5478 51.5523 15.7144 51.5523C16.8402 55.1854 17.7176 58.8908 18.3405 62.643Z" fill="#93A5E5"/>
<path d="M25.3413 57.0835C24.4952 58.7568 23.8668 60.5316 23.4716 62.3645C23.0698 59.0854 22.4836 55.8315 21.7158 52.6183C22.2022 52.3395 22.7293 52.1388 23.2779 52.0234L25.0983 54.8994L23.9832 56.1758L25.3413 57.0835Z" fill="#93A5E5"/>
<path d="M16.5588 50.5723C16.2293 50.8567 15.943 51.1876 15.709 51.5547L16.0081 55.6765C16.0081 55.6765 17.3679 53.8068 19.6455 53.9411L16.5588 50.5723Z" fill="white"/>
<path d="M21.4575 51.1602C21.4575 51.1976 20.7012 53.9018 20.7012 53.9018C20.7012 53.9018 22.185 54.5664 23.2083 55.6848C23.2083 55.6848 22.7102 52.6559 22.5284 52.1494C22.3465 51.6429 21.4575 51.1602 21.4575 51.1602Z" fill="white"/>
<path d="M26.7354 58.082C26.7999 59.9262 26.8169 70.8112 26.7354 72.6044" stroke="#83ADDF" stroke-width="0.127479" stroke-linecap="round" stroke-linejoin="round"/>
<path d="M22.2295 48.492L21.8215 49.2959L21.7399 49.4659C21.7399 49.4659 21.5904 50.2189 21.5003 50.8529C21.4553 51.111 21.4337 51.3727 21.4357 51.6347C21.4748 52.0597 21.7399 54.3084 19.5507 54.084C17.3615 53.8597 16.4912 51.0058 16.4912 51.0058C16.5728 50.2971 17.3734 46.7175 17.3734 46.7175C17.3734 46.7175 18.2096 44.7203 20.7371 45.0755C22.4368 45.3135 22.3042 47.2138 22.034 48.4342L22.2295 48.492Z" fill="#FEBD9D"/>
<path d="M22.2292 48.4922L21.8213 49.2962L21.7397 49.4662C21.7397 49.4662 21.5901 50.2192 21.5001 50.8532C20.4122 50.5693 19.0406 49.6158 19.27 47.5625L22.0355 48.4345L22.2292 48.4922Z" fill="#F4A789"/>
<path d="M17.2628 45.2951C14.9223 43.3336 15.3727 40.7585 17.2628 41.1732C17.2628 41.1732 16.5608 40.1636 17.9648 38.9041C18.7858 38.1664 20.1914 37.988 21.1518 38.7053C21.7807 39.1778 23.0045 38.6662 23.222 38.2922C24.3846 39.4072 23.8577 41.3602 22.3467 41.5404L17.2628 45.2951Z" fill="#BF8228"/>
<path d="M17.5076 45.2264C16.2039 43.8666 16.1478 42.1193 17.3291 41.4649C17.3291 41.4649 17.0894 39.5051 19.3823 39.2978C21.8707 39.0734 22.6441 40.9414 21.6192 42.3301L17.5076 45.2264Z" fill="#B57724"/>
<path d="M18.9932 41.7731C19.1631 40.3878 20.132 39.5736 21.1586 39.6875C22.1852 39.8014 23.0453 39.4954 23.1677 38.9277" stroke="#9B621F" stroke-width="0.127479" stroke-linecap="round" stroke-linejoin="round"/>
<path d="M20.54 40.6716C20.6301 40.6716 23.0199 41.5521 23.4534 39.7266" stroke="#9B621F" stroke-width="0.127479" stroke-linecap="round" stroke-linejoin="round"/>
<path d="M17.1675 44.616C17.1675 44.5769 17.9799 43.4262 17.8372 42.2891" stroke="#9B621F" stroke-width="0.127479" stroke-linecap="round" stroke-linejoin="round"/>
<path d="M17.1948 45.1868C16.6288 44.3658 15.9574 42.3176 17.2628 41.8281" stroke="#9B621F" stroke-width="0.127479" stroke-linecap="round" stroke-linejoin="round"/>
<path d="M17.2627 41.1728C17.3906 41.1669 17.5182 41.19 17.6359 41.2403C17.7536 41.2906 17.8585 41.3669 17.9426 41.4634" stroke="#9B621F" stroke-width="0.127479" stroke-linecap="round" stroke-linejoin="round"/>
<path d="M17.8477 40.5499C17.9989 39.2513 19.9162 38.2706 21.106 38.6802" stroke="#9B621F" stroke-width="0.127479" stroke-linecap="round" stroke-linejoin="round"/>
<path d="M23.5398 45.9186L23.4667 46.0613L22.2293 48.4919L21.8213 49.2959L21.7381 49.4659L19.6287 47.6761L18.2689 46.5169C17.9788 46.6107 17.6807 46.6779 17.3783 46.7174C17.1232 46.7098 16.8775 46.6198 16.678 46.4607C16.4785 46.3016 16.336 46.0822 16.2718 45.8353C15.9811 44.8936 16.6967 44.2494 17.4616 44.3854C17.5699 44.4028 17.6751 44.4354 17.7743 44.4823C18.8162 43.7701 18.8128 42.3712 18.2519 41.9531C18.0497 40.8398 20.4701 39.6568 20.8661 40.5152C21.4219 41.7237 22.3465 41.535 22.3465 41.535C22.7213 42.4081 23.0282 43.3087 23.2644 44.229C23.278 44.2834 23.2916 44.3395 23.3035 44.3905C23.4356 44.8902 23.5148 45.4023 23.5398 45.9186Z" fill="#FEBD9D"/>
<path d="M20.1032 47.6322C20.8532 47.6322 21.4613 47.0241 21.4613 46.2741C21.4613 45.524 20.8532 44.916 20.1032 44.916C19.3531 44.916 18.7451 45.524 18.7451 46.2741C18.7451 47.0241 19.3531 47.6322 20.1032 47.6322Z" fill="#F4AF90"/>
<path d="M23.5397 45.9185L23.4666 46.0613C23.3236 45.9617 23.2035 45.8327 23.1145 45.6829C23.0254 45.5331 22.9694 45.366 22.9503 45.1928C22.9311 45.0196 22.9492 44.8443 23.0034 44.6786C23.0576 44.513 23.1465 44.3609 23.2643 44.2324C23.2779 44.2868 23.2915 44.3429 23.3034 44.3939C23.4353 44.8924 23.5145 45.4035 23.5397 45.9185Z" fill="#F4AF90"/>
<path d="M22.2295 48.4916L21.8215 49.2956L21.7383 49.4656L19.6289 47.6758L22.2295 48.4916Z" fill="#F4A789"/>
<path d="M20.9289 44.1528C21.0547 44.1528 21.1567 44.0508 21.1567 43.925C21.1567 43.7992 21.0547 43.6973 20.9289 43.6973C20.8031 43.6973 20.7012 43.7992 20.7012 43.925C20.7012 44.0508 20.8031 44.1528 20.9289 44.1528Z" fill="#683F1D"/>
<path d="M22.51 43.6958C22.6358 43.6958 22.7378 43.5938 22.7378 43.468C22.7378 43.3422 22.6358 43.2402 22.51 43.2402C22.3842 43.2402 22.2822 43.3422 22.2822 43.468C22.2822 43.5938 22.3842 43.6958 22.51 43.6958Z" fill="#683F1D"/>
<path d="M21.5071 41.7186C21.4884 42.0874 22.5269 42.0296 22.5966 41.9192C22.6918 41.773 21.5394 41.1033 21.5071 41.7186Z" fill="#BF8228"/>
<path d="M19.4349 42.6936C19.3703 43.0999 20.4683 42.4812 20.5312 42.2449C20.5426 42.1945 20.5423 42.1421 20.5304 42.0918C20.5185 42.0415 20.4953 41.9945 20.4625 41.9545C20.4297 41.9145 20.3883 41.8825 20.3412 41.861C20.2942 41.8395 20.2429 41.8289 20.1912 41.8302C19.9516 41.8608 19.4791 42.4132 19.4349 42.6936Z" fill="#BF8228"/>
<path d="M24.3066 47.1324C24.3051 47.3326 24.2823 47.532 24.2386 47.7273C23.8153 49.5613 21.604 50.1868 19.617 48.4072C17.9394 46.9064 17.4618 44.3891 17.4618 44.3891C17.4613 44.3857 17.4613 44.3823 17.4618 44.3789C17.5701 44.3963 17.6754 44.4289 17.7745 44.4758C17.7745 44.4758 18.2029 45.6265 19.0646 46.3268C19.4454 46.6378 19.8006 46.8027 20.1524 46.8061C20.5944 46.8061 21.0312 46.5596 21.5122 46.0242C22.3621 45.0656 23.0046 45.1523 23.2408 45.2067C23.3092 44.9399 23.3317 44.6634 23.3071 44.3891C23.659 44.7919 24.3201 45.9494 24.3066 47.1324Z" fill="#BF8228"/>
<path d="M21.6143 42.6953C21.7621 43.7916 22.1446 43.9939 22.6749 44.1554C23.0046 44.2574 22.6749 44.8862 22.6749 44.8862" stroke="#EF8A66" stroke-width="0.127479" stroke-linecap="round" stroke-linejoin="round"/>
<path d="M23.1437 45.6367C23.0452 46.7993 21.8825 46.8843 21.6548 46.2605C21.6548 46.2605 22.6372 46.099 23.1437 45.6367Z" fill="white" stroke="#EF8A66" stroke-width="0.127479" stroke-linecap="round" stroke-linejoin="round"/>
<path d="M17.3716 46.7149C17.5708 46.7044 17.7668 46.6602 17.9512 46.584" stroke="#EF8A66" stroke-width="0.127479" stroke-linecap="round" stroke-linejoin="round"/>
<path d="M16.8174 45.4045C16.9517 45.1955 17.567 44.9269 17.8287 45.6357" stroke="#EF8A66" stroke-width="0.127479" stroke-linecap="round" stroke-linejoin="round"/>
<path d="M17.7099 45.4078C17.1184 45.3245 17.0844 46.2254 17.8051 46.0537" stroke="#EF8A66" stroke-width="0.127479" stroke-linecap="round" stroke-linejoin="round"/>
<path d="M21.2088 43.2588L19.6891 43.7841C19.572 43.8246 19.5099 43.9524 19.5504 44.0695L19.813 44.8293C19.8535 44.9464 19.9813 45.0085 20.0984 44.9681L21.6181 44.4427C21.7352 44.4022 21.7973 44.2745 21.7568 44.1574L21.4941 43.3975C21.4537 43.2804 21.3259 43.2183 21.2088 43.2588Z" stroke="#683F1D" stroke-width="0.169972" stroke-linecap="round" stroke-linejoin="round"/>
<path d="M22.3638 42.9195L23.6946 42.4589C23.7483 42.4405 23.8071 42.4441 23.858 42.4689C23.909 42.4938 23.9481 42.5378 23.9666 42.5915L24.2352 43.3716C24.2537 43.425 24.2503 43.4836 24.2258 43.5346C24.2012 43.5855 24.1576 43.6247 24.1043 43.6436L23.0182 44.0175" stroke="#683F1D" stroke-width="0.169972" stroke-linecap="round" stroke-linejoin="round"/>
<path d="M24.3066 47.1324C24.3051 47.3326 24.2823 47.532 24.2386 47.7273C23.8153 49.5613 21.604 50.1868 19.617 48.4072C17.9394 46.9064 17.4618 44.3891 17.4618 44.3891C17.4613 44.3857 17.4613 44.3823 17.4618 44.3789C17.5701 44.3963 17.6754 44.4289 17.7745 44.4758C17.7745 44.4758 18.2029 45.6265 19.0646 46.3268C19.4454 46.6378 19.8006 46.8027 20.1524 46.8061C21.072 47.8446 21.7638 48.1659 22.6034 48.0503C23.2629 47.9588 23.8675 47.633 24.3066 47.1324Z" fill="#B57724"/>
<path d="M20.7778 49.1796C22.0951 48.532 23.1302 48.4283 23.822 48.6238" stroke="#9B621F" stroke-width="0.127479" stroke-linecap="round" stroke-linejoin="round"/>
<path d="M19.729 48.5092C20.8457 47.9041 22.9585 47.7647 24.1687 47.9636" stroke="#9B621F" stroke-width="0.127479" stroke-linecap="round" stroke-linejoin="round"/>
<path d="M18.1177 46.3179C19.2667 48.0669 22.3177 47.3769 23.0044 46.9706C23.6554 46.5831 23.6078 45.5735 23.2746 45.0312" stroke="#9B621F" stroke-width="0.127479" stroke-linecap="round" stroke-linejoin="round"/>
<path d="M21.5869 43.6426L22.0628 43.4727" stroke="#683F1D" stroke-width="0.169972" stroke-linecap="round" stroke-linejoin="round"/>
<path d="M23.8066 42.2527C23.6128 42.4736 24.0751 42.9224 24.7754 43.162C25.192 43.3048 25.5673 43.5476 25.8683 43.8691C25.8683 43.8691 25.7069 44.8312 26.2712 45.1728C26.2712 45.1728 26.0213 45.4719 25.8598 45.2612C25.6984 45.0504 25.3635 43.9456 24.738 44.017C24.3063 44.0663 24.959 45.3122 25.0525 45.8C25.146 46.2878 25.4298 46.9728 26.0213 47.2584C26.6128 47.5439 27.2298 49.2623 27.2298 49.2623C27.2298 49.2623 29.6196 48.3938 29.6281 48.3734C29.6366 48.353 29.3069 47.5235 29.3069 47.5235C29.3069 47.5235 29.3732 46.315 29.3647 45.4176C29.3562 44.5201 29.0519 43.8521 28.3312 43.83C28.3312 43.83 28.4043 43.3847 27.8417 43.3422C27.8417 43.3422 27.8043 42.6623 26.6519 43.0142C26.6553 43.0176 24.2213 41.7785 23.8066 42.2527Z" fill="#FEBD9D"/>
<path d="M26.9696 50.0924C26.9356 50.0431 26.7588 48.9961 26.7588 48.9961L29.6806 48.0527L30.1905 49.2425L26.9696 50.0924Z" fill="white"/>
<path d="M28.3312 43.8334C28.3312 43.8334 28.4043 43.3881 27.8417 43.3456C27.8417 43.3456 27.8043 42.6657 26.6519 43.0175C26.6519 43.0175 24.2179 41.7784 23.8032 42.2527C23.6094 42.4736 24.0717 42.9224 24.772 43.162C25.1886 43.3048 25.5639 43.5476 25.8649 43.8691C25.8649 43.8691 25.7034 44.8311 26.2677 45.1728C26.2677 45.1728 26.0179 45.4719 25.8564 45.2612C25.6949 45.0504 25.3601 43.9456 24.7346 44.017C24.3029 44.0663 24.9556 45.3122 25.0491 45.8C25.1425 46.2878 25.4264 46.9728 26.0179 47.2583" stroke="#EF8A66" stroke-width="0.127479" stroke-linecap="round" stroke-linejoin="round"/>
<path d="M25.8921 45.2949C26.125 45.4445 27.3708 45.5635 27.4337 46.5136" stroke="#EF8A66" stroke-width="0.127479" stroke-linecap="round" stroke-linejoin="round"/>
<path d="M26.271 45.1732C26.3376 45.2049 26.411 45.2199 26.4847 45.2169C26.5584 45.214 26.6303 45.1931 26.6942 45.1562" stroke="#EF8A66" stroke-width="0.127479" stroke-linecap="round" stroke-linejoin="round"/>
<path d="M25.8682 43.8694C25.9307 43.6796 26.0334 43.5055 26.1692 43.3588C26.305 43.2122 26.4707 43.0965 26.6551 43.0195" stroke="#EF8A66" stroke-width="0.127479" stroke-linecap="round" stroke-linejoin="round"/>
<path d="M27.8126 43.3418C26.7809 43.7038 26.6092 44.4619 26.6551 44.8936C26.701 45.3254 26.8879 45.497 27.1327 45.4596C27.1959 45.4441 27.2538 45.4119 27.3004 45.3665C27.347 45.3211 27.3807 45.2641 27.3979 45.2013" stroke="#EF8A66" stroke-width="0.127479" stroke-linecap="round" stroke-linejoin="round"/>
<path d="M28.3313 43.834C28.0788 43.8594 27.8438 43.9746 27.6691 44.1586C27.4944 44.3427 27.3916 44.5833 27.3794 44.8368C27.3251 45.4555 27.6582 45.5966 27.8894 45.4572C28.1443 45.2957 28.3993 44.7059 28.3993 44.7059" stroke="#EF8A66" stroke-width="0.127479" stroke-linecap="round" stroke-linejoin="round"/>
<path d="M34.0253 66.3205C33.7108 71.0797 28.576 70.2554 28.1171 63.9562C28.1171 63.9562 27.7652 59.7834 27.4253 56.3398C27.2553 54.6401 27.0853 53.1103 26.9698 52.3523L26.6162 49.9438L31.1867 48.584C31.1867 48.584 32.0859 52.1738 32.8729 56.5183C33.1992 58.3234 33.5069 60.2576 33.7227 62.1171C33.8976 63.5119 33.9986 64.915 34.0253 66.3205Z" fill="#A7AAF0"/>
<path d="M28.117 63.9555C28.117 63.9555 27.7652 59.7827 27.4253 56.3391C27.2553 54.6394 27.0853 53.1096 26.9697 52.3516" stroke="#83ADDF" stroke-width="0.127479" stroke-linecap="round" stroke-linejoin="round"/>
<path d="M35.1162 63.4005C35.1281 63.3614 35.9797 62.0577 36.7802 61.7212C37.5808 61.3846 38.6261 60.8713 38.9627 60.3971C39.2992 59.9229 39.9825 59.9144 39.5559 60.8577C39.1292 61.8011 38.6397 61.9795 38.6397 61.9795C38.6397 61.9795 40.8205 61.3353 42.0986 61.077C43.3768 60.8186 43.7763 61.3863 42.4607 61.8775C41.7273 62.1416 41.0186 62.4698 40.3428 62.8583C40.3428 62.8583 42.5627 62.5744 43.4788 62.5863C44.395 62.5982 44.6686 63.0962 43.4278 63.4005C44.2675 63.4124 44.3967 63.89 43.4023 64.1093C42.408 64.3285 40.7304 64.7603 40.7304 64.7603C40.7304 64.7603 42.4998 64.6447 43.2154 64.7603C43.9309 64.8758 43.5553 65.4401 42.5899 65.5472C41.6244 65.6543 36.4709 66.579 35.6703 66.4634L35.1162 63.4005Z" fill="#FEBD9D"/>
<path d="M37.8066 61.235C38.3166 60.9699 38.7619 60.6724 38.9625 60.3852C39.3024 59.916 39.9823 59.9024 39.5557 60.8458C39.129 61.7891 38.6395 61.9676 38.6395 61.9676C38.6395 61.9676 40.8202 61.3234 42.0984 61.065C43.3766 60.8067 43.776 61.3744 42.4605 61.8656C41.7271 62.1297 41.0184 62.4579 40.3426 62.8463C40.3426 62.8463 42.5624 62.5625 43.4786 62.5744C44.3947 62.5863 44.6684 63.0843 43.4276 63.3885C44.2673 63.4004 44.3964 63.8781 43.4021 64.0973C42.4078 64.3166 40.7302 64.7602 40.7302 64.7602C40.7302 64.7602 42.4996 64.6446 43.2151 64.7602C43.9307 64.8758 43.5551 65.4401 42.5896 65.5472" stroke="#EF8A66" stroke-width="0.127479" stroke-linecap="round" stroke-linejoin="round"/>
<path d="M33.7227 62.9931L35.2711 62.5801L36.2263 66.9042L34.9736 67.3172L33.7227 62.9931Z" fill="white"/>
<path d="M37.8257 62.2466L38.6398 61.9746" stroke="#EF8A66" stroke-width="0.127479" stroke-linecap="round" stroke-linejoin="round"/>
<path d="M40.4805 63.8195L43.4278 63.3945" stroke="#EF8A66" stroke-width="0.127479" stroke-linecap="round" stroke-linejoin="round"/>
<path d="M35.6159 67.6666C35.6159 67.6666 31.0607 69.555 27.2176 71.27C26.2726 71.6933 25.3717 72.1046 24.5899 72.4734C20.6346 74.3516 18.9553 75.193 16.2459 74.1935C14.3253 73.4831 12.3366 70.3811 9.9349 66.0247C8.95246 64.24 7.90544 62.2462 6.76493 60.1199C6.19722 57.9459 9.75983 56.3805 12.2346 56.768C12.2465 56.768 12.991 56.768 13.7882 57.6179C14.7383 58.6241 19.4907 66.7369 19.4907 66.7369C21.0205 65.9958 34.2986 62.1273 34.2986 62.1273L35.6159 67.6666Z" fill="#A7AAF0"/>
<path d="M27.2178 71.2703C26.2727 71.6936 25.3719 72.1049 24.59 72.4737C20.6348 74.3519 18.9555 75.1933 16.2461 74.1939C14.3254 73.4834 12.3368 70.3814 9.93506 66.025C11.1877 65.7293 12.6716 65.9009 13.2784 67.9389C14.441 71.8483 17.1878 73.7995 20.0008 71.2907C22.1968 69.3361 25.8478 68.9332 27.2178 71.2703Z" fill="#93A5E5"/>
<path d="M12.2382 56.7715C12.2382 56.7715 12.9895 56.7715 13.7917 57.6213C14.7419 58.6293 19.4943 66.742 19.4943 66.742C21.024 65.9992 34.3022 62.1324 34.3022 62.1324L35.6195 67.6718C35.6195 67.6718 28.5487 70.6021 24.5935 72.4786C20.6382 74.3551 18.9606 75.1981 16.2512 74.197C13.9702 73.3573 11.5889 69.1471 8.55322 63.4684" stroke="#83ADDF" stroke-width="0.127479" stroke-linecap="round" stroke-linejoin="round"/>
<path d="M17.7705 68.2542C17.7705 68.2542 18.4844 67.1239 19.4906 66.7363" stroke="#83ADDF" stroke-width="0.127479" stroke-linecap="round" stroke-linejoin="round"/>
<path d="M44.9507 56.9789C44.9898 55.6769 45.8651 54.6656 46.2527 54.1795C46.6402 53.6934 46.013 53.3211 46.2527 52.2554C46.6232 50.6237 48.5473 51.5415 48.5473 48.9138C48.5473 48.0979 48.7411 47.9228 48.7411 47.9228C48.7411 47.9228 47.3031 44.758 49.9071 43.7075C49.9071 43.7075 50.1399 42.3648 52.511 41.7614C54.8821 41.158 57.0204 43.6073 55.4855 47.1444L55.3682 49.9438C55.5907 49.986 55.7931 50.1002 55.9443 50.2689C56.0954 50.4375 56.1868 50.6512 56.2045 50.8769C56.3745 52.0668 57.894 51.324 57.9722 54.3937L44.9507 56.9789Z" fill="#7F542D"/>
<path d="M50.4644 52.8154C49.2865 53.1808 48.3618 53.1146 48.3618 52.0624C48.3618 51.0732 49.5839 50.5463 49.3816 48.9401C49.1794 47.3338 49.4921 46.5706 50.0326 45.8806C50.5731 45.1905 51.3533 42.8211 53.274 43.2409C55.1947 43.6607 55.4836 47.1502 55.4836 47.1502L54.4638 50.3882C54.4638 50.3882 55.7063 52.1134 55.3409 52.7406C54.9754 53.3678 50.4644 52.8154 50.4644 52.8154Z" fill="#704725"/>
<path d="M55.0708 50.5293C55.0708 50.5293 56.043 50.5446 55.7949 51.7939C55.7064 52.2209 55.7643 52.6652 55.9592 53.0552C56.154 53.4453 56.4746 53.7584 56.8691 53.944" stroke="#A56F42" stroke-width="0.127479" stroke-linecap="round" stroke-linejoin="round"/>
<path d="M49.9069 44.6035C48.8276 45.8681 49.2457 47.131 49.2457 47.131" stroke="#A56F42" stroke-width="0.127479" stroke-linecap="round" stroke-linejoin="round"/>
<path d="M48.86 51.2949C47.6889 51.8949 47.0056 53.0677 47.7348 54.2065C47.8839 54.4286 47.9823 54.6808 48.0229 54.9452C48.0634 55.2096 48.0451 55.4797 47.9693 55.7363" stroke="#A56F42" stroke-width="0.127479" stroke-linecap="round" stroke-linejoin="round"/>
<path d="M49.9072 43.707C49.9072 43.707 50.7741 43.9586 51.0239 44.4957" stroke="#A56F42" stroke-width="0.127479" stroke-linecap="round" stroke-linejoin="round"/>
<path d="M51.6406 43.6293C51.6406 43.6293 53.58 41.8446 54.9704 43.4593" stroke="#A56F42" stroke-width="0.127479" stroke-linecap="round" stroke-linejoin="round"/>
<path d="M56.0245 49.3234C56.0669 51.5721 54.5253 52.1415 53.7825 52.1857C52.0828 52.2469 50.5038 50.316 49.9769 49.5902C49.9582 49.4389 49.9378 49.2843 49.9123 49.1279C48.9009 49.3438 48.4862 48.8712 48.3723 48.1574C48.2585 47.4435 49.1287 46.6157 50.2573 47.5302C51.3145 46.801 51.4624 45.7879 51.2415 44.8888C51.491 44.5299 51.8488 44.2602 52.2626 44.1192C52.6764 43.9782 53.1244 43.9733 53.5412 44.1052C54.7225 44.4452 55.5468 46.0667 55.8715 47.8259C55.9457 48.2275 55.9939 48.6334 56.016 49.0412C56.0194 49.1364 56.0228 49.2299 56.0245 49.3234Z" fill="#FEBD9D"/>
<path d="M54.2361 45.3556C54.2718 45.6548 55.0435 45.6956 55.3902 45.5256C55.737 45.3556 54.1341 44.5024 54.2361 45.3556Z" fill="#7F542D"/>
<path d="M51.8412 45.9976C51.7817 46.2628 52.5398 45.9143 52.8168 45.8956C53.0939 45.8769 53.2384 45.7546 53.099 45.4146C52.9596 45.0747 51.9738 45.4265 51.8412 45.9976Z" fill="#7F542D"/>
<path d="M53.3576 47.5356C53.4834 47.5356 53.5854 47.4336 53.5854 47.3078C53.5854 47.1821 53.4834 47.0801 53.3576 47.0801C53.2319 47.0801 53.1299 47.1821 53.1299 47.3078C53.1299 47.4336 53.2319 47.5356 53.3576 47.5356Z" fill="#683F1D"/>
<path d="M54.9704 46.9614C55.0962 46.9614 55.1982 46.8594 55.1982 46.7336C55.1982 46.6078 55.0962 46.5059 54.9704 46.5059C54.8446 46.5059 54.7427 46.6078 54.7427 46.7336C54.7427 46.8594 54.8446 46.9614 54.9704 46.9614Z" fill="#683F1D"/>
<path d="M54.2803 46.6133C54.265 47.2932 54.593 47.5277 54.6712 47.6042C54.8582 47.7861 55.2882 47.6042 55.0928 48.2671" stroke="#EF8A66" stroke-width="0.127479" stroke-linecap="round" stroke-linejoin="round"/>
<path d="M53.4934 49.4412C53.7875 49.1472 54.9059 49.2084 55.0232 49.3257C55.1405 49.4429 54.9365 49.9478 54.4504 49.941C53.9643 49.9342 53.3558 49.5789 53.4934 49.4412Z" fill="white" stroke="#EF8A66" stroke-width="0.127479" stroke-linecap="round" stroke-linejoin="round"/>
<path d="M49.0078 48.2326C49.2662 47.8553 49.7999 47.9811 50.0157 48.1697C49.324 48.0542 49.2611 48.8258 50.0361 48.6202" stroke="#EF8A66" stroke-width="0.127479" stroke-linecap="round" stroke-linejoin="round"/>
<path d="M53.5664 48.9272C53.4593 49.2484 52.8865 49.3436 52.2797 49.1413C51.6729 48.9391 51.2769 48.5142 51.3856 48.1929C51.4944 47.8717 52.0655 47.7765 52.6723 47.9804C53.2791 48.1844 53.6752 48.6127 53.5664 48.9272Z" fill="#F4AF90"/>
<path d="M56.0142 49.0415C55.7304 49.0942 55.4941 49.0415 55.3853 48.8851C55.2154 48.6284 55.4261 48.1746 55.8698 47.8262C55.9439 48.2278 55.9922 48.6337 56.0142 49.0415Z" fill="#F4AF90"/>
<path d="M49.292 49.3247C49.292 49.4225 49.321 49.5181 49.3753 49.5995C49.4297 49.6808 49.5069 49.7442 49.5973 49.7817C49.6877 49.8191 49.7872 49.8289 49.8831 49.8098C49.9791 49.7907 50.0672 49.7436 50.1364 49.6744C50.2055 49.6053 50.2526 49.5171 50.2717 49.4212C50.2908 49.3252 50.281 49.2258 50.2436 49.1354C50.2061 49.045 50.1427 48.9678 50.0614 48.9134C49.9801 48.8591 49.8844 48.8301 49.7866 48.8301C49.7217 48.8301 49.6573 48.8429 49.5973 48.8677C49.5373 48.8926 49.4828 48.929 49.4369 48.9749C49.3909 49.0209 49.3545 49.0754 49.3296 49.1354C49.3048 49.1954 49.292 49.2597 49.292 49.3247Z" fill="#C3CBF8"/>
<path d="M69.27 56.334L66.8513 59.4649C66.8513 59.4649 63.6218 72.4762 61.9884 73.5725C61.4738 73.9119 60.8841 74.1203 60.2705 74.1795C59.657 74.2388 59.0383 74.1471 58.4683 73.9125C58.4683 73.904 58.4683 73.8972 58.4683 73.8887C58.4683 73.8802 57.0252 72.6734 57.3006 70.8853C57.3261 70.7153 60.5589 65.1334 61.9442 62.6722C63.0507 60.6904 64.3969 58.4229 64.3969 58.4229L69.27 56.334Z" fill="#FEBD9D"/>
<path d="M64.4038 58.4234C64.4038 58.4234 64.5925 55.4846 64.6588 55.1531C64.7251 54.8217 66.7103 52.9129 66.9925 52.7616C67.2746 52.6104 69.0321 53.1305 69.1766 53.292C69.3211 53.4534 69.1579 53.8308 68.6854 53.8019C68.2129 53.773 68.6191 54.9169 68.6191 54.9169C68.6191 54.9169 69.3823 55.726 69.2701 56.3328C69.2701 56.3328 66.3041 59.3209 66.265 59.3107C66.2259 59.3005 64.4038 58.4234 64.4038 58.4234Z" fill="#FEBD9D"/>
<path d="M64.4038 58.4234C64.4038 58.4234 64.5925 55.4846 64.6588 55.1531C64.7251 54.8217 66.7103 52.9129 66.9925 52.7616C67.2746 52.6104 69.0321 53.1305 69.1766 53.292C69.3211 53.4534 69.1579 53.8308 68.6854 53.8019C68.2129 53.773 68.6191 54.9169 68.6191 54.9169C68.6191 54.9169 69.3823 55.726 69.2701 56.3328C69.2701 56.3328 66.3041 59.3209 66.265 59.3107C66.2259 59.3005 64.4038 58.4234 64.4038 58.4234Z" fill="#FEBD9D"/>
<path d="M64.6587 55.1531C64.725 54.8132 66.7103 52.9129 66.9924 52.7616C67.2746 52.6104 69.0321 53.1305 69.1765 53.292C69.321 53.4534 69.1578 53.8308 68.6853 53.8019" stroke="#EF8A66" stroke-width="0.127479" stroke-linecap="round" stroke-linejoin="round"/>
<path d="M67.4937 53.9434C67.5225 53.8788 68.6274 53.51 68.816 53.5763C69.0047 53.6426 69.9123 55.1536 69.9412 55.4562C69.9701 55.7587 69.5401 57.0862 69.1475 56.9689C68.7548 56.8516 69.1628 55.7247 69.1628 55.7247L67.4937 53.9434Z" fill="#FEBD9D" stroke="#EF8A66" stroke-width="0.127479" stroke-linecap="round" stroke-linejoin="round"/>
<path d="M68.2588 56.5604C68.58 56.7729 68.9523 56.285 69.163 55.7241L68.4492 55.1445C68.4492 55.1445 67.7863 56.2493 68.2588 56.5604Z" fill="#FEBD9D" stroke="#EF8A66" stroke-width="0.127479" stroke-linecap="round" stroke-linejoin="round"/>
<path d="M69.3344 55.2966L69.5656 55.8796C69.5725 55.8965 69.5746 55.9149 69.5718 55.9329C69.569 55.951 69.5613 55.9679 69.5496 55.9819C69.5379 55.9959 69.5226 56.0064 69.5053 56.0123C69.4881 56.0183 69.4695 56.0194 69.4517 56.0155L68.8381 55.8864L63.7389 51.5827C63.7002 51.5501 63.6684 51.5103 63.6451 51.4654C63.6218 51.4205 63.6077 51.3715 63.6034 51.3211C63.5992 51.2707 63.6049 51.22 63.6203 51.1719C63.6356 51.1237 63.6604 51.0791 63.693 51.0405C63.759 50.9627 63.8531 50.9143 63.9547 50.9057C64.0563 50.8971 64.1571 50.929 64.2352 50.9946L69.3344 55.2966Z" fill="#683F1D"/>
<path d="M66.0303 55.0358C66.6048 54.2064 67.2354 53.5537 67.5413 53.4789C68.0036 53.3667 68.109 53.9157 67.0212 55.5033C67.1993 55.9554 67.2275 56.4527 67.1018 56.9221C66.976 57.3915 66.7029 57.8081 66.3226 58.1106" fill="#FEBD9D"/>
<path d="M66.0303 55.0358C66.6048 54.2064 67.2354 53.5537 67.5413 53.4789C68.0036 53.3667 68.109 53.9157 67.0212 55.5033C67.1993 55.9554 67.2275 56.4527 67.1018 56.9221C66.976 57.3915 66.7029 57.8081 66.3226 58.1106" stroke="#EF8A66" stroke-width="0.127479" stroke-linecap="round" stroke-linejoin="round"/>
<path d="M61.3697 64.7602C61.334 64.9302 61.0757 65.4027 61.0298 65.5676C60.2768 68.7732 59.0156 71.8735 58.4683 73.8826C58.3133 74.4655 58.1891 75.0561 58.0961 75.652C57.8207 77.3313 57.734 78.9138 57.734 78.9138L45.3125 78.6809L43.8082 78.6537L43.866 72.3002L43.8796 70.9642C43.8796 70.9642 40.3289 70.7194 40.3017 70.7942C40.2745 70.869 40.4717 68.8531 40.4717 68.8531C39.3074 67.5189 39.236 65.5625 39.5233 64.3846C39.717 63.5959 40.5074 61.4713 41.3182 59.7002C41.6421 58.9535 42.0223 58.2324 42.4553 57.5432C43.4751 56.0339 44.1074 55.92 45.4451 55.6446C46.7828 55.3693 49.0536 54.1744 49.0536 54.1744L53.3709 53.6934C53.3709 53.6934 55.6281 53.8497 57.6388 53.7647C59.551 53.6832 60.6252 54.1149 61.4649 55.8758C61.5108 55.9676 61.5533 56.0645 61.5975 56.1647C62.2179 57.6112 62.7754 59.6764 63.0456 60.7438C62.189 62.814 61.3697 64.7602 61.3697 64.7602Z" fill="#7DE375"/>
<path d="M61.4666 55.8758C59.704 55.6837 58.6026 57.1472 57.3091 59.9177C55.7641 63.2169 52.3935 63.6724 49.1658 61.0854C46.3238 58.8044 44.2366 58.2673 41.3267 59.7019C41.6506 58.9552 42.0308 58.2341 42.4638 57.5449C43.4836 56.0356 44.1159 55.9217 45.4536 55.6463C46.7912 55.371 49.0621 54.1761 49.0621 54.1761L53.3709 53.6934C53.3709 53.6934 55.6281 53.8497 57.6388 53.7647C59.5527 53.6832 60.6269 54.1149 61.4666 55.8758Z" fill="#AFFFA8"/>
<path d="M45.6743 70.0616L46.8284 62.6934C47.1497 63.1863 48.0352 63.8713 47.7497 65.2633C47.0222 68.7783 49.4494 65.9942 50.3961 67.6854C50.7888 68.3891 47.4709 69.5398 45.6743 70.0616Z" fill="#5FC557"/>
<path d="M49.8847 53.6689C49.5447 53.5227 49.062 54.0004 49.062 54.1788C49.062 54.3573 49.5515 55.8786 50.2042 56.589C50.8569 57.2995 52.0501 57.4559 52.5022 55.7868C53.7073 57.0412 54.8818 56.5686 54.7238 55.0406C54.5657 53.5125 53.4745 53.2168 53.4745 53.2168L49.8847 53.6689Z" fill="white"/>
<path d="M45.5708 70.7235L45.6745 70.0623L46.8286 62.694L47.1906 60.3926" stroke="#F7AD2B" stroke-width="0.127479" stroke-linecap="round" stroke-linejoin="round"/>
<path d="M40.48 68.8564C42.2446 68.2924 44.1081 68.1054 45.9497 68.3074" stroke="#F7AD2B" stroke-width="0.127479" stroke-linecap="round" stroke-linejoin="round"/>
<path d="M53.1635 58.243C53.4188 58.243 53.6258 58.036 53.6258 57.7807C53.6258 57.5253 53.4188 57.3184 53.1635 57.3184C52.9082 57.3184 52.7012 57.5253 52.7012 57.7807C52.7012 58.036 52.9082 58.243 53.1635 58.243Z" fill="white"/>
<path d="M53.6274 60.1825C53.8827 60.1825 54.0897 59.9755 54.0897 59.7201C54.0897 59.4648 53.8827 59.2578 53.6274 59.2578C53.372 59.2578 53.165 59.4648 53.165 59.7201C53.165 59.9755 53.372 60.1825 53.6274 60.1825Z" fill="white"/>
<path d="M41.4916 75.3436H41.4831C39.5301 74.6722 40.1318 71.6773 40.3579 70.1119L42.5386 69.585L45.8769 68.7793C45.8769 68.7793 46.4497 76.1323 41.4916 75.3436Z" fill="#FEBD9D"/>
<path d="M53.7823 52.1822C53.7823 52.2247 53.7551 52.9981 53.733 53.5539C53.7245 53.7986 53.7143 54.0026 53.7109 54.0791C53.6973 54.3358 53.1534 55.4066 52.0112 55.121C50.869 54.8355 49.912 53.8513 49.8848 53.6644C49.8576 53.4774 50.3777 52.0105 50.1007 49.755C51.095 48.5924 54.01 49.325 53.7823 52.1822Z" fill="#FEBD9D"/>
<path d="M53.7825 52.1814C53.7825 52.1814 53.7553 52.9837 53.7332 53.5548C52.9462 53.4477 51.4539 52.982 51.5439 50.9746C51.872 51.4709 53.0023 52.2205 53.7825 52.1814Z" fill="#F4A789"/>
<path d="M63.3074 63.7897C63.2946 63.7891 63.2821 63.7856 63.2709 63.7794C63.2597 63.7732 63.2501 63.7645 63.2428 63.754L59.4541 58.3727C59.4465 58.3633 59.4413 58.3522 59.439 58.3403C59.4366 58.3285 59.4371 58.3163 59.4405 58.3047C59.4431 58.2933 59.4481 58.2825 59.4551 58.2731C59.4621 58.2638 59.4711 58.256 59.4813 58.2503C59.72 58.0973 59.9938 58.0078 60.2768 57.9902C60.8921 57.9902 61.5159 58.563 62.432 59.9687C64.1317 62.5727 63.5827 63.5381 63.3754 63.7625C63.3672 63.771 63.3575 63.7777 63.3467 63.7824C63.3359 63.7871 63.3242 63.7895 63.3125 63.7897H63.3074Z" fill="#F9F9F9"/>
<path d="M60.2768 58.0762C60.8139 58.0762 61.3986 58.5402 62.3606 60.0173C63.7731 62.1827 63.6762 63.2995 63.3125 63.7057L59.5221 58.3244C59.7484 58.1786 60.0082 58.0932 60.2768 58.0762ZM60.2768 57.9062C59.9795 57.9233 59.6916 58.0164 59.4405 58.1765C59.4197 58.1881 59.4015 58.2039 59.3871 58.2229C59.3728 58.2419 59.3626 58.2638 59.3572 58.287C59.352 58.3103 59.3516 58.3344 59.3563 58.3579C59.361 58.3813 59.3706 58.4035 59.3844 58.423L63.1731 63.8043C63.1879 63.8251 63.2072 63.8424 63.2295 63.8547C63.2519 63.8671 63.2768 63.8742 63.3023 63.8757H63.3125C63.3362 63.8756 63.3596 63.8706 63.3813 63.8609C63.403 63.8513 63.4224 63.8372 63.4383 63.8196C63.6558 63.5765 64.232 62.5788 62.5034 59.9238C61.5686 58.491 60.9244 57.9062 60.2768 57.9062Z" fill="#DDDDDD"/>
<path d="M64.8645 64.7799C64.8483 64.7793 64.8325 64.7746 64.8186 64.7663L63.2668 63.7787C63.2557 63.7714 63.2464 63.7616 63.2396 63.7501C63.2329 63.7386 63.2288 63.7257 63.2277 63.7125C63.227 63.6996 63.229 63.6867 63.2337 63.6747C63.2384 63.6626 63.2456 63.6518 63.2549 63.6428C63.4231 63.491 63.6419 63.4074 63.8685 63.4082C64.0412 63.4145 64.2108 63.4566 64.3664 63.5318C64.5221 63.607 64.6604 63.7136 64.7727 63.845C65.2028 64.3227 64.9427 64.7374 64.9427 64.7408C64.9343 64.7536 64.9226 64.764 64.9089 64.7709C64.8952 64.7778 64.8798 64.7809 64.8645 64.7799Z" fill="#F9F9F9"/>
<path d="M63.8685 63.4923C64.0295 63.4986 64.1874 63.5383 64.3322 63.6088C64.477 63.6793 64.6056 63.7791 64.7099 63.9019C65.1008 64.3353 64.8646 64.694 64.8646 64.694L63.3127 63.7047C63.4647 63.5666 63.6632 63.4908 63.8685 63.4923ZM63.8685 63.3223C63.621 63.3207 63.3819 63.4123 63.1988 63.5789C63.1792 63.5964 63.164 63.6183 63.1542 63.6427C63.1445 63.6671 63.1405 63.6934 63.1427 63.7196C63.1448 63.7458 63.153 63.7711 63.1666 63.7936C63.1801 63.8161 63.1988 63.8351 63.2209 63.8492L64.7728 64.8367C64.8105 64.8612 64.8563 64.8697 64.9002 64.8605C64.9442 64.8512 64.9827 64.825 65.0073 64.7874C65.0192 64.7687 65.3099 64.3132 64.8374 63.788C64.7173 63.6475 64.5693 63.5335 64.4028 63.4533C64.2363 63.3731 64.0549 63.3285 63.8702 63.3223H63.8685Z" fill="#DDDDDD"/>
<path d="M51.3042 62.843L59.8759 57.7812C59.8759 57.7812 62.7263 60.7694 63.3127 63.7048L54.2209 68.4249C54.2209 68.4249 53.2113 65.1767 51.3042 62.843Z" fill="#F9F9F9" stroke="#DDDDDD" stroke-width="0.169972" stroke-linecap="round" stroke-linejoin="round"/>
<path d="M54.6455 68.2025L56.8398 68.8569L64.8642 64.6943C64.4381 64.2396 63.9044 63.8994 63.3124 63.7051L54.6455 68.2025Z" fill="#DDDDDD" stroke="#DDDDDD" stroke-width="0.169972" stroke-miterlimit="10"/>
<path d="M58.6808 65.4873C58.5992 65.8731 57.8207 65.9632 57.3431 65.9326C56.8655 65.902 55.278 65.9938 55.278 65.9938C55.278 65.9938 56.1584 66.4697 56.2502 66.5598C56.5374 66.9839 56.7597 67.4485 56.9097 67.9383C57.1408 68.647 56.9692 69.072 56.7397 69.021C56.5103 68.97 56.427 68.5977 56.427 68.5977C56.3454 69.072 56.0513 68.6776 56.0513 68.6776C56.0513 68.8289 55.3221 70.1258 55.0315 69.8674C54.7408 69.6091 55.1505 68.9479 55.1505 68.9479H54.8496C54.2941 69.4028 53.7092 69.8207 53.0989 70.1989C52.5401 70.5235 51.9285 70.7473 51.2921 70.8601C51.2921 70.8601 49.8865 71.8561 48.1153 72.9167C45.9278 74.2323 43.1862 75.6516 41.8536 75.4306C41.5078 75.3862 41.1813 75.246 40.911 75.0258C40.6407 74.8057 40.4373 74.5143 40.3238 74.1847C40.3206 74.1742 40.3166 74.164 40.312 74.1541C40.3035 74.1303 40.2899 74.0929 40.2746 74.0436C40.0757 73.3637 39.6236 70.4334 45.8734 68.7745L45.9125 68.7643L50.393 67.6816C51.3261 66.7298 53.4015 64.8771 53.7448 64.7751C54.0882 64.6731 58.7624 65.0997 58.6808 65.4873Z" fill="#FEBD9D"/>
<path d="M55.1438 68.9426C55.1438 68.9426 54.7308 69.5987 55.0248 69.8621C55.3189 70.1256 56.0446 68.8287 56.0446 68.6723C56.0446 68.6723 56.3387 69.0667 56.4203 68.5907C56.4203 68.5907 56.5002 68.9664 56.733 69.0174C56.9659 69.0684 57.1393 68.6417 56.903 67.933C56.754 67.4433 56.5316 66.9792 56.2435 66.5562C56.1534 66.4644 55.2713 65.9885 55.2713 65.9885C55.2713 65.9885 56.8605 65.8967 57.3381 65.9273C57.8157 65.9579 58.5942 65.8678 58.6741 65.482C58.754 65.0961 54.0764 64.6712 53.733 64.7732C53.5631 64.8242 52.9546 65.312 52.2764 65.9069" stroke="#EF8A66" stroke-width="0.127479" stroke-linecap="round" stroke-linejoin="round"/>
<path d="M55.2779 65.9941L54.4824 65.6797" stroke="#EF8A66" stroke-width="0.127479" stroke-linecap="round" stroke-linejoin="round"/>
<path d="M54.6899 66.7363C54.6899 66.7363 55.9613 67.2836 56.0497 67.4689C56.1381 67.6542 56.3982 68.2168 56.4236 68.5958" stroke="#EF8A66" stroke-width="0.127479" stroke-linecap="round" stroke-linejoin="round"/>
<path d="M54.8325 67.666C54.8325 67.666 55.7776 68.249 55.8897 68.3612C55.9671 68.4523 56.0213 68.5608 56.0478 68.6773" stroke="#EF8A66" stroke-width="0.127479" stroke-linecap="round" stroke-linejoin="round"/>
<path d="M93.3278 66.431C93.3883 68.1321 93.3389 69.8354 93.1799 71.5301C92.9182 74.4026 92.7295 76.823 93.0949 78.6689H112.511C112.511 78.6689 113.262 75.9494 112.23 70.4304C111.199 64.9114 109.791 62.1171 109.341 61.1602L93.3278 66.431Z" fill="#AFFFA8"/>
<path d="M109.317 61.1902C108.874 61.7613 107.084 63.7551 102.707 65.2321L102.503 65.3001C101.462 65.6442 100.405 65.9353 99.3348 66.1721C95.1144 67.1001 93.0968 66.512 93.0968 66.512C93.0407 65.1726 92.4628 63.9013 92.0107 63.099C91.8462 62.8053 91.6646 62.5215 91.4668 62.2491C91.3742 63.0233 91.211 63.7874 90.979 64.5319C90.5489 65.9086 89.6532 67.0559 89.6991 67.1018C87.4334 70.5387 83.3115 65.1302 84.3093 60.2061C84.3093 60.2061 85.4549 55.5268 86.3489 51.9472C86.4747 51.4372 86.6039 51.0038 86.7382 50.6231C87.5608 48.2962 88.5705 48.0446 90.0849 47.3494C90.9161 46.9908 92.8979 46.6593 92.8979 46.6593C93.0267 46.3687 93.2121 46.1066 93.4432 45.8883C93.6743 45.67 93.9466 45.4999 94.2441 45.3879L94.1948 45.048C94.4753 45.0123 94.7693 44.9732 95.0719 44.929L95.5971 44.8508L95.6583 44.8406L95.9116 44.8015C96.2192 44.7522 96.5336 44.6979 96.8464 44.6401L97.1404 44.5857L97.3614 44.5415C98.4802 44.3386 99.5782 44.0342 100.642 43.6321C100.78 43.5761 100.917 43.5251 101.051 43.4809L101.174 43.4401L101.266 43.4129L101.417 43.3704C101.468 43.3551 101.519 43.3432 101.57 43.3313L101.648 43.3126L101.818 43.2786L101.876 43.2667L102.046 43.2395L102.121 43.2293H102.15C102.207 43.2202 102.264 43.2134 102.319 43.2089L102.501 43.1953H102.552H102.753C104.352 43.1953 105.705 44.0588 106.54 45.801C106.855 46.48 107.08 47.197 107.21 47.9341C107.99 52.0865 107.463 56.3307 107.463 56.3307L109.361 60.8503C109.385 60.9058 109.393 60.9665 109.385 61.0262C109.378 61.086 109.354 61.1425 109.317 61.1902Z" fill="#C3CBF8"/>
<path d="M106.536 45.7893C103.293 45.4289 100.268 47.9105 98.9029 50.5485C97.1352 53.9649 92.8723 54.2369 91.397 52.6731C90.4043 51.6193 88.7573 50.2238 86.7397 50.6148C87.5624 48.2878 88.572 48.0363 90.0865 47.3411C90.9024 46.9893 92.8247 46.6612 92.8978 46.6527C93.0266 46.3621 93.2119 46.0999 93.4431 45.8817C93.6742 45.6634 93.9465 45.4933 94.244 45.3813L94.1947 45.0414C94.4752 45.0057 94.7692 44.9666 95.0718 44.9224L95.597 44.8442L95.6582 44.834L95.9114 44.7949C96.2191 44.7456 96.5335 44.6912 96.8463 44.6335L97.1403 44.5791L97.3613 44.5349C98.326 44.3537 99.2768 44.1049 100.207 43.7904C100.358 43.7377 100.502 43.6816 100.642 43.6204C100.781 43.5592 100.917 43.5133 101.051 43.4691L101.174 43.4284L101.266 43.4012L101.417 43.3587C101.468 43.3434 101.519 43.3315 101.57 43.3196L101.648 43.3009L101.818 43.2669L101.876 43.255L102.046 43.2278L102.12 43.2176H102.149C102.207 43.2085 102.264 43.2017 102.319 43.1972L102.501 43.1836H102.552H102.753C104.349 43.1836 105.702 44.0471 106.536 45.7893Z" fill="#D0E5F7"/>
<path d="M91.467 62.2397C91.4466 62.4097 91.4245 62.5797 91.3973 62.7326C91.314 62.6392 88.7338 59.7122 85.4976 59.476C86.1027 59.1122 86.9559 58.7009 87.5491 58.842C88.5689 59.0833 87.3791 54.2528 89.5225 52.9219C89.2573 54.0233 88.8086 55.7723 88.9089 57.302C89.0653 59.6018 90.459 60.9615 91.467 62.2397Z" fill="#A7AAF0"/>
<path d="M102.833 64.3163C102.815 64.6218 102.773 64.9253 102.707 65.224L102.503 65.292C101.462 65.6361 100.405 65.9271 99.3348 66.1639L99.2074 66.0551C96.9688 64.0954 99.2074 62.7305 98.6397 59.4636C97.9989 55.7786 99.0391 53.7118 99.7955 52.748C99.5804 54.613 99.4669 56.4883 99.4555 58.3656C99.4895 61.1888 99.702 62.2121 100.135 62.4993C100.7 62.8223 101.601 63.0687 102.625 63.1792L102.833 64.3163Z" fill="#A7AAF0"/>
<path d="M100.26 44.8523C100.216 46.3005 99.6722 47.6889 98.7214 48.7821C98.3254 48.1821 97.5877 47.3662 97.0914 47.4121C95.7316 47.5362 95.5157 49.8189 95.5157 49.8189C95.5157 49.8189 95.0058 47.4393 94.3837 47.6467C93.5033 47.9373 92.7112 49.8988 92.7112 49.8988C92.4642 48.8185 92.529 47.6904 92.8982 46.6455C93.0269 46.3549 93.2123 46.0928 93.4434 45.8745C93.6745 45.6562 93.9468 45.4861 94.2443 45.3741L94.195 45.0342C94.4755 44.9985 94.7696 44.9594 95.0721 44.9152L95.5973 44.837L95.6585 44.8268L95.9118 44.7877C96.2194 44.7384 96.5339 44.6841 96.8466 44.6263L97.1407 44.5719L97.3616 44.5277C98.3263 44.3465 99.2771 44.0978 100.207 43.7832C100.247 44.1381 100.265 44.4952 100.26 44.8523Z" fill="#A7AAF0"/>
<path d="M106.529 62.9329C105.868 65.318 105.022 67.648 103.999 69.9018C102.268 73.7448 98.7855 80.1273 98.7855 80.1273L95.5391 79.6734C95.5391 79.6734 97.2932 74.7188 97.9187 71.5607C98.2416 69.9256 98.7532 67.8349 99.2053 66.0519C99.6286 64.3913 100.001 62.9924 100.125 62.4961C100.689 62.819 101.59 63.0655 102.615 63.176C103.924 63.3395 105.251 63.2571 106.529 62.9329Z" fill="#B25E47"/>
<path d="M106.53 62.932C107.04 62.3948 107.46 56.3184 107.46 56.3184" stroke="#83ADDF" stroke-width="0.127479" stroke-linecap="round" stroke-linejoin="round"/>
<path d="M100.477 48.2715C100.477 48.2715 100.307 49.6092 100.127 50.3689C100.05 50.6766 99.921 51.5842 99.7867 52.7485C99.5717 54.6135 99.4582 56.4888 99.4468 58.3661C99.4808 61.1893 99.6932 62.2126 100.127 62.4998" stroke="#83ADDF" stroke-width="0.127479" stroke-linecap="round" stroke-linejoin="round"/>
<path d="M99.5186 60.248C101.149 61.0354 102.989 61.2802 104.769 60.9466" stroke="#83ADDF" stroke-width="0.127479" stroke-linecap="round" stroke-linejoin="round"/>
<path d="M104.908 63.2174C104.952 62.048 105.347 59.818 105.988 59.0038C106.698 58.1012 107.245 58.8202 107.245 58.8202" stroke="#83ADDF" stroke-width="0.127479" stroke-linecap="round" stroke-linejoin="round"/>
<path d="M106.013 60.185C106.013 60.2588 106.034 60.331 106.075 60.3924C106.116 60.4539 106.174 60.5019 106.242 60.5303C106.31 60.5587 106.385 60.5662 106.458 60.5519C106.53 60.5375 106.596 60.5021 106.649 60.4499C106.701 60.3977 106.736 60.3313 106.751 60.2589C106.765 60.1865 106.757 60.1115 106.729 60.0435C106.701 59.9754 106.653 59.9173 106.591 59.8765C106.53 59.8357 106.457 59.8141 106.384 59.8145C106.286 59.8149 106.192 59.8541 106.122 59.9235C106.053 59.9929 106.014 60.0869 106.013 60.185Z" fill="#83ADDF"/>
<path d="M95.5411 48.5488C95.6499 49.3222 95.6091 49.5517 95.315 50.5749C95.021 51.5981 94.285 54.8854 94.8238 57.2208C95.3983 59.7143 96.7785 62.6599 96.736 63.5097C96.6935 64.3596 96.4114 66.0083 97.9819 66.4247" stroke="#83ADDF" stroke-width="0.127479" stroke-linecap="round" stroke-linejoin="round"/>
<path d="M91.3968 62.7334C91.3135 62.6399 88.7334 59.713 85.4971 59.4767C85.424 59.4767 85.3526 59.4665 85.2812 59.4648" stroke="#83ADDF" stroke-width="0.127479" stroke-linecap="round" stroke-linejoin="round"/>
<path d="M89.6415 51.2031C89.6796 51.4513 89.7023 51.7017 89.7094 51.9527C89.6765 52.2806 89.6139 52.6049 89.5225 52.9215C89.2573 54.023 88.8086 55.772 88.9089 57.3017C89.0602 59.6014 90.459 60.9612 91.4585 62.2394" stroke="#83ADDF" stroke-width="0.127479" stroke-linecap="round" stroke-linejoin="round"/>
<path d="M74.9779 56.1573C74.1365 56.1981 73.8476 56.074 73.1439 55.661C72.4402 55.2479 71.4765 53.9612 71.2827 51.9658L73.5586 50.793C73.5586 50.793 76.7558 54.8213 74.9779 56.1573Z" fill="#B25E47"/>
<path d="M70.4702 52.2931C70.6402 53.4218 70.8696 53.9062 71.1348 53.8773C71.4 53.8484 71.6311 53.1974 71.2827 51.9668L70.4702 52.2931Z" fill="#B25E47" stroke="#934735" stroke-width="0.169972" stroke-miterlimit="10"/>
<path d="M71.332 52.0431C71.502 53.1718 71.7298 53.6562 71.9949 53.6273C72.2601 53.5984 72.4912 52.9474 72.1445 51.7168L71.332 52.0431Z" fill="#B25E47" stroke="#934735" stroke-width="0.169972" stroke-miterlimit="10"/>
<path d="M62.5581 39.2949L72.3196 35.3516L78.5456 48.7861L69.7139 53.2139L62.5581 39.2949Z" fill="#EDEDED" stroke="#EDEDED" stroke-width="0.339943" stroke-linecap="round" stroke-linejoin="round"/>
<path d="M63.8311 39.2949L73.5942 35.3516L78.5455 48.7861L70.3954 52.0632L63.8311 39.2949Z" fill="#F9F9F9" stroke="#DDDDDD" stroke-width="0.339943" stroke-linecap="round" stroke-linejoin="round"/>
<path d="M73.7407 51.793C72.5033 50.7374 71.7011 48.9527 72.177 48.7165C72.5407 48.5363 73.4501 49.5544 74.2507 49.9369C74.9275 50.2783 75.4899 50.81 75.8688 51.4666C76.0507 51.8491 76.9243 53.4672 77.3237 53.7222C77.7232 53.9771 83.3254 57.9426 84.3079 58.5426C85.2903 59.1426 89.8388 62.0712 90.0869 65.2003C90.3351 68.3295 86.8897 69.3493 84.8008 67.874C83.2184 66.7607 75.3963 56.7035 74.9781 56.1578C74.9781 56.1578 75.5339 54.9052 74.4393 54.176C73.7951 53.746 73.5402 52.8621 73.7407 51.793Z" fill="#B25E47"/>
<path d="M74.4476 54.1765C73.8034 53.7465 73.5485 52.866 73.749 51.7969C72.5117 50.7414 71.7094 48.9567 72.1853 48.7204C72.549 48.5402 73.4584 49.5584 74.259 49.9408C74.9358 50.2822 75.4982 50.8139 75.8771 51.4705C75.9757 51.6762 76.2731 52.2388 76.5893 52.7555" stroke="#934735" stroke-width="0.127479" stroke-linecap="round" stroke-linejoin="round"/>
<path d="M94.2458 45.3829C94.2816 45.5343 94.2816 45.692 94.2458 45.8435C94.2458 45.8435 94.1014 46.0509 94.4906 46.6339C94.792 47.0674 95.1977 47.4181 95.6702 47.6537C95.7858 47.6792 98.1824 46.3449 98.5597 44.7132C98.5597 44.7132 97.511 41.7081 98.3014 41.1642C99.0917 40.6203 100.244 36.7075 96.7597 37.7189C96.7597 37.7189 96.0968 34.571 93.928 34.7902C91.7592 35.0095 90.9671 37.0951 90.5949 39.167C90.2226 41.239 91.2033 44.6979 92.8368 44.5551L94.2458 45.3829Z" fill="#B25E47"/>
<path d="M91.7693 39.6892C91.5994 40.0292 91.1132 40.1193 90.6917 39.9C90.2702 39.6807 90.0679 39.232 90.2413 38.8972C90.4147 38.5623 90.8991 38.4671 91.3206 38.6864C91.7421 38.9057 91.9444 39.3544 91.7693 39.6892Z" fill="#A0503D"/>
<path d="M94.0302 43.9299C94.4354 43.8211 94.7937 43.5822 95.05 43.25C95.05 43.25 95.7792 44.5163 93.9707 45.0636C93.9758 45.0636 93.5662 44.0217 94.0302 43.9299Z" fill="#914839"/>
<path d="M102.615 42.615C102.575 42.9244 101.443 43.2677 101.752 43.7453C102.092 44.2688 101.703 44.9589 100.786 44.4932C99.9961 44.0938 99.6578 44.2382 99.3587 44.8535C99.0595 45.4688 98.4357 44.8654 97.851 44.896C97.2663 44.9266 96.6221 44.7618 96.6612 44.1142C96.7003 43.4666 97.732 43.2643 97.3105 42.6558C96.889 42.0473 96.6306 41.5357 97.3513 40.521C97.3513 40.521 98.6465 40.181 98.6261 39.0626C98.6057 37.9442 97.2493 37.9017 96.787 38.6921C96.787 38.6921 95.9558 37.9017 95.7502 37.0892C95.5802 36.4093 95.3711 35.7906 95.1077 35.5034C95.0625 35.4517 95.0084 35.4085 94.9479 35.3759C94.9479 35.3759 93.0901 34.5448 92.1978 36.2802C91.3054 38.0156 90.838 41.1889 91.4278 42.4807C91.646 42.9728 92.0185 43.3804 92.4889 43.642C92.9593 43.9035 93.5021 44.0049 94.0352 43.9306L94.1269 44.551L94.251 45.377C93.9535 45.489 93.6812 45.6591 93.4501 45.8774C93.219 46.0957 93.0336 46.3578 92.9049 46.6484C92.9049 46.6484 90.9179 46.9799 90.085 47.3385C90.085 47.3385 89.8488 46.6008 89.14 46.385C88.4312 46.1691 87.5388 45.9431 87.4573 44.9368C87.3757 43.9306 85.9071 44.1923 85.5791 43.1725C85.251 42.1527 85.9479 41.4898 86.4 41.2008C86.8522 40.9119 87.3553 40.3289 87.017 39.6507C86.6788 38.9725 87.0068 38.3368 87.7666 37.8337C88.5264 37.3306 88.4091 36.7799 88.4295 36.2088C88.4533 35.4932 88.9394 35.2892 89.4187 34.9272C89.9422 34.5363 89.2046 33.3753 90.6935 33.1714C91.5162 33.0575 91.6318 32.8739 92.2437 32.3691C92.706 31.9901 93.476 32.6377 94.2833 32.2161C95.0907 31.7946 95.5156 31.6212 96.2567 32.4116C96.9978 33.202 98.0805 32.8076 98.2131 33.9261C98.3422 35.002 97.834 35.2246 97.7966 35.2552C97.8374 35.2552 99.2686 35.2654 99.6034 36.5606C99.9383 37.8558 99.3468 38.1108 100.168 38.9402C100.989 39.7697 101.347 40.1793 100.963 40.8388C100.747 41.2076 100.836 41.7125 101.626 41.8586C102.416 42.0048 102.663 42.3074 102.615 42.615Z" fill="#604730"/>
<path d="M92.1925 36.2795C91.2985 38.015 90.8328 41.1883 91.4226 42.4801C91.6408 42.9721 92.0132 43.3798 92.4836 43.6413C92.954 43.9029 93.4968 44.0042 94.0299 43.93L94.1217 44.5504C93.5166 45.7793 91.8968 46.1124 90.9161 45.8574C89.6209 45.5175 90.5761 44.7662 89.3166 44.2784C87.826 43.7022 89.2656 42.3254 88.9988 42.0399C88.7319 41.7543 88.3053 41.2767 88.7676 40.6206C89.2299 39.9645 90.2974 39.9271 90.2056 39.1283C90.1138 38.3294 90.3127 38.0626 90.8634 37.743C91.8832 37.1532 91.7132 36.198 91.5195 35.6473C91.3257 35.0965 91.7846 33.8235 93.1529 33.6943C94.2968 33.5906 94.8526 34.245 95.1025 35.5028C95.0573 35.451 95.0032 35.4079 94.9427 35.3753C94.9427 35.3753 93.0849 34.5441 92.1925 36.2795Z" fill="#473526"/>
<path d="M95.1028 35.5028C94.8581 34.245 94.2972 33.5906 93.1532 33.6943C91.7935 33.8201 91.326 35.0982 91.5198 35.6473C91.7136 36.1963 91.8802 37.1532 90.8637 37.743C90.313 38.0625 90.1176 38.3294 90.2059 39.1283C90.2943 39.9271 89.2541 39.9781 88.768 40.6206C88.4423 41.0263 88.2348 41.5138 88.168 42.0297" stroke="#896442" stroke-width="0.127479" stroke-linecap="round" stroke-linejoin="round"/>
<path d="M91.1712 41.3027C90.6919 41.4727 90.3214 41.884 90.3893 42.2869C90.4709 42.7866 90.318 42.9413 90.0103 43.033C89.7027 43.1248 89.3967 43.0942 89.242 43.6364C89.197 43.8213 89.1668 44.0094 89.152 44.1991C89.1214 44.471 89.0789 44.6869 88.812 44.8449" stroke="#896442" stroke-width="0.127479" stroke-linecap="round" stroke-linejoin="round"/>
<path d="M96.0083 35.4626C96.4398 35.3406 96.8831 35.2654 97.3307 35.2383" stroke="#896442" stroke-width="0.127479" stroke-linecap="round" stroke-linejoin="round"/>
<path d="M90.3809 45.064C90.5729 44.4861 91.2409 44.8566 91.2851 44.2328C91.2978 44.0141 91.3922 43.8082 91.5497 43.6558C91.7071 43.5034 91.916 43.4158 92.135 43.4102" stroke="#896442" stroke-width="0.127479" stroke-linecap="round" stroke-linejoin="round"/>
<path d="M97.1777 39.5374C97.3681 38.968 97.9375 38.8456 98.0786 38.9306" stroke="#934735" stroke-width="0.127479" stroke-linecap="round" stroke-linejoin="round"/>
<path d="M97.2832 39.3189C97.8356 39.149 97.9529 39.9393 97.3903 39.8866" stroke="#934735" stroke-width="0.127479" stroke-linecap="round" stroke-linejoin="round"/>
<path d="M93.5778 36.6845C93.503 36.9429 93.8905 37.05 94.1387 36.9905C94.3868 36.931 94.5143 37.1231 94.6248 37.0177C94.7353 36.9123 94.4718 36.5689 94.1727 36.4585C94.1188 36.4338 94.0606 36.4202 94.0015 36.4182C93.9423 36.4163 93.8833 36.4261 93.828 36.4471C93.7726 36.4682 93.722 36.5 93.6791 36.5407C93.6361 36.5815 93.6017 36.6304 93.5778 36.6845Z" fill="#604730"/>
<path d="M92.8779 36.7705C92.9764 36.9813 92.6603 37.124 92.4393 37.1104C92.2184 37.0968 92.1368 37.2804 92.0297 37.1988C91.9226 37.1172 92.0977 36.796 92.3391 36.6617C92.3815 36.6331 92.4291 36.6132 92.4793 36.6032C92.5294 36.5932 92.5811 36.5932 92.6312 36.6033C92.6814 36.6135 92.729 36.6334 92.7713 36.6621C92.8137 36.6908 92.8499 36.7277 92.8779 36.7705Z" fill="#604730"/>
<path d="M93.697 38.643C93.8228 38.643 93.9248 38.5411 93.9248 38.4153C93.9248 38.2895 93.8228 38.1875 93.697 38.1875C93.5712 38.1875 93.4692 38.2895 93.4692 38.4153C93.4692 38.5411 93.5712 38.643 93.697 38.643Z" fill="#683F1D"/>
<path d="M92.1365 38.52C92.2622 38.52 92.3642 38.418 92.3642 38.2922C92.3642 38.1664 92.2622 38.0645 92.1365 38.0645C92.0107 38.0645 91.9087 38.1664 91.9087 38.2922C91.9087 38.418 92.0107 38.52 92.1365 38.52Z" fill="#683F1D"/>
<path d="M92.5665 39.9601C92.2266 39.7545 91.8866 39.2938 92.3387 39.1545C92.7909 39.0151 92.9353 38.8145 92.9489 37.6621" stroke="#934735" stroke-width="0.127479" stroke-linecap="round" stroke-linejoin="round"/>
<path d="M93.2346 41.1678C93.7445 41.0149 93.7445 40.1582 93.7445 40.1582C93.3334 40.399 92.9037 40.6065 92.4595 40.7786C92.4595 40.7786 92.677 41.3344 93.2346 41.1678Z" fill="white" stroke="#934735" stroke-width="0.127479" stroke-linecap="round" stroke-linejoin="round"/>
<path d="M97.3464 40.5215C97.1494 40.5334 96.9519 40.5334 96.7549 40.5215" stroke="#934735" stroke-width="0.127479" stroke-linecap="round" stroke-linejoin="round"/>
<path d="M94.023 39.7244C94.193 40.0643 94.6791 40.1544 95.1006 39.9352C95.5222 39.7159 95.7244 39.2672 95.5511 38.9323C95.3777 38.5975 94.8933 38.5023 94.4717 38.7216C94.0502 38.9408 93.8479 39.3896 94.023 39.7244Z" fill="#A0503D"/>
<path d="M116.039 77.9629H4.63819C3.62531 77.9629 2.8042 78.784 2.8042 79.7969V79.9652C2.8042 80.978 3.62531 81.7992 4.63819 81.7992H116.039C117.052 81.7992 117.873 80.978 117.873 79.9652V79.7969C117.873 78.784 117.052 77.9629 116.039 77.9629Z" fill="#EDEDED"/>
<path d="M6.25439 81.7987C9.2017 80.3879 13.5768 80.0769 16.9099 81.7987" stroke="#DDDDDD" stroke-width="0.127479" stroke-linecap="round" stroke-linejoin="round"/>
<path d="M5.23633 77.9629C8.14454 79.5759 10.0771 79.4484 13.6652 79.4009C16.3355 79.3669 19.5513 80.7266 21.6947 81.7992" stroke="#DDDDDD" stroke-width="0.127479" stroke-linecap="round" stroke-linejoin="round"/>
<path d="M19.0366 77.9629C21.146 80.334 22.606 80.6297 23.3182 80.0195C24.0695 79.3703 24.848 79.1952 25.6417 79.8802C26.5647 80.6739 27.8514 79.0643 28.5754 77.9629" stroke="#DDDDDD" stroke-width="0.127479" stroke-linecap="round" stroke-linejoin="round"/>
<path d="M27.2612 81.7988C28.1111 81.0118 29.6408 80.0396 31.9983 79.8798C34.8029 79.6911 38.3689 80.9897 40.2794 81.7988" stroke="#DDDDDD" stroke-width="0.127479" stroke-linecap="round" stroke-linejoin="round"/>
<path d="M36.5879 77.9629C39.8785 79.6881 43.4751 80.6994 46.38 79.8802C49.2168 79.083 55.9885 80.0739 58.4479 77.9629" stroke="#DDDDDD" stroke-width="0.127479" stroke-linecap="round" stroke-linejoin="round"/>
<path d="M49.0688 81.799C51.1765 80.5973 54.4603 79.8648 57.0201 81.799" stroke="#DDDDDD" stroke-width="0.127479" stroke-linecap="round" stroke-linejoin="round"/>
<path d="M60.644 81.7992C64.5534 78.7516 72.384 78.1958 78.916 79.8615C86.6446 81.8331 90.1137 79.5589 91.5194 77.9629" stroke="#DDDDDD" stroke-width="0.127479" stroke-linecap="round" stroke-linejoin="round"/>
<path d="M67.686 81.798C70.5229 80.5215 74.3438 80.2598 78.3688 81.798" stroke="#DDDDDD" stroke-width="0.127479" stroke-linecap="round" stroke-linejoin="round"/>
<path d="M92.4199 81.8C97.1689 79.5904 100.971 79.8436 104.488 81.8" stroke="#DDDDDD" stroke-width="0.127479" stroke-linecap="round" stroke-linejoin="round"/>
<path d="M99.1187 77.9629C106.946 80.5907 113.423 82.6269 117.69 79.0592" stroke="#DDDDDD" stroke-width="0.127479" stroke-linecap="round" stroke-linejoin="round"/>
<path d="M105.363 77.9629C109.336 80.2949 113.976 80.1198 116.83 78.1737" stroke="#DDDDDD" stroke-width="0.127479" stroke-linecap="round" stroke-linejoin="round"/>
</svg>
